{
.appVersion = "3324";
.formatVersion = 3;
axes = (
{
name = Weight;
tag = wght;
}
);
classes = (
{
code = "zero one two three four five six seven eight nine";
name = fig;
},
{
code = "zerosuperior onesuperior twosuperior threesuperior foursuperior fivesuperior sixsuperior sevensuperior eightsuperior ninesuperior
";
name = sups;
},
{
code = "zeroinferior oneinferior twoinferior threeinferior fourinferior fiveinferior sixinferior seveninferior eightinferior nineinferior
";
name = dnom;
}
);
customParameters = (
{
disabled = 1;
name = glyphOrder;
value = (
.notdef,
NULL,
CR,
space,
uni00A0,
A,
B,
C,
D,
E,
F,
G,
H,
I,
J,
K,
L,
M,
N,
O,
P,
Q,
R,
S,
T,
U,
V,
W,
X,
Y,
Z,
Aacute,
Abreve,
Acircumflex,
Adieresis,
AE,
Agrave,
Amacron,
Aogonek,
Aring,
Atilde,
Cacute,
Ccaron,
Ccedilla,
Ccircumflex,
Cdotaccent,
Dcaron,
Dcroat,
Eacute,
Ebreve,
Ecaron,
Ecircumflex,
Edieresis,
Edotaccent,
Egrave,
Emacron,
Eng,
Eogonek,
Eth,
Gbreve,
Gcircumflex,
Gcommaaccent,
Gdotaccent,
Hbar,
Hcircumflex,
Iacute,
Ibreve,
Icircumflex,
Idieresis,
Idotaccent,
Igrave,
IJ,
Imacron,
Iogonek,
Itilde,
Jcircumflex,
Kcommaaccent,
Lacute,
Lcaron,
Lcommaaccent,
Ldot,
Lslash,
Nacute,
Ncaron,
Ncommaaccent,
Ntilde,
Oacute,
Obreve,
Ocircumflex,
Odieresis,
OE,
Ograve,
Ohungarumlaut,
Omacron,
Oslash,
Otilde,
Racute,
Rcaron,
Rcommaaccent,
Sacute,
Scaron,
Scedilla,
Scircumflex,
Scommaaccent,
Tbar,
Tcaron,
Tcedilla,
uni021A,
Thorn,
Uacute,
Ubreve,
Ucircumflex,
Udieresis,
Ugrave,
Uhungarumlaut,
Umacron,
Uogonek,
Uring,
Utilde,
Wacute,
Wdieresis,
Wgrave,
Wcircumflex,
Yacute,
Ycircumflex,
Ydieresis,
Ygrave,
Zacute,
Zcaron,
Zdotaccent,
a,
b,
c,
d,
e,
f,
g,
h,
i,
j,
k,
l,
m,
n,
o,
p,
q,
r,
s,
t,
u,
v,
w,
x,
y,
z,
aacute,
abreve,
acircumflex,
adieresis,
ae,
agrave,
amacron,
aogonek,
aring,
atilde,
cacute,
ccaron,
ccedilla,
ccircumflex,
cdotaccent,
dcaron,
dcroat,
dotlessi,
dotlessj,
eacute,
ebreve,
ecaron,
ecircumflex,
edieresis,
edotaccent,
egrave,
emacron,
eng,
eogonek,
eth,
gbreve,
gcircumflex,
gcommaaccent,
gdotaccent,

glyphs = (
{
glyphname = A;
kernLeft = A;
kernRight = A;
lastChange = "2024-10-11 15:27:38 +0000";
layers = (
{
anchors = (
{
name = bottom;
pos = (584,0);
},
{
name = top;
pos = (300,700);
}
);
layerId = m001;
shapes = (
{
closed = 1;
nodes = (
(95,0,l),
(158,195,l),
(439,195,l),
(503,0,l),
(584,0,l),
(348,700,l),
(251,700,l),
(16,0,l)
);
},
{
closed = 1;
nodes = (
(298,626,l),
(419,256,l),
(178,256,l)
);
}
);
width = 600;
},
{
anchors = (
{
name = bottom;
pos = (599,0);
},
{
name = top;
pos = (300,700);
}
);
layerId = "8560E1E4-71CD-42DE-875E-B4A7223FD06A";
shapes = (
{
closed = 1;
nodes = (
(165,0,l),
(201,137,l),
(393,137,l),
(428,0,l),
(599,0,l),
(398,700,l),
(202,700,l),
(1,0,l)
);
},
{
closed = 1;
nodes = (
(298,509,l),
(359,270,l),
(236,270,l)
);
}
);
width = 600;
},
{
anchors = (
{
name = bottom;
pos = (580,0);
},
{
name = top;
pos = (300,700);
}
);
layerId = "2B01EBD5-E910-4BCA-BDA7-5B8A0D7F375D";
shapes = (
{
closed = 1;
nodes = (
(73,0,l),
(145,210,l),
(454,210,l),
(526,0,l),
(580,0,l),
(336,700,l),
(264,700,l),
(20,0,l)
);
},
{
closed = 1;
nodes = (
(299,662,l),
(440,252,l),
(159,252,l)
);
}
);
width = 600;
}
);
unicode = 65;
},
{
color = 0;
glyphname = Aogonek;
kernLeft = A;
kernRight = A;
lastChange = "2024-11-06 19:51:56 +0000";
layers = (
{
layerId = m001;
shapes = (
{
closed = 1;
nodes = (
(95,0,l),
(158,195,l),
(439,195,l),
(503,0,l),
(529,0,l),
(459,-50,o),
(430,-91,o),
(430,-140,cs),
(430,-195,o),
(472,-231,o),
(536,-231,cs),
(563,-231,o),
(590,-224,o),
(609,-212,c),
(595,-173,l),
(583,-181,o),
(564,-185,o),
(547,-185,cs),
(505,-185,o),
(480,-164,o),
(480,-128,cs),
(480,-87,o),
(512,-47,o),
(584,0,c),
(348,700,l),
(251,700,l),
(16,0,l)
);
},
{
closed = 1;
nodes = (
(298,626,l),
(419,256,l),
(178,256,l)
);
}
);
width = 600;
},
{
layerId = "8560E1E4-71CD-42DE-875E-B4A7223FD06A";
shapes = (
{
closed = 1;
nodes = (
(165,0,l),
(201,137,l),
(393,137,l),
(428,0,l),
(515,0,l),
(454,-41,o),
(427,-82,o),
(427,-132,cs),
(427,-191,o),
(470,-231,o),
(535,-231,cs),
(571,-231,o),
(606,-222,o),
(628,-208,c),
(608,-138,l),
(598,-145,o),
(581,-149,o),
(563,-149,cs),
(533,-149,o),
(514,-132,o),
(514,-103,cs),
(514,-67,o),
(541,-35,o),
(599,0,c),
(398,700,l),
(202,700,l),
(1,0,l)
);
},
{
closed = 1;
nodes = (
(298,509,l),
(359,270,l),
(236,270,l)
);
}
);
width = 600;
},
{
layerId = "2B01EBD5-E910-4BCA-BDA7-5B8A0D7F375D";
shapes = (
{
closed = 1;
nodes = (
(73,0,l),
(145,210,l),
(454,210,l),
(526,0,l),
(531,0,l),
(456,-55,o),
(430,-96,o),
(430,-142,cs),
(430,-193,o),
(468,-231,o),
(536,-231,cs),
(562,-231,o),
(586,-224,o),
(603,-213,c),
(591,-182,l),
(578,-190,o),
(559,-195,o),
(542,-195,cs),
(499,-195,o),
(470,-174,o),
(470,-134,cs),
(470,-97,o),
(496,-56,o),
(580,0,c),
(336,700,l),
(264,700,l),
(20,0,l)
);
},
{
closed = 1;
nodes = (
(299,662,l),
(440,252,l),
(159,252,l)
);
}
);
width = 600;
}
);
unicode = 260;
},
{
glyphname = AE;
kernLeft = A;
kernRight = E;
lastChange = "2024-10-11 15:27:38 +0000";
layers = (
{
layerId = m001;
shapes = (
{
closed = 1;
nodes = (
(83,0,l),
(138,170,l),
(281,170,l),
(281,0,l),
(570,0,l),
(570,67,l),
(356,67,l),
(356,320,l),
(493,320,l),
(493,387,l),
(356,387,l),
(356,633,l),
(566,633,l),
(566,700,l),
(241,700,l),
(6,0,l)
);
},
{
closed = 1;
nodes = (
(281,611,l),
(281,231,l),
(158,231,l)
);
}
);
width = 600;
},
{
layerId = "8560E1E4-71CD-42DE-875E-B4A7223FD06A";
shapes = (
{
closed = 1;
nodes = (
(133,0,l),
(160,123,l),
(254,123,l),
(254,0,l),
(577,0,l),
(577,144,l),
(406,144,l),
(406,283,l),
(508,283,l),
(508,423,l),
(406,423,l),
(406,556,l),
(573,556,l),
(573,700,l),
(162,700,l),
(-11,0,l)
);
},
{
closed = 1;
nodes = (
(254,555,l),
(254,248,l),
(187,248,l)
);
}
);
width = 600;
},
{
layerId = "2B01EBD5-E910-4BCA-BDA7-5B8A0D7F375D";
shapes = (
{
closed = 1;
nodes = (
(68,0,l),
(132,182,l),
(288,182,l),
(288,0,l),
(568,0,l),
(568,47,l),
(340,47,l),
(340,330,l),
(489,330,l),
(489,377,l),
(340,377,l),
(340,653,l),
(564,653,l),
(564,700,l),
(262,700,l),
(10,0,l)
);
},
{
closed = 1;
nodes = (
(288,630,l),
(288,224,l),
(146,224,l)
);
}
);
width = 600;
}
);
unicode = 198;
},
{
glyphname = B;
kernLeft = H;
lastChange = "2024-10-11 15:27:38 +0000";
layers = (
{
layerId = m001;
shapes = (
{
closed = 1;
nodes = (
(319,0,ls),
(456,0,o),
(546,77,o),
(546,194,cs),
(546,280,o),
(488,343,o),
(395,364,c),
(471,387,o),
(519,445,o),
(519,522,cs),
(519,630,o),
(436,700,o),
(308,700,cs),
(95,700,l),
(95,0,l)
);
},
{
closed = 1;
nodes = (
(172,634,l),
(302,634,ls),
(387,634,o),
(442,587,o),
(442,514,cs),
(442,441,o),
(387,394,o),
(302,394,cs),
(172,394,l)
);
},
{
closed = 1;
nodes = (
(172,331,l),
(311,331,ls),
(407,331,o),
(468,279,o),
(468,199,cs),
(468,118,o),
(406,66,o),
(311,66,cs),
(172,66,l)
);
}
);
width = 600;
},
{
layerId = "8560E1E4-71CD-42DE-875E-B4A7223FD06A";
shapes = (
{
closed = 1;
nodes = (
(337,0,ls),
(476,0,o),
(574,81,o),
(574,196,cs),
(574,268,o),
(525,328,o),
(451,357,c),
(513,389,o),
(554,444,o),
(554,509,cs),
(554,620,o),
(457,700,o),
(321,700,cs),
(72,700,l),
(72,0,l)
);
},
{
closed = 1;
nodes = (
(240,566,l),
(302,566,ls),
(352,566,o),
(384,537,o),
(384,492,cs),
(384,448,o),
(351,418,o),
(302,418,cs),
(240,418,l)
);
},
{
closed = 1;
nodes = (
(240,292,l),
(316,292,ls),
(369,292,o),
(403,262,o),
(403,213,cs),
(403,165,o),
(369,134,o),
(316,134,cs),
(240,134,l)
);
}
);
width = 600;
},
{
layerId = "2B01EBD5-E910-4BCA-BDA7-5B8A0D7F375D";
shapes = (
{
closed = 1;
nodes = (
(314,0,ls),
(451,0,o),
(539,76,o),
(539,193,cs),
(539,285,o),
(477,349,o),
(375,366,c),
(460,386,o),
(510,443,o),
(510,525,cs),
(510,633,o),
(431,700,o),
(304,700,cs),
(101,700,l),
(101,0,l)
);
},
{
closed = 1;
nodes = (
(153,653,l),
(302,653,ls),
(397,653,o),
(459,601,o),
(459,520,cs),
(459,440,o),
(398,388,o),
(302,388,cs),
(153,388,l)
);
},
{
closed = 1;
nodes = (
(153,342,l),
(310,342,ls),
(418,342,o),
(487,285,o),
(487,195,cs),
(487,106,o),
(417,47,o),
(310,47,cs),
(153,47,l)
);
}
);
width = 600;
}
);
unicode = 66;
},
{
glyphname = C;
kernLeft = O;
kernRight = C;
lastChange = "2024-10-11 15:27:38 +0000";
layers = (
{
anchors = (
{
name = bottom;
pos = (304,0);
},
{
name = top;
pos = (309,700);
}
);
layerId = m001;
shapes = (
{
closed = 1;
nodes = (
(428,-11,o),
(520,69,o),
(558,204,c),
(485,227,l),
(458,119,o),
(388,59,o),
(306,59,cs),
(201,59,o),
(119,166,o),
(119,350,cs),
(119,534,o),
(201,641,o),
(306,641,cs),
(388,641,o),
(458,581,o),
(485,473,c),
(558,496,l),
(520,631,o),
(428,711,o),
(306,711,cs),
(165,711,o),
(41,582,o),
(41,350,cs),
(41,118,o),
(165,-11,o),
(306,-11,cs)
);
}
);
userData = {
com.typemytype.robofont.guideline.magnetic.Xb6nk9FEni = 5;
com.typemytype.robofont.guideline.magnetic.fJyXOYVzbz = 5;
com.typemytype.robofont.guideline.magnetic.vlo5H4bvfx = 5;
};
width = 600;
},
{
anchors = (
{
name = bottom;
pos = (315,0);
},
{
name = top;
pos = (311,700);
}
);
layerId = "8560E1E4-71CD-42DE-875E-B4A7223FD06A";
shapes = (
{
closed = 1;
nodes = (
(436,-11,o),
(541,76,o),
(574,229,c),
(423,268,l),
(411,184,o),
(366,142,o),
(315,142,cs),
(251,142,o),
(202,201,o),
(202,350,cs),
(202,499,o),
(251,558,o),
(315,558,cs),
(366,558,o),
(411,516,o),
(423,432,c),
(574,471,l),
(541,624,o),
(436,711,o),
(310,711,cs),
(152,711,o),
(29,582,o),
(29,350,cs),
(29,118,o),
(152,-11,o),
(310,-11,cs)
);
}
);
userData = {
com.typemytype.robofont.guideline.magnetic.Xb6nk9FEni = 5;
com.typemytype.robofont.guideline.magnetic.fJyXOYVzbz = 5;
com.typemytype.robofont.guideline.magnetic.vlo5H4bvfx = 5;
};
width = 600;
},
{
anchors = (
{
name = bottom;
pos = (301,0);
},
{
name = top;
pos = (302,700);
}
);
layerId = "2B01EBD5-E910-4BCA-BDA7-5B8A0D7F375D";
shapes = (
{
closed = 1;
nodes = (
(423,-11,o),
(514,67,o),
(554,197,c),
(503,214,l),
(472,100,o),
(392,37,o),
(302,37,cs),
(184,37,o),
(96,155,o),
(96,350,cs),
(96,545,o),
(184,663,o),
(302,663,cs),
(392,663,o),
(472,600,o),
(503,486,c),
(554,503,l),
(514,633,o),
(423,711,o),
(302,711,cs),
(164,711,o),
(44,582,o),
(44,350,cs),
(44,118,o),
(164,-11,o),
(302,-11,cs)
);
}
);
userData = {
com.typemytype.robofont.guideline.magnetic.Xb6nk9FEni = 5;
com.typemytype.robofont.guideline.magnetic.fJyXOYVzbz = 5;
com.typemytype.robofont.guideline.magnetic.vlo5H4bvfx = 5;
};
width = 600;
}
);
unicode = 67;
},
{
glyphname = Ccedilla;
kernLeft = O;
kernRight = C;
lastChange = "2024-10-11 15:27:38 +0000";
layers = (
{
layerId = m001;
shapes = (
{
closed = 1;
nodes = (
(361,-239,o),
(407,-200,o),
(407,-146,cs),
(407,-99,o),
(369,-69,o),
(310,-66,c),
(323,-10,l),
(436,-4,o),
(522,75,o),
(558,204,c),
(485,227,l),
(458,119,o),
(388,59,o),
(306,59,cs),
(201,59,o),
(119,166,o),
(119,350,cs),
(119,534,o),
(201,641,o),
(306,641,cs),
(388,641,o),
(458,581,o),
(485,473,c),
(558,496,l),
(520,631,o),
(428,711,o),
(306,711,cs),
(165,711,o),
(41,582,o),
(41,350,cs),
(41,132,o),
(150,5,o),
(281,-10,c),
(258,-99,l),
(287,-99,ls),
(332,-99,o),
(358,-117,o),
(358,-148,cs),
(358,-180,o),
(334,-200,o),
(293,-200,cs),
(264,-200,o),
(237,-190,o),
(214,-171,c),
(186,-203,l),
(213,-227,o),
(251,-239,o),
(296,-239,cs)
);
}
);
width = 600;
},
{
layerId = "8560E1E4-71CD-42DE-875E-B4A7223FD06A";
shapes = (
{
closed = 1;
nodes = (
(390,-254,o),
(447,-206,o),
(447,-144,cs),
(447,-95,o),
(408,-63,o),
(345,-58,c),
(357,-7,l),
(462,12,o),
(545,96,o),
(574,229,c),
(423,268,l),
(411,184,o),
(366,142,o),
(315,142,cs),
(251,142,o),
(202,201,o),
(202,350,cs),
(202,499,o),
(251,558,o),
(315,558,cs),
(366,558,o),
(411,516,o),
(423,432,c),
(574,471,l),
(541,624,o),
(436,711,o),
(310,711,cs),
(152,711,o),
(29,582,o),
(29,350,cs),
(29,131,o),
(139,4,o),
(284,-10,c),
(259,-111,l),
(304,-111,ls),
(339,-111,o),
(360,-124,o),
(360,-146,cs),
(360,-170,o),
(341,-183,o),
(306,-183,cs),
(280,-183,o),
(252,-173,o),
(229,-155,c),
(180,-212,l),
(212,-240,o),
(256,-254,o),
(315,-254,cs)
);
}
);
width = 600;
},
{
layerId = "2B01EBD5-E910-4BCA-BDA7-5B8A0D7F375D";
shapes = (
{
closed = 1;
nodes = (
(356,-235,o),
(399,-198,o),
(399,-147,cs),
(399,-100,o),
(361,-70,o),
(303,-68,c),
(316,-11,l),
(430,-5,o),
(516,72,o),
(554,197,c),
(503,214,l),
(472,100,o),
(392,37,o),
(302,37,cs),
(184,37,o),
(96,155,o),
(96,350,cs),
(96,545,o),
(184,663,o),
(302,663,cs),
(392,663,o),
(472,600,o),
(503,486,c),
(554,503,l),
(514,633,o),
(423,711,o),
(302,711,cs),
(164,711,o),
(44,582,o),
(44,350,cs),
(44,129,o),
(153,2,o),
(282,-10,c),
(260,-96,l),
(285,-96,ls),
(333,-96,o),
(361,-115,o),
(361,-149,cs),
(361,-183,o),
(335,-204,o),
(292,-204,cs),
(262,-204,o),
(235,-194,o),
(212,-175,c),
(190,-201,l),
(216,-224,o),
(252,-235,o),
(293,-235,cs)
);
}
);
width = 600;
}
);
unicode = 199;
},
{
glyphname = D;
kernLeft = H;
kernRight = O;
lastChange = "2024-10-11 15:27:38 +0000";
layers = (
{
anchors = (
{
name = top;
pos = (300,700);
}
);
layerId = m001;
shapes = (
{
closed = 1;
nodes = (
(164,633,l),
(270,633,ls),
(396,633,o),
(480,520,o),
(480,350,cs),
(480,180,o),
(396,67,o),
(270,67,cs),
(164,67,l)
);
},
{
closed = 1;
nodes = (
(280,0,ls),
(444,0,o),
(558,143,o),
(558,350,cs),
(558,557,o),
(444,700,o),
(280,700,cs),
(87,700,l),
(87,0,l)
);
}
);
width = 600;
},
{
anchors = (
{
name = top;
pos = (313,700);
}
);
layerId = "8560E1E4-71CD-42DE-875E-B4A7223FD06A";
shapes = (
{
closed = 1;
nodes = (
(224,556,l),
(261,556,ls),
(340,556,o),
(403,488,o),
(403,350,cs),
(403,212,o),
(340,144,o),
(261,144,cs),
(224,144,l)
);
},
{
closed = 1;
nodes = (
(274,0,ls),
(443,0,o),
(576,130,o),
(576,350,cs),
(576,570,o),
(443,700,o),
(274,700,cs),
(52,700,l),
(52,0,l)
);
}
);
width = 600;
},
{
anchors = (
{
name = top;
pos = (297,700);
}
);
guides = (
{
pos = (196,700);
userData = {
UFO.identifier = wmVgIwSYWN;
};
}
);
layerId = "2B01EBD5-E910-4BCA-BDA7-5B8A0D7F375D";
shapes = (
{
closed = 1;
nodes = (
(148,653,l),
(272,653,ls),
(409,653,o),
(501,532,o),
(501,350,cs),
(501,168,o),
(409,47,o),
(272,47,cs),
(148,47,l)
);
},
{
closed = 1;
nodes = (
(282,0,ls),
(442,0,o),
(553,143,o),
(553,350,cs),
(553,557,o),
(442,700,o),
(282,700,cs),
(96,700,l),
(96,0,l)
);
}
);
width = 600;
}
);
unicode = 68;
},
{
glyphname = Dcroat;
kernRight = O;
lastChange = "2024-10-11 15:27:38 +0000";
layers = (
{
layerId = m001;
shapes = (
{
closed = 1;
nodes = (
(278,0,ls),
(428,0,o),
(556,125,o),
(556,350,cs),
(556,575,o),
(428,700,o),
(278,700,cs),
(94,700,l),
(94,383,l),
(15,383,l),
(15,322,l),
(94,322,l),
(94,0,l)
);
},
{
closed = 1;
nodes = (
(171,322,l),
(289,322,l),
(289,383,l),
(171,383,l),
(171,633,l),
(268,633,ls),
(388,633,o),
(478,529,o),
(478,350,cs),
(478,171,o),
(388,67,o),
(268,67,cs),
(171,67,l)
);
}
);
width = 600;
},
{
layerId = "8560E1E4-71CD-42DE-875E-B4A7223FD06A";
shapes = (
{
closed = 1;
nodes = (
(277,0,ls),
(446,0,o),
(579,130,o),
(579,350,cs),
(579,570,o),
(446,700,o),
(277,700,cs),
(60,700,l),
(60,413,l),
(6,413,l),
(6,293,l),
(60,293,l),
(60,0,l)
);
},
{
closed = 1;
nodes = (
(232,293,l),
(300,293,l),
(300,413,l),
(232,413,l),
(232,556,l),
(264,556,ls),
(343,556,o),
(406,488,o),
(406,350,cs),
(406,212,o),
(343,144,o),
(264,144,cs),
(232,144,l)
);
}
);
width = 600;
},
{
layerId = "2B01EBD5-E910-4BCA-BDA7-5B8A0D7F375D";
shapes = (
{
closed = 1;
nodes = (
(281,0,ls),
(426,0,o),
(553,124,o),
(553,350,cs),
(553,576,o),
(426,700,o),
(281,700,cs),
(103,700,l),
(103,373,l),
(17,373,l),
(17,329,l),
(103,329,l),
(103,0,l)
);
},
{
closed = 1;
nodes = (
(155,329,l),
(286,329,l),
(286,373,l),
(155,373,l),
(155,653,l),
(272,653,ls),
(404,653,o),
(501,540,o),
(501,350,cs),
(501,160,o),
(404,46,o),
(272,46,cs),
(155,46,l)
);
}
);
width = 600;
}
);
unicode = 272;
},
{
glyphname = E;
kernLeft = H;
kernRight = E;
lastChange = "2024-10-11 15:27:38 +0000";
layers = (
{
anchors = (
{
name = bottom;
pos = (539,0);
},
{
name = top;
pos = (319,700);
}
);
layerId = m001;
shapes = (
{
closed = 1;
nodes = (
(539,0,l),
(539,67,l),
(174,67,l),
(174,320,l),
(412,320,l),
(412,387,l),
(174,387,l),
(174,633,l),
(535,633,l),
(535,700,l),
(97,700,l),
(97,0,l)
);
}
);
width = 600;
},
{
anchors = (
{
name = bottom;
pos = (562,0);
},
{
name = top;
pos = (330,700);
}
);
layerId = "8560E1E4-71CD-42DE-875E-B4A7223FD06A";
shapes = (
{
closed = 1;
nodes = (
(562,0,l),
(562,144,l),
(246,144,l),
(246,283,l),
(443,283,l),
(443,423,l),
(246,423,l),
(246,556,l),
(558,556,l),
(558,700,l),
(74,700,l),
(74,0,l)
);
}
);
width = 600;
},
{
anchors = (
{
name = bottom;
pos = (533,0);
},
{
name = top;
pos = (316,700);
}
);
layerId = "2B01EBD5-E910-4BCA-BDA7-5B8A0D7F375D";
shapes = (
{
closed = 1;
nodes = (
(533,0,l),
(533,47,l),
(155,47,l),
(155,330,l),
(404,330,l),
(404,377,l),
(155,377,l),
(155,653,l),
(529,653,l),
(529,700,l),
(103,700,l),
(103,0,l)
);
}
);
width = 600;
}
);
unicode = 69;
},
{
color = 0;
glyphname = Eogonek;
kernLeft = H;
kernRight = E;
lastChange = "2024-11-06 19:51:56 +0000";
layers = (
{
layerId = m001;
shapes = (
{
closed = 1;
nodes = (
(484,0,l),
(414,-50,o),
(385,-91,o),
(385,-140,cs),
(385,-195,o),
(427,-231,o),
(491,-231,cs),
(518,-231,o),
(545,-224,o),
(564,-212,c),
(550,-173,l),
(538,-181,o),
(519,-185,o),
(502,-185,cs),
(460,-185,o),
(435,-164,o),
(435,-128,cs),
(435,-87,o),
(467,-47,o),
(539,0,c),
(539,67,l),
(174,67,l),
(174,320,l),
(412,320,l),
(412,387,l),
(174,387,l),
(174,633,l),
(535,633,l),
(535,700,l),
(97,700,l),
(97,0,l)
);
}
);
width = 600;
},
{
layerId = "8560E1E4-71CD-42DE-875E-B4A7223FD06A";
shapes = (
{
closed = 1;
nodes = (
(478,0,l),
(417,-41,o),
(390,-82,o),
(390,-132,cs),
(390,-191,o),
(433,-231,o),
(498,-231,cs),
(534,-231,o),
(569,-222,o),
(591,-208,c),
(571,-138,l),
(561,-145,o),
(544,-149,o),
(526,-149,cs),
(496,-149,o),
(477,-132,o),
(477,-103,cs),
(477,-67,o),
(504,-35,o),
(562,0,c),
(562,144,l),
(246,144,l),
(246,283,l),
(443,283,l),
(443,423,l),
(246,423,l),
(246,556,l),
(558,556,l),
(558,700,l),
(74,700,l),
(74,0,l)
);
}
);
width = 600;
},
{
layerId = "2B01EBD5-E910-4BCA-BDA7-5B8A0D7F375D";
shapes = (
{
closed = 1;
nodes = (
(484,0,l),
(409,-55,o),
(383,-96,o),
(383,-142,cs),
(383,-193,o),
(421,-231,o),
(489,-231,cs),
(515,-231,o),
(539,-224,o),
(556,-213,c),
(544,-182,l),
(531,-190,o),
(512,-195,o),
(495,-195,cs),
(452,-195,o),
(423,-174,o),
(423,-134,cs),
(423,-97,o),
(449,-56,o),
(533,0,c),
(533,47,l),
(155,47,l),
(155,330,l),
(404,330,l),
(404,377,l),
(155,377,l),
(155,653,l),
(529,653,l),
(529,700,l),
(103,700,l),
(103,0,l)
);
}
);
width = 600;
}
);
unicode = 280;
},
{
glyphname = F;
kernLeft = H;
lastChange = "2024-10-11 15:27:38 +0000";
layers = (
{
layerId = m001;
shapes = (
{
closed = 1;
nodes = (
(179,0,l),
(179,315,l),
(427,315,l),
(427,382,l),
(179,382,l),
(179,633,l),
(545,633,l),
(545,700,l),
(102,700,l),
(102,0,l)
);
}
);
width = 600;
},
{
layerId = "8560E1E4-71CD-42DE-875E-B4A7223FD06A";
shapes = (
{
closed = 1;
nodes = (
(251,0,l),
(251,278,l),
(453,278,l),
(453,418,l),
(251,418,l),
(251,556,l),
(563,556,l),
(563,700,l),
(79,700,l),
(79,0,l)
);
}
);
width = 600;
},
{
layerId = "2B01EBD5-E910-4BCA-BDA7-5B8A0D7F375D";
shapes = (
{
closed = 1;
nodes = (
(160,0,l),
(160,325,l),
(420,325,l),
(420,372,l),
(160,372,l),
(160,653,l),
(540,653,l),
(540,700,l),
(108,700,l),
(108,0,l)
);
}
);
width = 600;
}
);
unicode = 70;
},
{
glyphname = G;
kernLeft = O;
kernRight = G;
lastChange = "2024-10-11 15:27:38 +0000";
layers = (
{
anchors = (
{
name = bottom;
pos = (309,0);
},
{
name = top;
pos = (308,700);
}
);
layerId = m001;
shapes = (
{
closed = 1;
nodes = (
(465,-11,o),
(568,116,o),
(568,335,cs),
(568,366,l),
(330,366,l),
(330,299,l),
(491,299,l),
(484,154,o),
(415,59,o),
(311,59,cs),
(201,59,o),
(119,166,o),
(119,350,cs),
(119,534,o),
(201,641,o),
(306,641,cs),
(388,641,o),
(458,581,o),
(485,473,c),
(558,496,l),
(520,631,o),
(428,711,o),
(306,711,cs),
(165,711,o),
(41,582,o),
(41,350,cs),
(41,118,o),
(165,-11,o),
(311,-11,cs)
);
}
);
width = 600;
},
{
anchors = (
{
name = bottom;
pos = (309,0);
},
{
name = top;
pos = (307,700);
}
);
layerId = "8560E1E4-71CD-42DE-875E-B4A7223FD06A";
shapes = (
{
closed = 1;
nodes = (
(470,-11,o),
(574,122,o),
(574,353,cs),
(574,402,l),
(306,402,l),
(306,258,l),
(417,258,l),
(408,191,o),
(367,142,o),
(316,142,cs),
(248,142,o),
(199,201,o),
(199,350,cs),
(199,499,o),
(248,558,o),
(312,558,cs),
(354,558,o),
(392,530,o),
(411,473,c),
(557,522,l),
(513,643,o),
(418,711,o),
(307,711,cs),
(149,711,o),
(26,582,o),
(26,350,cs),
(26,118,o),
(149,-11,o),
(308,-11,cs)
);
}
);
width = 600;
},
{
anchors = (
{
name = bottom;
pos = (309,0);
},
{
name = top;
pos = (308,700);
}
);
layerId = "2B01EBD5-E910-4BCA-BDA7-5B8A0D7F375D";
shapes = (
{
closed = 1;
nodes = (
(463,-11,o),
(565,114,o),
(565,330,cs),
(565,356,l),
(335,356,l),
(335,309,l),
(509,309,l),
(503,147,o),
(429,37,o),
(309,37,cs),
(187,37,o),
(96,157,o),
(96,350,cs),
(96,543,o),
(187,663,o),
(303,663,cs),
(396,663,o),
(477,595,o),
(506,474,c),
(557,489,l),
(521,628,o),
(430,711,o),
(305,711,cs),
(168,711,o),
(44,582,o),
(44,350,cs),
(44,118,o),
(168,-11,o),
(311,-11,cs)
);
}
);
width = 600;
}
);
unicode = 71;
},
{
glyphname = H;
kernLeft = H;
kernRight = H;
lastChange = "2024-10-11 15:27:38 +0000";
layers = (
{
anchors = (
{
name = top;
pos = (300,700);
}
);
layerId = m001;
shapes = (
{
closed = 1;
nodes = (
(149,0,l),
(149,319,l),
(451,319,l),
(451,0,l),
(528,0,l),
(528,700,l),
(451,700,l),
(451,386,l),
(149,386,l),
(149,700,l),
(72,700,l),
(72,0,l)
);
}
);
width = 600;
},
{
anchors = (
{
name = top;
pos = (300,700);
}
);
layerId = "8560E1E4-71CD-42DE-875E-B4A7223FD06A";
shapes = (
{
closed = 1;
nodes = (
(218,0,l),
(218,277,l),
(382,277,l),
(382,0,l),
(554,0,l),
(554,700,l),
(382,700,l),
(382,428,l),
(218,428,l),
(218,700,l),
(46,700,l),
(46,0,l)
);
}
);
width = 600;
},
{
anchors = (
{
name = top;
pos = (300,700);
}
);
layerId = "2B01EBD5-E910-4BCA-BDA7-5B8A0D7F375D";
shapes = (
{
closed = 1;
nodes = (
(131,0,l),
(131,329,l),
(469,329,l),
(469,0,l),
(521,0,l),
(521,700,l),
(469,700,l),
(469,376,l),
(131,376,l),
(131,700,l),
(79,700,l),
(79,0,l)
);
}
);
width = 600;
}
);
unicode = 72;
},
{
glyphname = Hbar;
kernRight = H;
lastChange = "2024-10-11 15:27:38 +0000";
layers = (
{
layerId = m001;
shapes = (
{
closed = 1;
nodes = (
(149,0,l),
(149,319,l),
(451,319,l),
(451,0,l),
(528,0,l),
(528,521,l),
(595,521,l),
(595,582,l),
(528,582,l),
(528,700,l),
(451,700,l),
(451,582,l),
(149,582,l),
(149,700,l),
(72,700,l),
(72,582,l),
(5,582,l),
(5,521,l),
(72,521,l),
(72,0,l)
);
},
{
closed = 1;
nodes = (
(149,521,l),
(451,521,l),
(451,386,l),
(149,386,l)
);
}
);
width = 600;
},
{
layerId = "8560E1E4-71CD-42DE-875E-B4A7223FD06A";
shapes = (
{
closed = 1;
nodes = (
(218,0,l),
(218,277,l),
(381,277,l),
(381,0,l),
(553,0,l),
(553,493,l),
(600,493,l),
(600,613,l),
(553,613,l),
(553,700,l),
(381,700,l),
(381,613,l),
(218,613,l),
(218,700,l),
(46,700,l),
(46,613,l),
(0,613,l),
(0,493,l),
(46,493,l),
(46,0,l)
);
},
{
closed = 1;
nodes = (
(218,493,l),
(381,493,l),
(381,417,l),
(218,417,l)
);
}
);
width = 600;
},
{
layerId = "2B01EBD5-E910-4BCA-BDA7-5B8A0D7F375D";
shapes = (
{
closed = 1;
nodes = (
(131,0,l),
(131,329,l),
(469,329,l),
(469,0,l),
(521,0,l),
(521,529,l),
(593,529,l),
(593,573,l),
(521,573,l),
(521,700,l),
(469,700,l),
(469,573,l),
(131,573,l),
(131,700,l),
(79,700,l),
(79,573,l),
(7,573,l),
(7,529,l),
(79,529,l),
(79,0,l)
);
},
{
closed = 1;
nodes = (
(131,529,l),
(469,529,l),
(469,376,l),
(131,376,l)
);
}
);
width = 600;
}
);
unicode = 294;
},
{
glyphname = I;
kernLeft = H;
kernRight = H;
lastChange = "2024-10-11 15:27:38 +0000";
layers = (
{
anchors = (
{
name = bottom;
pos = (520,0);
},
{
name = top;
pos = (300,700);
}
);
layerId = m001;
shapes = (
{
closed = 1;
nodes = (
(520,0,l),
(520,67,l),
(339,67,l),
(339,633,l),
(520,633,l),
(520,700,l),
(80,700,l),
(80,633,l),
(262,633,l),
(262,67,l),
(80,67,l),
(80,0,l)
);
}
);
width = 600;
},
{
anchors = (
{
name = bottom;
pos = (556,0);
},
{
name = top;
pos = (300,700);
}
);
layerId = "8560E1E4-71CD-42DE-875E-B4A7223FD06A";
shapes = (
{
closed = 1;
nodes = (
(556,0,l),
(556,144,l),
(386,144,l),
(386,556,l),
(556,556,l),
(556,700,l),
(44,700,l),
(44,556,l),
(214,556,l),
(214,144,l),
(44,144,l),
(44,0,l)
);
}
);
width = 600;
},
{
anchors = (
{
name = bottom;
pos = (510,0);
},
{
name = top;
pos = (300,700);
}
);
layerId = "2B01EBD5-E910-4BCA-BDA7-5B8A0D7F375D";
shapes = (
{
closed = 1;
nodes = (
(510,0,l),
(510,47,l),
(326,47,l),
(326,653,l),
(510,653,l),
(510,700,l),
(90,700,l),
(90,653,l),
(274,653,l),
(274,47,l),
(90,47,l),
(90,0,l)
);
}
);
width = 600;
}
);
unicode = 73;
},
{
glyphname = IJ;
kernLeft = H;
kernRight = U;
lastChange = "2024-10-11 15:27:38 +0000";
layers = (
{
layerId = m001;
shapes = (
{
closed = 1;
nodes = (
(206,32,l),
(240,4,o),
(290,-11,o),
(342,-11,cs),
(464,-11,o),
(541,69,o),
(541,198,cs),
(541,700,l),
(464,700,l),
(464,198,ls),
(464,107,o),
(417,59,o),
(336,59,cs),
(296,59,o),
(265,73,o),
(241,92,c)
);
},
{
closed = 1;
nodes = (
(149,0,l),
(149,700,l),
(72,700,l),
(72,0,l)
);
}
);
width = 600;
},
{
layerId = "8560E1E4-71CD-42DE-875E-B4A7223FD06A";
shapes = (
{
closed = 1;
nodes = (
(268,7,l),
(295,-4,o),
(334,-11,o),
(371,-11,cs),
(483,-11,o),
(553,62,o),
(553,171,cs),
(553,700,l),
(381,700,l),
(381,195,ls),
(381,164,o),
(363,143,o),
(331,143,cs),
(310,143,o),
(294,145,o),
(268,154,c)
);
},
{
closed = 1;
nodes = (
(219,0,l),
(219,700,l),
(47,700,l),
(47,0,l)
);
}
);
width = 600;
},
{
layerId = "2B01EBD5-E910-4BCA-BDA7-5B8A0D7F375D";
shapes = (
{
closed = 1;
nodes = (
(204,29,l),
(239,3,o),
(285,-11,o),
(334,-11,cs),
(458,-11,o),
(538,62,o),
(538,205,cs),
(538,700,l),
(486,700,l),
(486,199,ls),
(486,92,o),
(431,37,o),
(337,37,cs),
(293,37,o),
(258,55,o),
(231,75,c)
);
},
{
closed = 1;
nodes = (
(131,0,l),
(131,700,l),
(79,700,l),
(79,0,l)
);
}
);
width = 600;
}
);
unicode = 306;
},
{
color = 0;
glyphname = Iogonek;
kernLeft = H;
kernRight = H;
lastChange = "2024-11-06 19:51:56 +0000";
layers = (
{
layerId = m001;
shapes = (
{
closed = 1;
nodes = (
(465,0,l),
(395,-50,o),
(366,-91,o),
(366,-140,cs),
(366,-195,o),
(408,-231,o),
(472,-231,cs),
(499,-231,o),
(526,-224,o),
(545,-212,c),
(531,-173,l),
(519,-181,o),
(500,-185,o),
(483,-185,cs),
(441,-185,o),
(416,-164,o),
(416,-128,cs),
(416,-87,o),
(448,-47,o),
(520,0,c),
(520,67,l),
(339,67,l),
(339,633,l),
(520,633,l),
(520,700,l),
(80,700,l),
(80,633,l),
(262,633,l),
(262,67,l),
(80,67,l),
(80,0,l)
);
}
);
width = 600;
},
{
layerId = "8560E1E4-71CD-42DE-875E-B4A7223FD06A";
shapes = (
{
closed = 1;
nodes = (
(472,0,l),
(411,-41,o),
(384,-82,o),
(384,-132,cs),
(384,-191,o),
(427,-231,o),
(492,-231,cs),
(528,-231,o),
(563,-222,o),
(585,-208,c),
(565,-138,l),
(555,-145,o),
(538,-149,o),
(520,-149,cs),
(490,-149,o),
(471,-132,o),
(471,-103,cs),
(471,-67,o),
(498,-35,o),
(556,0,c),
(556,144,l),
(386,144,l),
(386,556,l),
(556,556,l),
(556,700,l),
(44,700,l),
(44,556,l),
(214,556,l),
(214,144,l),
(44,144,l),
(44,0,l)
);
}
);
width = 600;
},
{
layerId = "2B01EBD5-E910-4BCA-BDA7-5B8A0D7F375D";
shapes = (
{
closed = 1;
nodes = (
(461,0,l),
(386,-55,o),
(360,-96,o),
(360,-142,cs),
(360,-193,o),
(398,-231,o),
(466,-231,cs),
(492,-231,o),
(516,-224,o),
(533,-213,c),
(521,-182,l),
(508,-190,o),
(489,-195,o),
(472,-195,cs),
(429,-195,o),
(400,-174,o),
(400,-134,cs),
(400,-97,o),
(426,-56,o),
(510,0,c),
(510,47,l),
(326,47,l),
(326,653,l),
(510,653,l),
(510,700,l),
(90,700,l),
(90,653,l),
(274,653,l),
(274,47,l),
(90,47,l),
(90,0,l)
);
}
);
width = 600;
}
);
unicode = 302;
},
{
glyphname = J;
kernLeft = J;
kernRight = U;
lastChange = "2024-10-11 15:27:38 +0000";
layers = (
{
anchors = (
{
name = top;
pos = (479,700);
}
);
layerId = m001;
shapes = (
{
closed = 1;
nodes = (
(422,-11,o),
(516,95,o),
(516,264,cs),
(516,700,l),
(439,700,l),
(439,265,ls),
(439,139,o),
(374,59,o),
(274,59,cs),
(190,59,o),
(132,106,o),
(99,196,c),
(29,168,l),
(68,55,o),
(157,-11,o),
(273,-11,cs)
);
}
);
width = 600;
},
{
anchors = (
{
name = top;
pos = (473,700);
}
);
layerId = "8560E1E4-71CD-42DE-875E-B4A7223FD06A";
shapes = (
{
closed = 1;
nodes = (
(460,-11,o),
(559,92,o),
(559,247,cs),
(559,700,l),
(387,700,l),
(387,247,ls),
(387,184,o),
(351,143,o),
(297,143,cs),
(238,143,o),
(200,181,o),
(177,260,c),
(19,201,l),
(59,63,o),
(160,-11,o),
(302,-11,cs)
);
}
);
width = 600;
},
{
anchors = (
{
name = top;
pos = (479,700);
}
);
layerId = "2B01EBD5-E910-4BCA-BDA7-5B8A0D7F375D";
shapes = (
{
closed = 1;
nodes = (
(412,-11,o),
(505,96,o),
(505,268,cs),
(505,700,l),
(453,700,l),
(453,269,ls),
(453,127,o),
(380,37,o),
(268,37,cs),
(177,37,o),
(114,86,o),
(78,179,c),
(32,159,l),
(70,53,o),
(156,-11,o),
(265,-11,cs)
);
}
);
width = 600;
}
);
unicode = 74;
},
{
glyphname = K;
kernLeft = H;
kernRight = K;
lastChange = "2024-10-11 15:27:38 +0000";
layers = (
{
anchors = (
{
name = bottom;
pos = (319,0);
}
);
layerId = m001;
shapes = (
{
closed = 1;
nodes = (
(176,0,l),
(176,333,l),
(477,0,l),
(582,0,l),
(253,356,l),
(574,700,l),
(476,700,l),
(176,370,l),
(176,700,l),
(99,700,l),
(99,0,l)
);
}
);
width = 600;
},
{
anchors = (
{
name = bottom;
pos = (298,0);
}
);
layerId = "8560E1E4-71CD-42DE-875E-B4A7223FD06A";
shapes = (
{
closed = 1;
nodes = (
(209,0,l),
(209,305,l),
(398,0,l),
(603,0,l),
(351,368,l),
(585,700,l),
(400,700,l),
(209,407,l),
(209,700,l),
(37,700,l),
(37,0,l)
);
}
);
width = 600;
},
{
anchors = (
{
name = bottom;
pos = (325,0);
}
);
layerId = "2B01EBD5-E910-4BCA-BDA7-5B8A0D7F375D";
shapes = (
{
closed = 1;
nodes = (
(167,0,l),
(167,339,l),
(500,0,l),
(576,0,l),
(224,353,l),
(571,700,l),
(500,700,l),
(167,361,l),
(167,700,l),
(115,700,l),
(115,0,l)
);
}
);
width = 600;
}
);
unicode = 75;
},
{
glyphname = L;
kernLeft = H;
kernRight = L;
lastChange = "2024-11-07 13:16:26 +0000";
layers = (
{
anchors = (
{
name = bottom;
pos = (323,0);
},
{
name = top;
pos = (143,700);
}
);
layerId = m001;
shapes = (
{
closed = 1;
nodes = (
(541,0,l),
(541,67,l),
(181,67,l),
(181,700,l),
(104,700,l),
(104,0,l)
);
}
);
width = 600;
},
{
anchors = (
{
name = bottom;
pos = (338,0);
},
{
name = top;
pos = (154,700);
}
);
layerId = "8560E1E4-71CD-42DE-875E-B4A7223FD06A";
shapes = (
{
closed = 1;
nodes = (
(562,0,l),
(562,144,l),
(246,144,l),
(246,700,l),
(74,700,l),
(74,0,l)
);
}
);
width = 600;
},
{
anchors = (
{
name = bottom;
pos = (319,0);
},
{
name = top;
pos = (140,700);
}
);
guides = (
{
pos = (138,700);
userData = {
UFO.identifier = w1IJXhW3l4;
};
}
);
layerId = "2B01EBD5-E910-4BCA-BDA7-5B8A0D7F375D";
shapes = (
{
closed = 1;
nodes = (
(535,0,l),
(535,47,l),
(164,47,l),
(164,700,l),
(112,700,l),
(112,0,l)
);
}
);
width = 600;
}
);
unicode = 76;
},
{
glyphname = Lslash;
kernRight = L;
lastChange = "2024-10-11 15:27:38 +0000";
layers = (
{
layerId = m001;
shapes = (
{
closed = 1;
nodes = (
(546,0,l),
(546,67,l),
(186,67,l),
(186,298,l),
(404,438,l),
(404,512,l),
(186,372,l),
(186,700,l),
(109,700,l),
(109,325,l),
(8,260,l),
(8,186,l),
(109,251,l),
(109,0,l)
);
}
);
width = 600;
},
{
layerId = "8560E1E4-71CD-42DE-875E-B4A7223FD06A";
shapes = (
{
closed = 1;
nodes = (
(567,0,l),
(567,144,l),
(251,144,l),
(251,297,l),
(423,398,l),
(423,540,l),
(251,439,l),
(251,700,l),
(79,700,l),
(79,342,l),
(1,296,l),
(1,154,l),
(79,200,l),
(79,0,l)
);
}
);
width = 600;
},
{
layerId = "2B01EBD5-E910-4BCA-BDA7-5B8A0D7F375D";
shapes = (
{
closed = 1;
nodes = (
(540,0,l),
(540,47,l),
(169,47,l),
(169,287,l),
(399,438,l),
(399,492,l),
(169,341,l),
(169,700,l),
(117,700,l),
(117,310,l),
(10,239,l),
(10,185,l),
(117,256,l),
(117,0,l)
);
}
);
width = 600;
}
);
unicode = 321;
},
{
glyphname = M;
kernLeft = H;
kernRight = H;
lastChange = "2024-10-11 15:27:38 +0000";
layers = (
{
layerId = m001;
shapes = (
{
closed = 1;
nodes = (
(128,0,l),
(128,605,l),
(299,210,l),
(470,605,l),
(470,0,l),
(541,0,l),
(541,700,l),
(446,700,l),
(300,366,l),
(154,700,l),
(59,700,l),
(59,0,l)
);
}
);
width = 600;
},
{
layerId = "8560E1E4-71CD-42DE-875E-B4A7223FD06A";
shapes = (
{
closed = 1;
nodes = (
(183,0,l),
(184,456,l),
(299,169,l),
(415,456,l),
(415,0,l),
(560,0,l),
(560,700,l),
(379,700,l),
(301,484,l),
(221,700,l),
(40,700,l),
(40,0,l)
);
}
);
width = 600;
},
{
layerId = "2B01EBD5-E910-4BCA-BDA7-5B8A0D7F375D";
shapes = (
{
closed = 1;
nodes = (
(113,0,l),
(113,644,l),
(299,221,l),
(487,645,l),
(487,0,l),
(536,0,l),
(536,700,l),
(464,700,l),
(300,337,l),
(136,700,l),
(64,700,l),
(64,0,l)
);
}
);
width = 600;
}
);
unicode = 77;
},
{
glyphname = N;
kernLeft = H;
kernRight = H;
lastChange = "2024-10-11 15:27:38 +0000";
layers = (
{
anchors = (
{
name = bottom;
pos = (300,0);
},
{
name = top;
pos = (300,700);
}
);
layerId = m001;
shapes = (
{
closed = 1;
nodes = (
(146,0,l),
(144,587,l),
(446,0,l),
(524,0,l),
(524,700,l),
(454,700,l),
(456,130,l),
(164,700,l),
(76,700,l),
(76,0,l)
);
}
);
width = 600;
},
{
anchors = (
{
name = bottom;
pos = (300,0);
},
{
name = top;
pos = (300,700);
}
);
layerId = "8560E1E4-71CD-42DE-875E-B4A7223FD06A";
shapes = (
{
closed = 1;
nodes = (
(189,0,l),
(187,409,l),
(401,0,l),
(553,0,l),
(553,700,l),
(411,700,l),
(413,306,l),
(209,700,l),
(47,700,l),
(47,0,l)
);
}
);
width = 600;
},
{
anchors = (
{
name = bottom;
pos = (300,0);
},
{
name = top;
pos = (300,700);
}
);
layerId = "2B01EBD5-E910-4BCA-BDA7-5B8A0D7F375D";
shapes = (
{
closed = 1;
nodes = (
(133,0,l),
(133,633,l),
(458,0,l),
(516,0,l),
(516,700,l),
(467,700,l),
(467,86,l),
(152,700,l),
(84,700,l),
(84,0,l)
);
}
);
width = 600;
}
);
unicode = 78;
},
{
glyphname = Eng;
kernLeft = H;
kernRight = H;
lastChange = "2024-10-11 15:27:38 +0000";
layers = (
{
layerId = m001;
shapes = (
{
closed = 1;
nodes = (
(476,-219,o),
(524,-168,o),
(524,-73,cs),
(524,700,l),
(454,700,l),
(456,130,l),
(164,700,l),
(76,700,l),
(76,0,l),
(146,0,l),
(144,587,l),
(453,-14,l),
(453,-63,ls),
(453,-128,o),
(431,-154,o),
(389,-154,cs),
(358,-154,o),
(336,-150,o),
(305,-138,c),
(305,-204,l),
(331,-214,o),
(359,-219,o),
(386,-219,cs)
);
}
);
width = 600;
},
{
layerId = "8560E1E4-71CD-42DE-875E-B4A7223FD06A";
shapes = (
{
closed = 1;
nodes = (
(481,-219,o),
(553,-151,o),
(553,-20,cs),
(553,700,l),
(411,700,l),
(413,306,l),
(209,700,l),
(47,700,l),
(47,0,l),
(189,0,l),
(187,409,l),
(400,2,l),
(400,-5,ls),
(400,-64,o),
(383,-85,o),
(333,-85,cs),
(317,-85,o),
(286,-83,o),
(255,-72,c),
(255,-204,l),
(291,-214,o),
(323,-219,o),
(345,-219,cs)
);
}
);
width = 600;
},
{
layerId = "2B01EBD5-E910-4BCA-BDA7-5B8A0D7F375D";
shapes = (
{
closed = 1;
nodes = (
(474,-219,o),
(516,-173,o),
(516,-87,cs),
(516,700,l),
(467,700,l),
(467,86,l),
(152,700,l),
(84,700,l),
(84,0,l),
(133,0,l),
(133,633,l),
(467,-17,l),
(467,-78,ls),
(467,-146,o),
(444,-173,o),
(404,-173,cs),
(370,-173,o),
(348,-169,o),
(318,-157,c),
(318,-204,l),
(345,-214,o),
(370,-219,o),
(397,-219,cs)
);
}
);
width = 600;
}
);
unicode = 330;
},
{
glyphname = O;
kernLeft = O;
kernRight = O;
lastChange = "2024-10-11 15:27:38 +0000";
layers = (
{
anchors = (
{
name = top;
pos = (300,700);
}
);
layerId = m001;
shapes = (
{
closed = 1;
nodes = (
(440,-11,o),
(563,118,o),
(563,350,cs),
(563,582,o),
(440,711,o),
(300,711,cs),
(160,711,o),
(37,582,o),
(37,350,cs),
(37,118,o),
(160,-11,o),
(300,-11,cs)
);
},
{
closed = 1;
nodes = (
(196,59,o),
(115,166,o),
(115,350,cs),
(115,534,o),
(196,641,o),
(300,641,cs),
(404,641,o),
(485,534,o),
(485,350,cs),
(485,166,o),
(404,59,o),
(300,59,cs)
);
}
);
width = 600;
},
{
anchors = (
{
name = top;
pos = (300,700);
}
);
layerId = "8560E1E4-71CD-42DE-875E-B4A7223FD06A";
shapes = (
{
closed = 1;
nodes = (
(458,-11,o),
(582,118,o),
(582,350,cs),
(582,582,o),
(458,711,o),
(300,711,cs),
(142,711,o),
(18,582,o),
(18,350,cs),
(18,118,o),
(142,-11,o),
(300,-11,cs)
);
},
{
closed = 1;
nodes = (
(238,142,o),
(191,206,o),
(191,350,cs),
(191,494,o),
(238,558,o),
(300,558,cs),
(362,558,o),
(409,494,o),
(409,350,cs),
(409,206,o),
(362,142,o),
(300,142,cs)
);
}
);
width = 600;
},
{
anchors = (
{
name = top;
pos = (300,700);
}
);
layerId = "2B01EBD5-E910-4BCA-BDA7-5B8A0D7F375D";
shapes = (
{
closed = 1;
nodes = (
(438,-11,o),
(558,118,o),
(558,350,cs),
(558,582,o),
(438,711,o),
(300,711,cs),
(162,711,o),
(42,582,o),
(42,350,cs),
(42,118,o),
(162,-11,o),
(300,-11,cs)
);
},
{
closed = 1;
nodes = (
(182,37,o),
(94,155,o),
(94,350,cs),
(94,545,o),
(182,663,o),
(300,663,cs),
(418,663,o),
(506,545,o),
(506,350,cs),
(506,155,o),
(418,37,o),
(300,37,cs)
);
}
);
width = 600;
}
);
unicode = 79;
},
{
glyphname = Oslash;
kernLeft = O;
kernRight = O;
lastChange = "2024-10-11 15:27:38 +0000";
layers = (
{
layerId = m001;
shapes = (
{
closed = 1;
nodes = (
(440,-11,o),
(563,118,o),
(563,350,cs),
(563,450,o),
(540,532,o),
(502,591,c),
(577,700,l),
(503,700,l),
(463,641,l),
(417,687,o),
(360,711,o),
(300,711,cs),
(160,711,o),
(37,582,o),
(37,350,cs),
(37,250,o),
(60,168,o),
(98,109,c),
(23,0,l),
(97,0,l),
(137,59,l),
(183,13,o),
(240,-11,o),
(300,-11,cs)
);
},
{
closed = 1;
nodes = (
(126,224,o),
(115,282,o),
(115,350,cs),
(115,534,o),
(196,641,o),
(300,641,cs),
(346,641,o),
(388,620,o),
(420,580,c),
(145,179,l)
);
},
{
closed = 1;
nodes = (
(254,59,o),
(212,80,o),
(180,120,c),
(455,521,l),
(474,476,o),
(485,418,o),
(485,350,cs),
(485,166,o),
(404,59,o),
(300,59,cs)
);
}
);
width = 600;
},
{
layerId = "8560E1E4-71CD-42DE-875E-B4A7223FD06A";
shapes = (
{
closed = 1;
nodes = (
(458,-11,o),
(582,118,o),
(582,350,cs),
(582,451,o),
(559,532,o),
(520,591,c),
(589,700,l),
(459,700,l),
(440,671,l),
(399,697,o),
(351,711,o),
(300,711,cs),
(142,711,o),
(18,582,o),
(18,350,cs),
(18,249,o),
(41,168,o),
(80,109,c),
(11,0,l),
(141,0,l),
(160,29,l),
(201,3,o),
(249,-11,o),
(300,-11,cs)
);
},
{
closed = 1;
nodes = (
(192,306,o),
(191,327,o),
(191,350,cs),
(191,494,o),
(238,558,o),
(300,558,cs),
(320,558,o),
(339,551,o),
(355,537,c),
(195,287,l)
);
},
{
closed = 1;
nodes = (
(280,142,o),
(261,149,o),
(245,163,c),
(405,413,l),
(408,394,o),
(409,373,o),
(409,350,cs),
(409,206,o),
(362,142,o),
(300,142,cs)
);
}
);
width = 600;
},
{
layerId = "2B01EBD5-E910-4BCA-BDA7-5B8A0D7F375D";
shapes = (
{
closed = 1;
nodes = (
(438,-11,o),
(558,118,o),
(558,350,cs),
(558,451,o),
(535,532,o),
(499,592,c),
(576,701,l),
(520,701,l),
(470,630,l),
(424,683,o),
(364,711,o),
(300,711,cs),
(162,711,o),
(42,582,o),
(42,350,cs),
(42,250,o),
(64,169,o),
(101,109,c),
(24,0,l),
(80,0,l),
(130,70,l),
(176,17,o),
(236,-11,o),
(300,-11,cs)
);
},
{
closed = 1;
nodes = (
(108,205,o),
(94,271,o),
(94,350,cs),
(94,545,o),
(182,663,o),
(300,663,cs),
(356,663,o),
(404,637,o),
(441,589,c),
(133,154,l)
);
},
{
closed = 1;
nodes = (
(244,37,o),
(195,63,o),
(159,112,c),
(467,546,l),
(492,495,o),
(506,429,o),
(506,350,cs),
(506,155,o),
(418,37,o),
(300,37,cs)
);
}
);
width = 600;
}
);
unicode = 216;
},
{
glyphname = OE;
kernLeft = O;
kernRight = E;
lastChange = "2024-10-11 15:27:38 +0000";
layers = (
{
layerId = m001;
shapes = (
{
closed = 1;
nodes = (
(22,136,o),
(130,0,o),
(300,0,cs),
(580,0,l),
(580,67,l),
(363,67,l),
(363,320,l),
(503,320,l),
(503,387,l),
(363,387,l),
(363,633,l),
(576,633,l),
(576,700,l),
(300,700,ls),
(130,700,o),
(22,564,o),
(22,350,cs)
);
},
{
closed = 1;
nodes = (
(98,516,o),
(169,621,o),
(288,632,c),
(288,68,l),
(169,79,o),
(98,184,o),
(98,350,cs)
);
}
);
width = 600;
},
{
layerId = "8560E1E4-71CD-42DE-875E-B4A7223FD06A";
shapes = (
{
closed = 1;
nodes = (
(12,140,o),
(121,0,o),
(284,0,cs),
(592,0,l),
(592,144,l),
(423,144,l),
(423,283,l),
(523,283,l),
(523,423,l),
(423,423,l),
(423,556,l),
(588,556,l),
(588,700,l),
(284,700,ls),
(121,700,o),
(12,560,o),
(12,350,cs)
);
},
{
closed = 1;
nodes = (
(174,467,o),
(211,545,o),
(269,555,c),
(269,145,l),
(211,155,o),
(174,233,o),
(174,350,cs)
);
}
);
width = 600;
},
{
layerId = "2B01EBD5-E910-4BCA-BDA7-5B8A0D7F375D";
shapes = (
{
closed = 1;
nodes = (
(25,135,o),
(132,0,o),
(304,0,cs),
(577,0,l),
(577,47,l),
(345,47,l),
(345,330,l),
(498,330,l),
(498,377,l),
(345,377,l),
(345,653,l),
(573,653,l),
(573,700,l),
(304,700,ls),
(132,700,o),
(25,565,o),
(25,350,cs)
);
},
{
closed = 1;
nodes = (
(77,529,o),
(157,640,o),
(293,652,c),
(293,48,l),
(157,60,o),
(77,171,o),
(77,350,cs)
);
}
);
width = 600;
}
);
unicode = 338;
},
{
glyphname = P;
kernLeft = H;
lastChange = "2024-10-11 15:27:38 +0000";
layers = (
{
layerId = m001;
shapes = (
{
closed = 1;
nodes = (
(172,0,l),
(172,286,l),
(324,286,ls),
(460,286,o),
(547,368,o),
(547,493,cs),
(547,618,o),
(460,700,o),
(324,700,cs),
(95,700,l),
(95,0,l)
);
},
{
closed = 1;
nodes = (
(172,633,l),
(315,633,ls),
(412,633,o),
(470,580,o),
(470,493,cs),
(470,406,o),
(412,353,o),
(315,353,cs),
(172,353,l)
);
}
);
width = 600;
},
{
layerId = "8560E1E4-71CD-42DE-875E-B4A7223FD06A";
shapes = (
{
closed = 1;
nodes = (
(229,0,l),
(229,244,l),
(324,244,ls),
(473,244,o),
(571,342,o),
(571,469,cs),
(571,603,o),
(473,700,o),
(324,700,cs),
(57,700,l),
(57,0,l)
);
},
{
closed = 1;
nodes = (
(229,558,l),
(294,558,ls),
(363,558,o),
(397,520,o),
(397,470,cs),
(397,420,o),
(363,382,o),
(294,382,cs),
(229,382,l)
);
}
);
width = 600;
},
{
layerId = "2B01EBD5-E910-4BCA-BDA7-5B8A0D7F375D";
shapes = (
{
closed = 1;
nodes = (
(157,0,l),
(157,298,l),
(324,298,ls),
(457,298,o),
(541,376,o),
(541,499,cs),
(541,622,o),
(457,700,o),
(324,700,cs),
(105,700,l),
(105,0,l)
);
},
{
closed = 1;
nodes = (
(157,653,l),
(321,653,ls),
(426,653,o),
(489,596,o),
(489,499,cs),
(489,402,o),
(426,345,o),
(321,345,cs),
(157,345,l)
);
}
);
width = 600;
}
);
unicode = 80;
},
{
glyphname = Thorn;
kernLeft = H;
lastChange = "2024-10-11 15:27:38 +0000";
layers = (
{
layerId = m001;
shapes = (
{
closed = 1;
nodes = (
(172,0,l),
(172,143,l),
(324,143,ls),
(460,143,o),
(547,225,o),
(547,350,cs),
(547,475,o),
(460,557,o),
(324,557,cs),
(172,557,l),
(172,700,l),
(95,700,l),
(95,0,l)
);
},
{
closed = 1;
nodes = (
(172,490,l),
(315,490,ls),
(412,490,o),
(470,437,o),
(470,350,cs),
(470,263,o),
(412,210,o),
(315,210,cs),
(172,210,l)
);
}
);
width = 600;
},
{
layerId = "8560E1E4-71CD-42DE-875E-B4A7223FD06A";
shapes = (
{
closed = 1;
nodes = (
(229,0,l),
(229,123,l),
(324,123,ls),
(473,123,o),
(571,221,o),
(571,348,cs),
(571,482,o),
(473,579,o),
(324,579,cs),
(229,579,l),
(229,700,l),
(57,700,l),
(57,0,l)
);
},
{
closed = 1;
nodes = (
(229,437,l),
(294,437,ls),
(363,437,o),
(397,399,o),
(397,349,cs),
(397,299,o),
(363,261,o),
(294,261,cs),
(229,261,l)
);
}
);
width = 600;
},
{
layerId = "2B01EBD5-E910-4BCA-BDA7-5B8A0D7F375D";
shapes = (
{
closed = 1;
nodes = (
(157,0,l),
(157,149,l),
(324,149,ls),
(457,149,o),
(541,227,o),
(541,350,cs),
(541,473,o),
(457,551,o),
(324,551,cs),
(157,551,l),
(157,700,l),
(105,700,l),
(105,0,l)
);
},
{
closed = 1;
nodes = (
(157,504,l),
(321,504,ls),
(426,504,o),
(489,447,o),
(489,350,cs),
(489,253,o),
(426,196,o),
(321,196,cs),
(157,196,l)
);
}
);
width = 600;
}
);
unicode = 222;
},
{
glyphname = Q;
kernLeft = O;
kernRight = O;
lastChange = "2024-10-11 15:27:38 +0000";
layers = (
{
layerId = m001;
shapes = (
{
closed = 1;
nodes = (
(548,-5,l),
(479,77,l),
(530,138,o),
(563,230,o),
(563,350,cs),
(563,582,o),
(440,711,o),
(300,711,cs),
(160,711,o),
(37,582,o),
(37,350,cs),
(37,118,o),
(160,-11,o),
(300,-11,cs),
(346,-11,o),
(391,3,o),
(430,31,c),
(469,-16,l)
);
},
{
closed = 1;
nodes = (
(196,59,o),
(115,166,o),
(115,350,cs),
(115,534,o),
(196,641,o),
(300,641,cs),
(404,641,o),
(485,534,o),
(485,350,cs),
(485,257,o),
(465,184,o),
(431,135,c),
(351,230,l),
(272,218,l),
(384,85,l),
(359,68,o),
(330,59,o),
(300,59,cs)
);
}
);
width = 600;
},
{
layerId = "8560E1E4-71CD-42DE-875E-B4A7223FD06A";
shapes = (
{
closed = 1;
nodes = (
(581,13,l),
(513,99,l),
(556,160,o),
(582,244,o),
(582,350,cs),
(582,582,o),
(458,711,o),
(300,711,cs),
(142,711,o),
(18,582,o),
(18,350,cs),
(18,118,o),
(142,-11,o),
(300,-11,cs),
(340,-11,o),
(378,-3,o),
(412,13,c),
(455,-41,l)
);
},
{
closed = 1;
nodes = (
(238,142,o),
(191,206,o),
(191,350,cs),
(191,494,o),
(238,558,o),
(300,558,cs),
(362,558,o),
(409,494,o),
(409,350,cs),
(409,309,o),
(405,274,o),
(398,246,c),
(364,289,l),
(238,235,l),
(311,143,l),
(307,142,o),
(304,142,o),
(300,142,cs)
);
}
);
width = 600;
},
{
layerId = "2B01EBD5-E910-4BCA-BDA7-5B8A0D7F375D";
shapes = (
{
closed = 1;
nodes = (
(538,0,l),
(474,74,l),
(525,135,o),
(558,229,o),
(558,350,cs),
(558,582,o),
(438,711,o),
(300,711,cs),
(162,711,o),
(42,582,o),
(42,350,cs),
(42,118,o),
(162,-11,o),
(300,-11,cs),
(351,-11,o),
(399,6,o),
(440,40,c),
(481,-8,l)
);
},
{
closed = 1;
nodes = (
(182,37,o),
(94,155,o),
(94,350,cs),
(94,545,o),
(182,663,o),
(300,663,cs),
(418,663,o),
(506,545,o),
(506,350,cs),
(506,247,o),
(482,166,o),
(441,112,c),
(347,221,l),
(290,213,l),
(408,77,l),
(377,51,o),
(340,37,o),
(300,37,cs)
);
}
);
width = 600;
}
);
unicode = 81;
},
{
glyphname = R;
kernLeft = H;
kernRight = R;
lastChange = "2024-10-11 15:27:38 +0000";
layers = (
{
anchors = (
{
name = bottom;
pos = (309,0);
},
{
name = top;
pos = (300,700);
}
);
layerId = m001;
shapes = (
{
closed = 1;
nodes = (
(179,0,l),
(179,299,l),
(319,299,l),
(469,0,l),
(554,0,l),
(397,309,l),
(486,335,o),
(542,405,o),
(542,498,cs),
(542,619,o),
(453,700,o),
(319,700,cs),
(102,700,l),
(102,0,l)
);
},
{
closed = 1;
nodes = (
(179,633,l),
(313,633,ls),
(405,633,o),
(465,580,o),
(465,497,cs),
(465,416,o),
(405,363,o),
(313,363,cs),
(179,363,l)
);
}
);
width = 600;
},
{
anchors = (
{
name = bottom;
pos = (308,0);
},
{
name = top;
pos = (300,700);
}
);
layerId = "8560E1E4-71CD-42DE-875E-B4A7223FD06A";
shapes = (
{
closed = 1;
nodes = (
(229,0,l),
(229,256,l),
(288,256,l),
(414,0,l),
(595,0,l),
(447,283,l),
(522,319,o),
(569,389,o),
(569,478,cs),
(569,609,o),
(466,700,o),
(322,700,cs),
(57,700,l),
(57,0,l)
);
},
{
closed = 1;
nodes = (
(229,558,l),
(306,558,ls),
(359,558,o),
(395,525,o),
(395,475,cs),
(395,425,o),
(359,392,o),
(306,392,cs),
(229,392,l)
);
}
);
width = 600;
},
{
anchors = (
{
name = bottom;
pos = (309,0);
},
{
name = top;
pos = (300,700);
}
);
layerId = "2B01EBD5-E910-4BCA-BDA7-5B8A0D7F375D";
shapes = (
{
closed = 1;
nodes = (
(166,0,l),
(166,308,l),
(330,308,l),
(485,0,l),
(543,0,l),
(384,315,l),
(477,338,o),
(535,408,o),
(535,504,cs),
(535,621,o),
(449,700,o),
(318,700,cs),
(114,700,l),
(114,0,l)
);
},
{
closed = 1;
nodes = (
(166,653,l),
(315,653,ls),
(417,653,o),
(483,593,o),
(483,504,cs),
(483,415,o),
(417,355,o),
(315,355,cs),
(166,355,l)
);
}
);
width = 600;
}
);
unicode = 82;
},
{
glyphname = S;
kernLeft = S;
kernRight = S;
lastChange = "2024-10-11 15:27:38 +0000";
layers = (
{
anchors = (
{
name = bottom;
pos = (304,0);
},
{
name = top;
pos = (292,700);
}
);
layerId = m001;
shapes = (
{
closed = 1;
nodes = (
(447,-11,o),
(547,76,o),
(547,193,cs),
(547,458,o),
(149,327,o),
(149,532,cs),
(149,597,o),
(209,646,o),
(294,646,cs),
(359,646,o),
(427,619,o),
(500,563,c),
(540,623,l),
(452,685,o),
(378,711,o),
(293,711,cs),
(164,711,o),
(75,634,o),
(75,524,cs),
(75,262,o),
(470,389,o),
(470,189,cs),
(470,112,o),
(403,55,o),
(312,55,cs),
(238,55,o),
(181,82,o),
(99,157,c),
(53,99,l),
(137,23,o),
(217,-11,o),
(310,-11,cs)
);
}
);
width = 600;
},
{
anchors = (
{
name = bottom;
pos = (302,0);
},
{
name = top;
pos = (287,700);
}
);
layerId = "8560E1E4-71CD-42DE-875E-B4A7223FD06A";
shapes = (
{
closed = 1;
nodes = (
(470,-11,o),
(578,81,o),
(578,216,cs),
(578,484,o),
(188,379,o),
(188,504,cs),
(188,543,o),
(224,571,o),
(287,571,cs),
(355,571,o),
(417,547,o),
(480,499,c),
(567,624,l),
(499,678,o),
(398,711,o),
(296,711,cs),
(126,711,o),
(26,626,o),
(26,489,cs),
(26,224,o),
(410,338,o),
(410,200,cs),
(410,158,o),
(370,129,o),
(304,129,cs),
(242,129,o),
(184,153,o),
(95,212,c),
(11,83,l),
(101,21,o),
(193,-11,o),
(300,-11,cs)
);
}
);
width = 600;
},
{
anchors = (
{
name = bottom;
pos = (305,0);
},
{
name = top;
pos = (293,700);
}
);
layerId = "2B01EBD5-E910-4BCA-BDA7-5B8A0D7F375D";
shapes = (
{
closed = 1;
nodes = (
(440,-11,o),
(538,71,o),
(538,184,cs),
(538,456,o),
(140,316,o),
(140,535,cs),
(140,613,o),
(205,663,o),
(296,663,cs),
(368,663,o),
(440,636,o),
(504,588,c),
(533,630,l),
(450,686,o),
(382,711,o),
(292,711,cs),
(174,711,o),
(88,642,o),
(88,533,cs),
(88,270,o),
(486,401,o),
(486,186,cs),
(486,100,o),
(410,37,o),
(314,37,cs),
(231,37,o),
(166,66,o),
(97,134,c),
(64,96,l),
(139,24,o),
(217,-11,o),
(313,-11,cs)
);
}
);
width = 600;
}
);
unicode = 83;
},
{
glyphname = Scedilla;
kernLeft = S;
kernRight = S;
lastChange = "2024-10-11 15:27:38 +0000";
layers = (
{
layerId = m001;
shapes = (
{
closed = 1;
nodes = (
(361,-239,o),
(407,-200,o),
(407,-146,cs),
(407,-99,o),
(369,-69,o),
(310,-66,c),
(323,-11,l),
(453,-6,o),
(547,80,o),
(547,193,cs),
(547,458,o),
(149,327,o),
(149,532,cs),
(149,597,o),
(209,646,o),
(294,646,cs),
(359,646,o),
(427,619,o),
(500,563,c),
(540,623,l),
(452,685,o),
(378,711,o),
(293,711,cs),
(164,711,o),
(75,634,o),
(75,524,cs),
(75,262,o),
(470,389,o),
(470,189,cs),
(470,112,o),
(403,55,o),
(312,55,cs),
(238,55,o),
(181,82,o),
(99,157,c),
(53,99,l),
(128,31,o),
(200,-3,o),
(281,-10,c),
(258,-99,l),
(287,-99,ls),
(332,-99,o),
(358,-117,o),
(358,-148,cs),
(358,-180,o),
(334,-200,o),
(293,-200,cs),
(264,-200,o),
(237,-190,o),
(214,-171,c),
(186,-203,l),
(213,-227,o),
(251,-239,o),
(296,-239,cs)
);
}
);
width = 600;
},
{
layerId = "8560E1E4-71CD-42DE-875E-B4A7223FD06A";
shapes = (
{
closed = 1;
nodes = (
(377,-254,o),
(434,-206,o),
(434,-144,cs),
(434,-95,o),
(395,-63,o),
(332,-58,c),
(344,-9,l),
(488,6,o),
(578,93,o),
(578,216,cs),
(578,484,o),
(188,379,o),
(188,504,cs),
(188,543,o),
(224,571,o),
(287,571,cs),
(355,571,o),
(417,547,o),
(480,499,c),
(567,624,l),
(499,678,o),
(398,711,o),
(296,711,cs),
(126,711,o),
(26,626,o),
(26,489,cs),
(26,224,o),
(410,338,o),
(410,200,cs),
(410,158,o),
(370,129,o),
(304,129,cs),
(242,129,o),
(184,153,o),
(95,212,c),
(11,83,l),
(93,27,o),
(176,-5,o),
(271,-10,c),
(246,-111,l),
(291,-111,ls),
(326,-111,o),
(347,-124,o),
(347,-146,cs),
(347,-170,o),
(328,-183,o),
(293,-183,cs),
(267,-183,o),
(239,-173,o),
(216,-155,c),
(167,-212,l),
(199,-240,o),
(243,-254,o),
(302,-254,cs)
);
}
);
width = 600;
},
{
layerId = "2B01EBD5-E910-4BCA-BDA7-5B8A0D7F375D";
shapes = (
{
closed = 1;
nodes = (
(360,-235,o),
(403,-198,o),
(403,-147,cs),
(403,-100,o),
(365,-70,o),
(307,-68,c),
(320,-11,l),
(443,-8,o),
(538,73,o),
(538,184,cs),
(538,456,o),
(140,316,o),
(140,535,cs),
(140,613,o),
(205,663,o),
(296,663,cs),
(368,663,o),
(440,636,o),
(504,588,c),
(533,630,l),
(450,686,o),
(382,711,o),
(292,711,cs),
(174,711,o),
(88,642,o),
(88,533,cs),
(88,270,o),
(486,401,o),
(486,186,cs),
(486,100,o),
(410,37,o),
(314,37,cs),
(231,37,o),
(166,66,o),
(97,134,c),
(64,96,l),
(132,31,o),
(202,-4,o),
(286,-10,c),
(264,-96,l),
(289,-96,ls),
(337,-96,o),
(365,-115,o),
(365,-149,cs),
(365,-183,o),
(339,-204,o),
(296,-204,cs),
(266,-204,o),
(239,-194,o),
(216,-175,c),
(194,-201,l),
(220,-224,o),
(256,-235,o),
(297,-235,cs)
);
}
);
width = 600;
}
);
unicode = 350;
},
{
color = 3;
glyphname = Germandbls;
lastChange = "2024-11-06 19:50:16 +0000";
layers = (
{
anchors = (
{
name = bottom;
pos = (300,0);
},
{
name = top;
pos = (300,700);
}
);
layerId = "2B01EBD5-E910-4BCA-BDA7-5B8A0D7F375D";
shapes = (
{
closed = 1;
nodes = (
(486,-11,o),
(568,63,o),
(568,154,cs),
(568,230,o),
(527,287,o),
(444,327,cs),
(372,362,o),
(352,379,o),
(352,403,cs),
(352,416,o),
(363,433,o),
(399,478,cs),
(530,641,l),
(530,700,l),
(79,700,l),
(79,0,l),
(131,0,l),
(131,653,l),
(476,653,l),
(347,485,ls),
(310,436,o),
(301,420,o),
(301,400,cs),
(301,359,o),
(327,333,o),
(415,287,cs),
(490,247,o),
(517,212,o),
(517,154,cs),
(517,87,o),
(459,33,o),
(386,33,cs),
(333,33,o),
(277,57,o),
(241,96,c),
(212,53,l),
(259,7,o),
(309,-11,o),
(387,-11,cs)
);
}
);
width = 600;
},
{
anchors = (
{
name = bottom;
pos = (300,0);
},
{
name = top;
pos = (300,700);
}
);
layerId = m001;
shapes = (
{
closed = 1;
nodes = (
(495,-11,o),
(581,64,o),
(581,154,cs),
(581,229,o),
(542,286,o),
(463,324,cs),
(392,359,o),
(375,372,o),
(375,393,cs),
(375,408,o),
(385,427,o),
(410,458,cs),
(533,611,l),
(533,700,l),
(72,700,l),
(72,0,l),
(149,0,l),
(149,636,l),
(462,636,l),
(346,485,ls),
(309,437,o),
(300,419,o),
(300,390,cs),
(300,348,o),
(325,323,o),
(410,278,cs),
(484,239,o),
(503,214,o),
(503,154,cs),
(503,100,o),
(452,55,o),
(389,55,cs),
(342,55,o),
(293,75,o),
(253,110,c),
(213,51,l),
(261,12,o),
(327,-11,o),
(390,-11,cs)
);
}
);
width = 600;
},
{
anchors = (
{
name = bottom;
pos = (300,0);
},
{
name = top;
pos = (300,700);
}
);
layerId = "8560E1E4-71CD-42DE-875E-B4A7223FD06A";
shapes = (
{
closed = 1;
nodes = (
(519,-11,o),
(598,61,o),
(598,178,cs),
(598,255,o),
(564,310,o),
(502,337,cs),
(456,357,o),
(434,373,o),
(434,393,cs),
(434,413,o),
(443,430,o),
(456,448,cs),
(569,602,l),
(569,700,l),
(46,700,l),
(46,0,l),
(214,0,l),
(214,566,l),
(364,566,l),
(302,475,ls),
(278,440,o),
(262,400,o),
(262,365,cs),
(262,314,o),
(295,272,o),
(346,249,cs),
(415,218,o),
(431,204,o),
(431,175,cs),
(431,146,o),
(415,132,o),
(380,132,cs),
(353,132,o),
(334,140,o),
(294,171,c),
(226,42,l),
(275,7,o),
(331,-11,o),
(394,-11,cs)
);
}
);
width = 600;
}
);
unicode = 7838;
},
{
glyphname = T;
kernLeft = T;
kernRight = T;
lastChange = "2024-10-11 15:27:38 +0000";
layers = (
{
anchors = (
{
name = bottom;
pos = (300,0);
},
{
name = top;
pos = (300,700);
}
);
layerId = m001;
shapes = (
{
closed = 1;
nodes = (
(339,0,l),
(339,633,l),
(570,633,l),
(570,700,l),
(30,700,l),
(30,633,l),
(262,633,l),
(262,0,l)
);
}
);
width = 600;
},
{
anchors = (
{
name = bottom;
pos = (300,0);
},
{
name = top;
pos = (300,700);
}
);
layerId = "8560E1E4-71CD-42DE-875E-B4A7223FD06A";
shapes = (
{
closed = 1;
nodes = (
(386,0,l),
(386,556,l),
(586,556,l),
(586,700,l),
(14,700,l),
(14,556,l),
(214,556,l),
(214,0,l)
);
}
);
width = 600;
},
{
anchors = (
{
name = bottom;
pos = (300,0);
},
{
name = top;
pos = (300,700);
}
);
layerId = "2B01EBD5-E910-4BCA-BDA7-5B8A0D7F375D";
shapes = (
{
closed = 1;
nodes = (
(326,0,l),
(326,653,l),
(566,653,l),
(566,700,l),
(34,700,l),
(34,653,l),
(274,653,l),
(274,0,l)
);
}
);
width = 600;
}
);
unicode = 84;
},
{
glyphname = Tbar;
kernLeft = T;
kernRight = T;
lastChange = "2024-10-11 15:27:38 +0000";
layers = (
{
layerId = m001;
shapes = (
{
closed = 1;
nodes = (
(339,0,l),
(339,312,l),
(492,312,l),
(492,373,l),
(339,373,l),
(339,633,l),
(570,633,l),
(570,700,l),
(30,700,l),
(30,633,l),
(262,633,l),
(262,373,l),
(108,373,l),
(108,312,l),
(262,312,l),
(262,0,l)
);
}
);
width = 600;
},
{
layerId = "8560E1E4-71CD-42DE-875E-B4A7223FD06A";
shapes = (
{
closed = 1;
nodes = (
(386,0,l),
(386,259,l),
(509,259,l),
(509,379,l),
(386,379,l),
(386,556,l),
(586,556,l),
(586,700,l),
(14,700,l),
(14,556,l),
(214,556,l),
(214,379,l),
(91,379,l),
(91,259,l),
(214,259,l),
(214,0,l)
);
}
);
width = 600;
},
{
layerId = "2B01EBD5-E910-4BCA-BDA7-5B8A0D7F375D";
shapes = (
{
closed = 1;
nodes = (
(326,0,l),
(326,329,l),
(488,329,l),
(488,373,l),
(326,373,l),
(326,653,l),
(566,653,l),
(566,700,l),
(34,700,l),
(34,653,l),
(274,653,l),
(274,373,l),
(112,373,l),
(112,329,l),
(274,329,l),
(274,0,l)
);
}
);
width = 600;
}
);
unicode = 358;
},
{
glyphname = Tcedilla;
kernLeft = T;
kernRight = T;
lastChange = "2024-10-11 15:27:38 +0000";
layers = (
{
layerId = m001;
shapes = (
{
closed = 1;
nodes = (
(279,0,l),
(254,-99,l),
(283,-99,ls),
(328,-99,o),
(354,-117,o),
(354,-148,cs),
(354,-180,o),
(330,-200,o),
(289,-200,cs),
(260,-200,o),
(233,-190,o),
(210,-171,c),
(182,-203,l),
(209,-227,o),
(247,-239,o),
(292,-239,cs),
(357,-239,o),
(403,-200,o),
(403,-146,cs),
(403,-99,o),
(365,-69,o),
(306,-66,c),
(321,0,l),
(339,0,l),
(339,633,l),
(570,633,l),
(570,700,l),
(30,700,l),
(30,633,l),
(262,633,l),
(262,0,l)
);
}
);
width = 600;
},
{
layerId = "8560E1E4-71CD-42DE-875E-B4A7223FD06A";
shapes = (
{
closed = 1;
nodes = (
(271,0,l),
(244,-111,l),
(289,-111,ls),
(324,-111,o),
(345,-124,o),
(345,-146,cs),
(345,-170,o),
(326,-183,o),
(291,-183,cs),
(265,-183,o),
(237,-173,o),
(214,-155,c),
(165,-212,l),
(197,-240,o),
(241,-254,o),
(300,-254,cs),
(375,-254,o),
(432,-206,o),
(432,-144,cs),
(432,-95,o),
(393,-63,o),
(330,-58,c),
(344,0,l),
(386,0,l),
(386,556,l),
(586,556,l),
(586,700,l),
(14,700,l),
(14,556,l),
(214,556,l),
(214,0,l)
);
}
);
width = 600;
},
{
layerId = "2B01EBD5-E910-4BCA-BDA7-5B8A0D7F375D";
shapes = (
{
closed = 1;
nodes = (
(284,0,l),
(259,-96,l),
(284,-96,ls),
(332,-96,o),
(360,-115,o),
(360,-149,cs),
(360,-183,o),
(334,-204,o),
(291,-204,cs),
(261,-204,o),
(234,-194,o),
(211,-175,c),
(189,-201,l),
(215,-224,o),
(251,-235,o),
(292,-235,cs),
(355,-235,o),
(398,-198,o),
(398,-147,cs),
(398,-100,o),
(360,-70,o),
(302,-68,c),
(317,0,l),
(326,0,l),
(326,653,l),
(566,653,l),
(566,700,l),
(34,700,l),
(34,653,l),
(274,653,l),
(274,0,l)
);
}
);
width = 600;
}
);
unicode = 354;
},
{
glyphname = U;
kernLeft = U;
kernRight = U;
lastChange = "2024-10-11 15:27:38 +0000";
layers = (
{
anchors = (
{
name = bottom;
pos = (376,0);
},
{
name = top;
pos = (300,700);
}
);
layerId = m001;
shapes = (
{
closed = 1;
nodes = (
(448,-11,o),
(541,91,o),
(541,251,cs),
(541,700,l),
(464,700,l),
(464,251,ls),
(464,134,o),
(400,59,o),
(300,59,cs),
(200,59,o),
(136,134,o),
(136,251,c),
(136,700,l),
(59,700,l),
(59,251,l),
(59,91,o),
(152,-11,o),
(300,-11,cs)
);
}
);
width = 600;
},
{
anchors = (
{
name = bottom;
pos = (383,0);
},
{
name = top;
pos = (300,700);
}
);
layerId = "8560E1E4-71CD-42DE-875E-B4A7223FD06A";
shapes = (
{
closed = 1;
nodes = (
(457,-11,o),
(558,90,o),
(558,247,cs),
(558,700,l),
(386,700,l),
(386,247,ls),
(386,184,o),
(353,143,o),
(300,143,cs),
(247,143,o),
(214,184,o),
(214,247,c),
(214,700,l),
(42,700,l),
(42,247,l),
(42,90,o),
(143,-11,o),
(300,-11,cs)
);
}
);
width = 600;
},
{
anchors = (
{
name = bottom;
pos = (374,0);
},
{
name = top;
pos = (300,700);
}
);
layerId = "2B01EBD5-E910-4BCA-BDA7-5B8A0D7F375D";
shapes = (
{
closed = 1;
nodes = (
(446,-11,o),
(537,89,o),
(537,252,cs),
(537,700,l),
(485,700,l),
(485,252,ls),
(485,121,o),
(412,37,o),
(300,37,cs),
(188,37,o),
(115,121,o),
(115,252,c),
(115,700,l),
(63,700,l),
(63,252,l),
(63,89,o),
(154,-11,o),
(300,-11,cs)
);
}
);
width = 600;
}
);
unicode = 85;
},
{
color = 0;
glyphname = Uogonek;
kernLeft = U;
kernRight = U;
lastChange = "2024-11-06 19:51:56 +0000";
layers = (
{
background = {
shapes = (
{
closed = 1;
nodes = (
(358,-231,o),
(385,-224,o),
(404,-212,c),
(390,-173,l),
(378,-181,o),
(359,-185,o),
(342,-185,cs),
(300,-185,o),
(275,-164,o),
(275,-128,cs),
(275,-87,o),
(307,-47,o),
(379,0,c),
(480,30,o),
(541,122,o),
(541,251,cs),
(541,700,l),
(464,700,l),
(464,251,ls),
(464,134,o),
(400,59,o),
(300,59,cs),
(200,59,o),
(136,134,o),
(136,251,cs),
(136,700,l),
(59,700,l),
(59,251,ls),
(59,91,o),
(152,-11,o),
(300,-11,cs),
(303,-11,o),
(307,-11,o),
(310,-11,c),
(250,-56,o),
(225,-95,o),
(225,-140,cs),
(225,-195,o),
(267,-231,o),
(331,-231,cs)
);
}
);
};
layerId = m001;
shapes = (
{
closed = 1;
nodes = (
(358,-231,o),
(385,-224,o),
(404,-212,c),
(390,-173,l),
(378,-181,o),
(359,-185,o),
(342,-185,cs),
(300,-185,o),
(275,-164,o),
(275,-128,cs),
(275,-87,o),
(307,-47,o),
(379,0,c),
(480,30,o),
(541,122,o),
(541,251,cs),
(541,700,l),
(464,700,l),
(464,251,ls),
(464,134,o),
(400,59,o),
(300,59,cs),
(200,59,o),
(136,134,o),
(136,251,cs),
(136,700,l),
(59,700,l),
(59,251,ls),
(59,87.757,o),
(152,-14,o),
(310,-11,c),
(250,-56,o),
(225,-95,o),
(225,-140,cs),
(225,-195,o),
(267,-231,o),
(331,-231,cs)
);
}
);
width = 600;
},
{
layerId = "8560E1E4-71CD-42DE-875E-B4A7223FD06A";
shapes = (
{
closed = 1;
nodes = (
(356,-231,o),
(391,-222,o),
(413,-208,c),
(393,-138,l),
(383,-145,o),
(366,-149,o),
(348,-149,cs),
(318,-149,o),
(299,-132,o),
(299,-103,cs),
(299,-67,o),
(326,-35,o),
(384,0,c),
(492,30,o),
(558,120,o),
(558,247,cs),
(558,700,l),
(386,700,l),
(386,247,ls),
(386,184,o),
(353,143,o),
(300,143,cs),
(247,143,o),
(214,184,o),
(214,247,cs),
(214,700,l),
(42,700,l),
(42,247,ls),
(42,95,o),
(137,-4,o),
(285,-11,c),
(235,-48,o),
(212,-86,o),
(212,-132,cs),
(212,-191,o),
(255,-231,o),
(320,-231,cs)
);
}
);
width = 600;
},
{
background = {
shapes = (
{
closed = 1;
nodes = (
(360,-231,o),
(384,-224,o),
(401,-213,c),
(389,-182,l),
(376,-190,o),
(357,-195,o),
(340,-195,cs),
(297,-195,o),
(268,-174,o),
(268,-134,cs),
(268,-97,o),
(294,-56,o),
(378,0,c),
(478,30,o),
(537,120,o),
(537,252,cs),
(537,700,l),
(485,700,l),
(485,252,ls),
(485,121,o),
(412,37,o),
(300,37,cs),
(188,37,o),
(115,121,o),
(115,252,cs),
(115,700,l),
(63,700,l),
(63,252,ls),
(63,89,o),
(154,-11,o),
(300,-11,cs),
(305,-11,o),
(310,-11,o),
(315,-11,c),
(251,-61,o),
(228,-99,o),
(228,-142,cs),
(228,-193,o),
(266,-231,o),
(334,-231,cs)
);
}
);
};
layerId = "2B01EBD5-E910-4BCA-BDA7-5B8A0D7F375D";
shapes = (
{
closed = 1;
nodes = (
(360,-231,o),
(384,-224,o),
(401,-213,c),
(389,-182,l),
(376,-190,o),
(357,-195,o),
(340,-195,cs),
(297,-195,o),
(268,-174,o),
(268,-134,cs),
(268,-97,o),
(294,-56,o),
(378,0,c),
(478,30,o),
(537,120,o),
(537,252,cs),
(537,700,l),
(485,700,l),
(485,252,ls),
(485,121,o),
(412,37,o),
(300,37,cs),
(188,37,o),
(115,121,o),
(115,252,cs),
(115,700,l),
(63,700,l),
(63,252,ls),
(63,83.418,o),
(160,-18,o),
(315,-11,c),
(251,-61,o),
(228,-99,o),
(228,-142,cs),
(228,-193,o),
(266,-231,o),
(334,-231,cs)
);
}
);
width = 600;
}
);
unicode = 370;
},
{
glyphname = V;
lastChange = "2024-10-11 15:27:38 +0000";
layers = (
{
layerId = m001;
shapes = (
{
closed = 1;
nodes = (
(348,0,l),
(584,699,l),
(505,699,l),
(301,72,l),
(97,700,l),
(16,700,l),
(250,0,l)
);
}
);
width = 600;
},
{
layerId = "8560E1E4-71CD-42DE-875E-B4A7223FD06A";
shapes = (
{
closed = 1;
nodes = (
(398,0,l),
(599,700,l),
(435,700,l),
(302,191,l),
(172,700,l),
(1,700,l),
(202,0,l)
);
}
);
width = 600;
},
{
layerId = "2B01EBD5-E910-4BCA-BDA7-5B8A0D7F375D";
shapes = (
{
closed = 1;
nodes = (
(336,0,l),
(580,700,l),
(527,700,l),
(301,38,l),
(75,700,l),
(21,700,l),
(264,0,l)
);
}
);
width = 600;
}
);
unicode = 86;
},
{
glyphname = W;
kernLeft = W;
kernRight = W;
lastChange = "2024-10-11 15:27:38 +0000";
layers = (
{
anchors = (
{
name = top;
pos = (302,700);
}
);
guides = (
{
angle = 90;
pos = (302,700);
userData = {
UFO.identifier = IlOupJizjO;
};
}
);
layerId = m001;
shapes = (
{
closed = 1;
nodes = (
(183,0,l),
(301,576,l),
(418,0,l),
(491,0,l),
(575,700,l),
(506,700,l),
(447,161,l),
(336,700,l),
(267,700,l),
(156,159,l),
(97,700,l),
(25,700,l),
(110,0,l)
);
}
);
width = 600;
},
{
anchors = (
{
name = top;
pos = (300,700);
}
);
layerId = "8560E1E4-71CD-42DE-875E-B4A7223FD06A";
shapes = (
{
closed = 1;
nodes = (
(235,0,l),
(301,395,l),
(366,0,l),
(515,0,l),
(592,700,l),
(451,700,l),
(425,339,l),
(360,700,l),
(245,700,l),
(181,334,l),
(154,700,l),
(8,700,l),
(86,0,l)
);
}
);
width = 600;
},
{
anchors = (
{
name = top;
pos = (300,700);
}
);
guides = (
{
pos = (472,120);
userData = {
UFO.identifier = IlOupJizjO;
};
}
);
layerId = "2B01EBD5-E910-4BCA-BDA7-5B8A0D7F375D";
shapes = (
{
closed = 1;
nodes = (
(169,0,l),
(300,618,l),
(431,0,l),
(484,0,l),
(570,700,l),
(521,700,l),
(452,120,l),
(330,700,l),
(272,700,l),
(150,120,l),
(82,700,l),
(30,700,l),
(116,0,l)
);
}
);
width = 600;
}
);
unicode = 87;
},
{
glyphname = X;
kernRight = K;
lastChange = "2024-10-11 15:27:38 +0000";
layers = (
{
layerId = m001;
shapes = (
{
closed = 1;
nodes = (
(110,0,l),
(299,300,l),
(487,0,l),
(576,0,l),
(341,365,l),
(559,700,l),
(473,700,l),
(300,427,l),
(129,700,l),
(41,700,l),
(257,362,l),
(24,0,l)
);
}
);
width = 600;
},
{
layerId = "8560E1E4-71CD-42DE-875E-B4A7223FD06A";
shapes = (
{
closed = 1;
nodes = (
(178,0,l),
(296,214,l),
(414,0,l),
(600,0,l),
(389,364,l),
(583,700,l),
(405,700,l),
(303,515,l),
(202,700,l),
(17,700,l),
(210,365,l),
(0,0,l)
);
}
);
width = 600;
},
{
layerId = "2B01EBD5-E910-4BCA-BDA7-5B8A0D7F375D";
shapes = (
{
closed = 1;
nodes = (
(90,0,l),
(300,319,l),
(510,0,l),
(570,0,l),
(330,362,l),
(552,700,l),
(492,700,l),
(301,406,l),
(108,700,l),
(48,700,l),
(271,362,l),
(30,0,l)
);
}
);
width = 600;
}
);
unicode = 88;
},
{
glyphname = Y;
kernLeft = Y;
kernRight = Y;
lastChange = "2024-10-11 15:27:38 +0000";
layers = (
{
anchors = (
{
name = top;
pos = (300,700);
}
);
guides = (
{
angle = 90;
pos = (300,700);
userData = {
UFO.identifier = u0kcrcG2X0;
};
}
);
layerId = m001;
shapes = (
{
closed = 1;
nodes = (
(338,0,l),
(338,286,l),
(577,700,l),
(497,700,l),
(302,355,l),
(107,700,l),
(23,700,l),
(261,287,l),
(261,0,l)
);
}
);
width = 600;
},
{
anchors = (
{
name = top;
pos = (300,700);
}
);
layerId = "8560E1E4-71CD-42DE-875E-B4A7223FD06A";
shapes = (
{
closed = 1;
nodes = (
(386,0,l),
(386,287,l),
(605,700,l),
(433,700,l),
(305,448,l),
(178,700,l),
(-5,700,l),
(214,287,l),
(214,0,l)
);
}
);
width = 600;
},
{
anchors = (
{
name = top;
pos = (300,700);
}
);
guides = (
{
angle = 90;
pos = (299,0);
userData = {
UFO.identifier = u0kcrcG2X0;
};
}
);
layerId = "2B01EBD5-E910-4BCA-BDA7-5B8A0D7F375D";
shapes = (
{
closed = 1;
nodes = (
(325,0,l),
(325,284,l),
(570,700,l),
(514,700,l),
(301,334,l),
(89,700,l),
(30,700,l),
(273,289,l),
(273,0,l)
);
}
);
width = 600;
}
);
unicode = 89;
},
{
glyphname = Z;
kernLeft = Z;
kernRight = Z;
lastChange = "2024-10-11 15:27:38 +0000";
layers = (
{
anchors = (
{
name = top;
pos = (299,700);
}
);
guides = (
{
angle = 90;
pos = (299,700);
userData = {
UFO.identifier = xDkTm3Dn8J;
};
}
);
layerId = m001;
shapes = (
{
closed = 1;
nodes = (
(549,0,l),
(549,67,l),
(149,65,l),
(541,646,l),
(541,700,l),
(57,700,l),
(57,633,l),
(446,635,l),
(54,54,l),
(54,0,l)
);
}
);
width = 600;
},
{
anchors = (
{
name = top;
pos = (291,700);
}
);
layerId = "8560E1E4-71CD-42DE-875E-B4A7223FD06A";
shapes = (
{
closed = 1;
nodes = (
(560,0,l),
(560,144,l),
(262,142,l),
(557,588,l),
(557,700,l),
(42,700,l),
(42,556,l),
(337,559,l),
(40,112,l),
(40,0,l)
);
}
);
width = 600;
},
{
anchors = (
{
name = top;
pos = (300,700);
}
);
guides = (
{
angle = 90;
pos = (299,700);
userData = {
UFO.identifier = xDkTm3Dn8J;
};
}
);
layerId = "2B01EBD5-E910-4BCA-BDA7-5B8A0D7F375D";
shapes = (
{
closed = 1;
nodes = (
(546,0,l),
(546,47,l),
(121,47,l),
(537,661,l),
(537,700,l),
(61,700,l),
(61,653,l),
(473,653,l),
(57,39,l),
(57,0,l)
);
}
);
width = 600;
}
);
unicode = 90;
},
{
glyphname = a;
kernLeft = a;
kernRight = n;
lastChange = "2024-10-11 15:27:38 +0000";
layers = (
{
anchors = (
{
name = bottom;
pos = (488,0);
},
{
name = top;
pos = (287,488);
}
);
layerId = m001;
shapes = (
{
closed = 1;
nodes = (
(318,-10,o),
(371,11,o),
(416,56,c),
(416,0,l),
(488,0,l),
(488,314,ls),
(488,431,o),
(418,496,o),
(294,496,cs),
(231,496,o),
(168,481,o),
(98,443,c),
(128,388,l),
(189,423,o),
(236,435,o),
(285,435,cs),
(371,435,o),
(416,391,o),
(416,304,cs),
(416,248,l),
(371,274,o),
(320,285,o),
(262,285,cs),
(149,285,o),
(74,227,o),
(74,139,cs),
(74,51,o),
(149,-10,o),
(256,-10,cs)
);
},
{
closed = 1;
nodes = (
(144,196,o),
(195,232,o),
(273,232,cs),
(329,232,o),
(374,222,o),
(416,197,c),
(416,103,l),
(375,63,o),
(328,46,o),
(271,46,c),
(195,46,o),
(144,84,o),
(144,141,cs)
);
}
);
width = 600;
},
{
anchors = (
{
name = bottom;
pos = (528,0);
},
{
name = top;
pos = (290,516);
}
);
layerId = "8560E1E4-71CD-42DE-875E-B4A7223FD06A";
shapes = (
{
closed = 1;
nodes = (
(280,-8,o),
(322,9,o),
(368,49,c),
(368,0,l),
(528,0,l),
(528,330,ls),
(528,453,o),
(445,524,o),
(302,524,cs),
(226,524,o),
(149,506,o),
(63,468,c),
(121,353,l),
(181,378,o),
(227,391,o),
(266,391,cs),
(335,391,o),
(368,366,o),
(368,316,cs),
(368,272,l),
(322,290,o),
(285,298,o),
(248,298,cs),
(121,298,o),
(47,243,o),
(47,148,cs),
(47,56,o),
(120,-8,o),
(225,-8,cs)
);
},
{
closed = 1;
nodes = (
(196,184,o),
(227,202,o),
(279,202,cs),
(308,202,o),
(338,197,o),
(368,189,c),
(368,128,l),
(341,109,o),
(309,99,o),
(275,99,c),
(226,99,o),
(196,118,o),
(196,151,cs)
);
}
);
width = 600;
},
{
anchors = (
{
name = bottom;
pos = (477,0);
},
{
name = top;
pos = (286,481);
}
);
layerId = "2B01EBD5-E910-4BCA-BDA7-5B8A0D7F375D";
shapes = (
{
closed = 1;
nodes = (
(328,-10,o),
(385,14,o),
(429,60,c),
(429,0,l),
(478,0,l),
(478,310,ls),
(478,425,o),
(411,489,o),
(292,489,cs),
(229,489,o),
(170,472,o),
(108,437,c),
(130,397,l),
(187,432,o),
(234,447,o),
(290,447,cs),
(380,447,o),
(429,398,o),
(429,301,cs),
(429,239,l),
(386,269,o),
(331,282,o),
(266,282,cs),
(157,282,o),
(81,223,o),
(81,138,cs),
(81,51,o),
(156,-10,o),
(264,-10,cs)
);
},
{
closed = 1;
nodes = (
(130,199,o),
(187,240,o),
(271,240,cs),
(335,240,o),
(384,228,o),
(429,198,c),
(429,98,l),
(384,52,o),
(333,32,o),
(270,32,c),
(187,32,o),
(130,75,o),
(130,140,cs)
);
}
);
width = 600;
}
);
unicode = 97;
},
{
color = 0;
glyphname = aogonek;
kernLeft = a;
kernRight = n;
lastChange = "2024-11-06 19:51:56 +0000";
layers = (
{
layerId = m001;
shapes = (
{
closed = 1;
nodes = (
(318,-10,o),
(371,11,o),
(416,56,c),
(416,0,l),
(433,0,l),
(363,-50,o),
(334,-91,o),
(334,-140,cs),
(334,-195,o),
(376,-231,o),
(440,-231,cs),
(467,-231,o),
(494,-224,o),
(513,-212,c),
(499,-173,l),
(487,-181,o),
(468,-185,o),
(451,-185,cs),
(409,-185,o),
(384,-164,o),
(384,-128,cs),
(384,-87,o),
(416,-47,o),
(488,0,c),
(488,314,ls),
(488,431,o),
(418,496,o),
(294,496,cs),
(231,496,o),
(168,481,o),
(98,443,c),
(128,388,l),
(189,423,o),
(236,435,o),
(285,435,cs),
(371,435,o),
(416,391,o),
(416,304,cs),
(416,248,l),
(371,274,o),
(320,285,o),
(262,285,cs),
(149,285,o),
(74,227,o),
(74,139,cs),
(74,51,o),
(149,-10,o),
(256,-10,cs)
);
},
{
closed = 1;
nodes = (
(144,196,o),
(195,232,o),
(273,232,cs),
(329,232,o),
(374,222,o),
(416,197,c),
(416,103,l),
(375,63,o),
(328,46,o),
(271,46,c),
(195,46,o),
(144,84,o),
(144,141,cs)
);
}
);
width = 600;
},
{
layerId = "8560E1E4-71CD-42DE-875E-B4A7223FD06A";
shapes = (
{
closed = 1;
nodes = (
(280,-8,o),
(322,9,o),
(368,49,c),
(368,0,l),
(444,0,l),
(383,-41,o),
(356,-82,o),
(356,-132,cs),
(356,-191,o),
(399,-231,o),
(464,-231,cs),
(500,-231,o),
(535,-222,o),
(557,-208,c),
(537,-138,l),
(527,-145,o),
(510,-149,o),
(492,-149,cs),
(462,-149,o),
(443,-132,o),
(443,-103,cs),
(443,-67,o),
(470,-35,o),
(528,0,c),
(528,330,ls),
(528,453,o),
(445,524,o),
(302,524,cs),
(226,524,o),
(149,506,o),
(63,468,c),
(121,353,l),
(181,378,o),
(227,391,o),
(266,391,cs),
(335,391,o),
(368,366,o),
(368,316,cs),
(368,272,l),
(322,290,o),
(285,298,o),
(248,298,cs),
(121,298,o),
(47,243,o),
(47,148,cs),
(47,56,o),
(120,-8,o),
(225,-8,cs)
);
},
{
closed = 1;
nodes = (
(196,184,o),
(227,202,o),
(279,202,cs),
(308,202,o),
(338,197,o),
(368,189,c),
(368,128,l),
(341,109,o),
(309,99,o),
(275,99,c),
(226,99,o),
(196,118,o),
(196,151,cs)
);
}
);
width = 600;
},
{
layerId = "2B01EBD5-E910-4BCA-BDA7-5B8A0D7F375D";
shapes = (
{
closed = 1;
nodes = (
(328,-10,o),
(385,14,o),
(429,60,c),
(429,0,l),
(430,0,l),
(355,-55,o),
(328,-96,o),
(328,-142,cs),
(328,-193,o),
(366,-231,o),
(434,-231,cs),
(460,-231,o),
(484,-224,o),
(501,-213,c),
(489,-182,l),
(476,-190,o),
(457,-195,o),
(440,-195,cs),
(397,-195,o),
(368,-174,o),
(368,-134,cs),
(368,-97,o),
(394,-56,o),
(478,0,c),
(478,310,ls),
(478,425,o),
(411,489,o),
(292,489,cs),
(229,489,o),
(170,472,o),
(108,437,c),
(130,397,l),
(187,432,o),
(234,447,o),
(290,447,cs),
(380,447,o),
(429,398,o),
(429,301,cs),
(429,239,l),
(386,269,o),
(331,282,o),
(266,282,cs),
(157,282,o),
(81,223,o),
(81,138,cs),
(81,51,o),
(156,-10,o),
(264,-10,cs)
);
},
{
closed = 1;
nodes = (
(130,199,o),
(187,240,o),
(271,240,cs),
(335,240,o),
(384,228,o),
(429,198,c),
(429,98,l),
(384,52,o),
(333,32,o),
(270,32,c),
(187,32,o),
(130,75,o),
(130,140,cs)
);
}
);
width = 600;
}
);
unicode = 261;
},
{
glyphname = ae;
kernLeft = a;
kernRight = e;
lastChange = "2024-10-11 15:27:38 +0000";
layers = (
{
layerId = m001;
shapes = (
{
closed = 1;
nodes = (
(218,-10,o),
(256,11,o),
(295,59,c),
(328,16,o),
(375,-10,o),
(434,-10,cs),
(484,-10,o),
(528,7,o),
(571,42,c),
(532,94,l),
(502,69,o),
(465,54,o),
(433,54,cs),
(361,54,o),
(313,128,o),
(308,228,c),
(571,228,l),
(571,253,ls),
(571,399,o),
(509,496,o),
(417,496,cs),
(365,496,o),
(323,468,o),
(292,418,c),
(274,469,o),
(232,496,o),
(172,496,cs),
(127,496,o),
(78,478,o),
(30,441,c),
(65,391,l),
(109,426,o),
(136,435,o),
(172,435,cs),
(215,435,o),
(238,402,o),
(238,338,cs),
(238,274,l),
(221,280,o),
(203,283,o),
(183,283,cs),
(89,283,o),
(29,224,o),
(29,134,cs),
(29,49,o),
(86,-10,o),
(171,-10,cs)
);
},
{
closed = 1;
nodes = (
(318,371,o),
(357,434,o),
(414,434,cs),
(466,434,o),
(501,376,o),
(506,280,c),
(310,280,l)
);
},
{
closed = 1;
nodes = (
(126,46,o),
(95,87,o),
(95,135,cs),
(95,195,o),
(135,232,o),
(190,232,cs),
(210,232,o),
(226,229,o),
(242,223,c),
(244,177,o),
(254,135,o),
(270,100,c),
(239,62,o),
(210,46,o),
(174,46,cs)
);
}
);
width = 600;
},
{
layerId = "8560E1E4-71CD-42DE-875E-B4A7223FD06A";
shapes = (
{
closed = 1;
nodes = (
(202,-10,o),
(237,5,o),
(284,49,c),
(320,11,o),
(369,-10,o),
(426,-10,cs),
(484,-10,o),
(534,5,o),
(578,37,c),
(520,147,l),
(496,129,o),
(467,115,o),
(436,115,cs),
(389,115,o),
(361,155,o),
(352,217,c),
(586,217,l),
(586,258,ls),
(586,429,o),
(508,524,o),
(405,524,cs),
(356,524,o),
(320,506,o),
(291,472,c),
(264,506,o),
(225,524,o),
(175,524,cs),
(123,524,o),
(63,504,o),
(5,466,c),
(61,356,l),
(107,386,o),
(129,395,o),
(159,395,cs),
(194,395,o),
(212,373,o),
(212,329,cs),
(212,291,l),
(200,294,o),
(188,295,o),
(174,295,cs),
(72,295,o),
(7,235,o),
(7,144,cs),
(7,54,o),
(66,-10,o),
(153,-10,cs)
);
},
{
closed = 1;
nodes = (
(357,371,o),
(373,401,o),
(400,401,cs),
(425,401,o),
(445,367,o),
(447,306,c),
(352,306,l)
);
},
{
closed = 1;
nodes = (
(161,94,o),
(142,117,o),
(142,150,cs),
(142,181,o),
(165,205,o),
(200,205,cs),
(205,205,o),
(210,205,o),
(215,204,c),
(219,171,o),
(228,141,o),
(240,115,c),
(224,102,o),
(211,94,o),
(192,94,cs)
);
}
);
width = 600;
},
{
layerId = "2B01EBD5-E910-4BCA-BDA7-5B8A0D7F375D";
shapes = (
{
closed = 1;
nodes = (
(225,-10,o),
(269,14,o),
(306,65,c),
(336,17,o),
(381,-10,o),
(435,-10,cs),
(486,-10,o),
(536,8,o),
(572,40,c),
(542,74,l),
(517,50,o),
(475,34,o),
(438,34,cs),
(364,34,o),
(313,114,o),
(310,231,c),
(578,231,l),
(578,250,ls),
(578,400,o),
(521,489,o),
(425,489,cs),
(375,489,o),
(331,459,o),
(302,408,c),
(285,461,o),
(241,489,o),
(177,489,cs),
(129,489,o),
(81,471,o),
(37,435,c),
(66,401,l),
(105,432,o),
(142,447,o),
(178,447,cs),
(239,447,o),
(262,410,o),
(262,340,cs),
(262,262,l),
(238,276,o),
(212,282,o),
(184,282,cs),
(93,282,o),
(35,223,o),
(35,132,cs),
(35,50,o),
(92,-10,o),
(172,-10,cs)
);
},
{
closed = 1;
nodes = (
(320,374,o),
(365,445,o),
(426,445,cs),
(489,445,o),
(526,383,o),
(531,272,c),
(311,272,l)
);
},
{
closed = 1;
nodes = (
(120,32,o),
(83,74,o),
(83,132,cs),
(83,200,o),
(121,240,o),
(187,240,cs),
(213,240,o),
(238,234,o),
(262,221,c),
(264,176,o),
(272,136,o),
(286,103,c),
(252,56,o),
(213,32,o),
(171,32,cs)
);
}
);
width = 600;
}
);
unicode = 230;
},
{
glyphname = b;
kernLeft = b;
kernRight = o;
lastChange = "2024-10-11 15:27:38 +0000";
layers = (
{
layerId = m001;
shapes = (
{
closed = 1;
nodes = (
(164,0,l),
(164,65,l),
(201,18,o),
(256,-7,o),
(320,-7,cs),
(447,-7,o),
(545,103,o),
(545,243,cs),
(545,384,o),
(445,494,o),
(316,494,cs),
(256,494,o),
(203,470,o),
(164,426,c),
(164,737,l),
(91,722,l),
(91,0,l)
);
},
{
closed = 1;
nodes = (
(245,57,o),
(195,80,o),
(164,122,c),
(164,364,l),
(196,405,o),
(247,430,o),
(302,430,cs),
(400,430,o),
(473,351,o),
(473,244,cs),
(473,137,o),
(400,57,o),
(302,57,cs)
);
}
);
userData = {
com.typemytype.robofont.guideline.showMeasurements.FsIwtXpTI7 = 1;
};
width = 600;
},
{
layerId = "8560E1E4-71CD-42DE-875E-B4A7223FD06A";
shapes = (
{
closed = 1;
nodes = (
(215,1,l),
(215,50,l),
(248,13,o),
(291,-8,o),
(340,-8,cs),
(466,-8,o),
(569,107,o),
(569,258,cs),
(569,409,o),
(466,524,o),
(340,524,cs),
(294,524,o),
(253,505,o),
(221,473,c),
(221,741,l),
(59,718,l),
(59,1,l)
);
},
{
closed = 1;
nodes = (
(271,120,o),
(243,132,o),
(221,152,c),
(221,364,l),
(243,384,o),
(271,396,o),
(302,396,cs),
(369,396,o),
(410,341,o),
(410,258,cs),
(410,175,o),
(369,120,o),
(302,120,cs)
);
}
);
userData = {
com.typemytype.robofont.guideline.showMeasurements.FsIwtXpTI7 = 1;
};
width = 600;
},
{
guides = (
{
angle = 270;
pos = (156,178);
userData = {
UFO.identifier = FsIwtXpTI7;
};
}
);
layerId = "2B01EBD5-E910-4BCA-BDA7-5B8A0D7F375D";
shapes = (
{
closed = 1;
nodes = (
(148,0,l),
(148,68,l),
(188,18,o),
(244,-8,o),
(312,-8,cs),
(441,-8,o),
(540,100,o),
(540,240,cs),
(540,379,o),
(440,487,o),
(310,487,cs),
(246,487,o),
(189,463,o),
(149,415,c),
(149,737,l),
(99,725,l),
(99,0,l)
);
},
{
closed = 1;
nodes = (
(237,38,o),
(181,67,o),
(149,116,c),
(149,367,l),
(182,414,o),
(240,441,o),
(302,441,cs),
(408,441,o),
(490,355,o),
(490,240,cs),
(490,125,o),
(408,38,o),
(302,38,cs)
);
}
);
userData = {
com.typemytype.robofont.guideline.showMeasurements.FsIwtXpTI7 = 1;
};
width = 600;
}
);
unicode = 98;
},
{
glyphname = c;
kernLeft = o;
kernRight = c;
lastChange = "2024-10-11 15:27:38 +0000";
layers = (
{
anchors = (
{
name = bottom;
pos = (306,0);
},
{
name = top;
pos = (305,488);
}
);
layerId = m001;
shapes = (
{
closed = 1;
nodes = (
(398,-10,o),
(475,33,o),
(518,101,c),
(459,138,l),
(428,87,o),
(373,55,o),
(308,55,cs),
(208,55,o),
(135,134,o),
(135,243,cs),
(135,352,o),
(208,431,o),
(308,431,cs),
(373,431,o),
(428,399,o),
(459,348,c),
(518,385,l),
(475,453,o),
(398,496,o),
(308,496,cs),
(170,496,o),
(63,387,o),
(63,243,cs),
(63,99,o),
(170,-10,o),
(308,-10,cs)
);
}
);
userData = {
com.typemytype.robofont.guideline.magnetic.CnWov4v5gS = 5;
com.typemytype.robofont.guideline.magnetic.WieLPXUqwW = 5;
com.typemytype.robofont.guideline.magnetic.zfFd93a0gG = 5;
};
width = 600;
},
{
anchors = (
{
name = bottom;
pos = (317,0);
},
{
name = top;
pos = (321,516);
}
);
layerId = "8560E1E4-71CD-42DE-875E-B4A7223FD06A";
shapes = (
{
closed = 1;
nodes = (
(427,-10,o),
(518,39,o),
(566,114,c),
(444,203,l),
(421,157,o),
(375,128,o),
(320,128,cs),
(250,128,o),
(198,183,o),
(198,257,cs),
(198,331,o),
(250,386,o),
(320,386,cs),
(375,386,o),
(421,357,o),
(444,311,c),
(566,400,l),
(518,475,o),
(427,524,o),
(319,524,cs),
(159,524,o),
(37,408,o),
(37,257,cs),
(37,106,o),
(159,-10,o),
(319,-10,cs)
);
}
);
userData = {
com.typemytype.robofont.guideline.magnetic.CnWov4v5gS = 5;
com.typemytype.robofont.guideline.magnetic.WieLPXUqwW = 5;
com.typemytype.robofont.guideline.magnetic.zfFd93a0gG = 5;
};
width = 600;
},
{
anchors = (
{
name = bottom;
pos = (303,0);
},
{
name = top;
pos = (301,481);
}
);
layerId = "2B01EBD5-E910-4BCA-BDA7-5B8A0D7F375D";
shapes = (
{
closed = 1;
nodes = (
(390,-10,o),
(464,32,o),
(505,98,c),
(463,121,l),
(430,69,o),
(372,36,o),
(305,36,cs),
(199,36,o),
(120,123,o),
(120,240,cs),
(120,357,o),
(199,443,o),
(305,443,cs),
(372,443,o),
(430,410,o),
(463,358,c),
(505,381,l),
(464,447,o),
(390,489,o),
(305,489,cs),
(170,489,o),
(69,380,o),
(69,239,cs),
(69,98,o),
(170,-10,o),
(305,-10,cs)
);
}
);
userData = {
com.typemytype.robofont.guideline.magnetic.CnWov4v5gS = 5;
com.typemytype.robofont.guideline.magnetic.WieLPXUqwW = 5;
com.typemytype.robofont.guideline.magnetic.zfFd93a0gG = 5;
};
width = 600;
}
);
unicode = 99;
},
{
glyphname = ccedilla;
kernLeft = o;
kernRight = c;
lastChange = "2024-10-11 15:27:38 +0000";
layers = (
{
layerId = m001;
shapes = (
{
closed = 1;
nodes = (
(363,-239,o),
(409,-200,o),
(409,-146,cs),
(409,-99,o),
(371,-69,o),
(312,-66,c),
(325,-9,l),
(408,-4,o),
(478,37,o),
(518,101,c),
(459,138,l),
(428,87,o),
(373,55,o),
(308,55,cs),
(208,55,o),
(135,134,o),
(135,243,cs),
(135,352,o),
(208,431,o),
(308,431,cs),
(373,431,o),
(428,399,o),
(459,348,c),
(518,385,l),
(475,453,o),
(398,496,o),
(308,496,cs),
(170,496,o),
(63,387,o),
(63,243,cs),
(63,108,o),
(157,4,o),
(283,-9,c),
(260,-99,l),
(289,-99,ls),
(334,-99,o),
(360,-117,o),
(360,-148,cs),
(360,-180,o),
(336,-200,o),
(295,-200,cs),
(266,-200,o),
(239,-190,o),
(216,-171,c),
(188,-203,l),
(215,-227,o),
(253,-239,o),
(298,-239,cs)
);
}
);
width = 600;
},
{
layerId = "8560E1E4-71CD-42DE-875E-B4A7223FD06A";
shapes = (
{
closed = 1;
nodes = (
(392,-254,o),
(449,-206,o),
(449,-144,cs),
(449,-95,o),
(410,-63,o),
(347,-58,c),
(359,-8,l),
(449,3,o),
(524,48,o),
(566,114,c),
(444,203,l),
(421,157,o),
(375,128,o),
(320,128,cs),
(250,128,o),
(198,183,o),
(198,257,cs),
(198,331,o),
(250,386,o),
(320,386,cs),
(375,386,o),
(421,357,o),
(444,311,c),
(566,400,l),
(518,475,o),
(427,524,o),
(319,524,cs),
(159,524,o),
(37,408,o),
(37,257,cs),
(37,117,o),
(143,6,o),
(286,-8,c),
(261,-111,l),
(306,-111,ls),
(341,-111,o),
(362,-124,o),
(362,-146,cs),
(362,-170,o),
(343,-183,o),
(308,-183,cs),
(282,-183,o),
(254,-173,o),
(231,-155,c),
(182,-212,l),
(214,-240,o),
(258,-254,o),
(317,-254,cs)
);
}
);
width = 600;
},
{
layerId = "2B01EBD5-E910-4BCA-BDA7-5B8A0D7F375D";
shapes = (
{
closed = 1;
nodes = (
(358,-235,o),
(401,-198,o),
(401,-147,cs),
(401,-100,o),
(363,-70,o),
(305,-68,c),
(318,-10,l),
(397,-6,o),
(466,35,o),
(505,98,c),
(463,121,l),
(430,69,o),
(372,36,o),
(305,36,cs),
(199,36,o),
(120,123,o),
(120,240,cs),
(120,357,o),
(199,443,o),
(305,443,cs),
(372,443,o),
(430,410,o),
(463,358,c),
(505,381,l),
(464,447,o),
(390,489,o),
(305,489,cs),
(170,489,o),
(69,380,o),
(69,239,cs),
(69,105,o),
(160,1,o),
(285,-9,c),
(262,-96,l),
(287,-96,ls),
(335,-96,o),
(363,-115,o),
(363,-149,cs),
(363,-183,o),
(337,-204,o),
(294,-204,cs),
(264,-204,o),
(237,-194,o),
(214,-175,c),
(192,-201,l),
(218,-224,o),
(254,-235,o),
(295,-235,cs)
);
}
);
width = 600;
}
);
unicode = 231;
},
{
glyphname = d;
kernLeft = o;
kernRight = d;
lastChange = "2024-10-11 15:27:38 +0000";
layers = (
{
layerId = m001;
shapes = (
{
closed = 1;
nodes = (
(344,-7,o),
(399,18,o),
(436,65,c),
(436,0,l),
(509,0,l),
(509,737,l),
(436,722,l),
(436,426,l),
(397,470,o),
(344,494,o),
(284,494,cs),
(155,494,o),
(55,384,o),
(55,243,cs),
(55,103,o),
(153,-7,o),
(280,-7,cs)
);
},
{
closed = 1;
nodes = (
(200,57,o),
(127,137,o),
(127,244,cs),
(127,351,o),
(200,430,o),
(298,430,cs),
(353,430,o),
(404,405,o),
(436,364,c),
(436,122,l),
(405,80,o),
(355,57,o),
(298,57,cs)
);
}
);
width = 600;
},
{
layerId = "8560E1E4-71CD-42DE-875E-B4A7223FD06A";
shapes = (
{
closed = 1;
nodes = (
(309,-8,o),
(352,13,o),
(385,50,c),
(385,0,l),
(541,0,l),
(541,737,l),
(379,714,l),
(379,473,l),
(347,505,o),
(306,524,o),
(260,524,cs),
(134,524,o),
(31,409,o),
(31,258,cs),
(31,107,o),
(134,-8,o),
(260,-8,cs)
);
},
{
closed = 1;
nodes = (
(231,120,o),
(190,175,o),
(190,258,cs),
(190,341,o),
(231,396,o),
(298,396,cs),
(329,396,o),
(357,384,o),
(379,364,c),
(379,152,l),
(357,132,o),
(329,120,o),
(298,120,cs)
);
}
);
width = 600;
},
{
guides = (
{
angle = 270;
pos = (444,407);
userData = {
UFO.identifier = zaRFPX4Ifm;
};
}
);
layerId = "2B01EBD5-E910-4BCA-BDA7-5B8A0D7F375D";
shapes = (
{
closed = 1;
nodes = (
(354,-8,o),
(411,16,o),
(451,64,c),
(451,0,l),
(501,0,l),
(501,737,l),
(451,725,l),
(451,412,l),
(411,461,o),
(355,487,o),
(288,487,cs),
(159,487,o),
(60,379,o),
(60,240,cs),
(60,100,o),
(160,-8,o),
(290,-8,cs)
);
},
{
closed = 1;
nodes = (
(192,38,o),
(110,124,o),
(110,239,cs),
(110,354,o),
(192,441,o),
(298,441,cs),
(363,441,o),
(419,412,o),
(451,363,c),
(451,112,l),
(418,65,o),
(360,38,o),
(298,38,cs)
);
}
);
width = 600;
}
);
unicode = 100;
},
{
glyphname = dcaron;
kernLeft = o;
kernRight = d;
lastChange = "2024-10-11 15:27:38 +0000";
layers = (
{
layerId = m001;
shapes = (
{
closed = 1;
nodes = (
(607,527,l),
(632,737,l),
(556,722,l),
(551,527,l)
);
},
{
closed = 1;
nodes = (
(322,-7,o),
(369,14,o),
(404,53,c),
(404,0,l),
(477,0,l),
(477,737,l),
(404,722,l),
(404,437,l),
(368,473,o),
(322,494,o),
(271,494,c),
(151,494,o),
(58,384,o),
(58,243,cs),
(58,103,o),
(149,-7,o),
(267,-7,c)
);
},
{
closed = 1;
nodes = (
(130,351,o),
(194,430,o),
(281,430,c),
(329,430,o),
(373,410,o),
(404,376,c),
(404,110,l),
(373,76,o),
(331,57,o),
(281,57,c),
(194,57,o),
(130,137,o),
(130,244,cs)
);
}
);
width = 600;
},
{
layerId = "8560E1E4-71CD-42DE-875E-B4A7223FD06A";
shapes = (
{
closed = 1;
nodes = (
(600,498,l),
(640,737,l),
(515,714,l),
(511,498,l)
);
},
{
closed = 1;
nodes = (
(251,-3,o),
(292,18,o),
(321,52,c),
(321,0,l),
(471,0,l),
(471,737,l),
(319,714,l),
(319,470,l),
(289,503,o),
(256,519,o),
(220,519,c),
(104,519,o),
(21,411,o),
(21,259,cs),
(21,107,o),
(99,-3,o),
(208,-3,c)
);
},
{
closed = 1;
nodes = (
(170,338,o),
(205,391,o),
(258,391,c),
(280,391,o),
(300,381,o),
(319,362,c),
(319,156,l),
(300,134,o),
(281,126,o),
(258,126,c),
(206,126,o),
(170,180,o),
(170,258,cs)
);
}
);
width = 600;
},
{
layerId = "2B01EBD5-E910-4BCA-BDA7-5B8A0D7F375D";
shapes = (
{
closed = 1;
nodes = (
(609,549,l),
(628,737,l),
(576,725,l),
(573,549,l)
);
},
{
closed = 1;
nodes = (
(338,-8,o),
(391,13,o),
(430,53,c),
(430,0,l),
(480,0,l),
(480,737,l),
(430,725,l),
(430,423,l),
(391,465,o),
(340,487,o),
(278,487,c),
(155,487,o),
(60,379,o),
(60,240,cs),
(60,100,o),
(156,-8,o),
(280,-8,c)
);
},
{
closed = 1;
nodes = (
(110,354,o),
(188,441,o),
(288,441,c),
(346,441,o),
(397,418,o),
(430,378,c),
(430,98,l),
(396,59,o),
(344,38,o),
(288,38,c),
(188,38,o),
(110,124,o),
(110,239,cs)
);
}
);
width = 600;
}
);
unicode = 271;
},
{
glyphname = dcroat;
kernLeft = o;
kernRight = d;
lastChange = "2024-10-11 15:27:38 +0000";
layers = (
{
layerId = m001;
shapes = (
{
closed = 1;
nodes = (
(344,-7,o),
(399,18,o),
(436,65,c),
(436,0,l),
(509,0,l),
(509,573,l),
(587,573,l),
(587,627,l),
(509,627,l),
(509,737,l),
(436,722,l),
(436,627,l),
(292,627,l),
(292,573,l),
(436,573,l),
(436,426,l),
(397,470,o),
(344,494,o),
(284,494,cs),
(155,494,o),
(55,384,o),
(55,243,cs),
(55,103,o),
(153,-7,o),
(280,-7,cs)
);
},
{
closed = 1;
nodes = (
(200,57,o),
(127,137,o),
(127,244,cs),
(127,351,o),
(200,430,o),
(298,430,cs),
(353,430,o),
(404,405,o),
(436,364,c),
(436,122,l),
(405,80,o),
(355,57,o),
(298,57,cs)
);
}
);
width = 600;
},
{
layerId = "8560E1E4-71CD-42DE-875E-B4A7223FD06A";
shapes = (
{
closed = 1;
nodes = (
(309,-8,o),
(352,13,o),
(385,50,c),
(385,0,l),
(541,0,l),
(541,560,l),
(599,560,l),
(599,648,l),
(541,648,l),
(541,737,l),
(379,714,l),
(379,648,l),
(275,648,l),
(275,560,l),
(379,560,l),
(379,473,l),
(347,505,o),
(306,524,o),
(260,524,cs),
(134,524,o),
(31,409,o),
(31,258,cs),
(31,107,o),
(134,-8,o),
(260,-8,cs)
);
},
{
closed = 1;
nodes = (
(231,120,o),
(190,175,o),
(190,258,cs),
(190,341,o),
(231,396,o),
(298,396,cs),
(329,396,o),
(357,384,o),
(379,364,c),
(379,152,l),
(357,132,o),
(329,120,o),
(298,120,cs)
);
}
);
width = 600;
},
{
layerId = "2B01EBD5-E910-4BCA-BDA7-5B8A0D7F375D";
shapes = (
{
closed = 1;
nodes = (
(354,-8,o),
(411,16,o),
(451,64,c),
(451,0,l),
(501,0,l),
(501,576,l),
(583,576,l),
(583,616,l),
(501,616,l),
(501,737,l),
(451,725,l),
(451,616,l),
(295,616,l),
(295,576,l),
(451,576,l),
(451,412,l),
(411,461,o),
(355,487,o),
(288,487,cs),
(159,487,o),
(60,379,o),
(60,240,cs),
(60,100,o),
(160,-8,o),
(290,-8,cs)
);
},
{
closed = 1;
nodes = (
(192,38,o),
(110,124,o),
(110,239,cs),
(110,354,o),
(192,441,o),
(298,441,cs),
(363,441,o),
(419,412,o),
(451,363,c),
(451,112,l),
(418,65,o),
(360,38,o),
(298,38,cs)
);
}
);
width = 600;
}
);
unicode = 273;
},
{
glyphname = eth;
kernLeft = o;
lastChange = "2024-10-11 15:27:38 +0000";
layers = (
{
layerId = m001;
shapes = (
{
closed = 1;
nodes = (
(443,-10,o),
(541,109,o),
(541,289,cs),
(541,435,o),
(499,553,o),
(419,635,c),
(510,695,l),
(483,737,l),
(380,670,l),
(343,699,o),
(300,721,o),
(251,737,c),
(221,685,l),
(259,673,o),
(294,656,o),
(325,634,c),
(240,579,l),
(269,537,l),
(364,599,l),
(422,541,o),
(460,459,o),
(472,362,c),
(439,430,o),
(369,476,o),
(284,476,cs),
(155,476,o),
(59,375,o),
(59,238,cs),
(59,99,o),
(163,-10,o),
(296,-10,cs)
);
},
{
closed = 1;
nodes = (
(202,54,o),
(131,133,o),
(131,236,cs),
(131,339,o),
(202,418,o),
(298,418,cs),
(394,418,o),
(465,339,o),
(465,236,cs),
(465,133,o),
(394,54,o),
(298,54,cs)
);
}
);
width = 600;
},
{
layerId = "8560E1E4-71CD-42DE-875E-B4A7223FD06A";
shapes = (
{
closed = 1;
nodes = (
(456,-10,o),
(558,116,o),
(558,309,cs),
(558,429,o),
(518,537,o),
(446,624,c),
(515,671,l),
(462,747,l),
(379,691,l),
(343,721,o),
(302,747,o),
(257,770,c),
(175,664,l),
(207,649,o),
(236,631,o),
(263,611,c),
(199,568,l),
(252,492,l),
(332,547,l),
(371,501,o),
(396,450,o),
(404,399,c),
(379,437,o),
(322,462,o),
(259,462,cs),
(139,462,o),
(42,361,o),
(42,235,cs),
(42,97,o),
(150,-10,o),
(291,-10,cs)
);
},
{
closed = 1;
nodes = (
(239,128,o),
(192,176,o),
(192,235,cs),
(192,294,o),
(239,342,o),
(297,342,cs),
(355,342,o),
(402,294,o),
(402,235,cs),
(402,176,o),
(355,128,o),
(297,128,cs)
);
}
);
width = 600;
},
{
layerId = "2B01EBD5-E910-4BCA-BDA7-5B8A0D7F375D";
shapes = (
{
closed = 1;
nodes = (
(438,-10,o),
(536,106,o),
(536,281,cs),
(536,435,o),
(493,557,o),
(410,641,c),
(511,706,l),
(490,739,l),
(379,668,l),
(342,698,o),
(298,721,o),
(248,737,c),
(232,699,l),
(274,685,o),
(310,667,o),
(341,644,c),
(253,587,l),
(275,553,l),
(373,617,l),
(439,554,o),
(477,465,o),
(489,354,c),
(454,429,o),
(379,480,o),
(289,480,cs),
(161,480,o),
(64,381,o),
(64,239,cs),
(64,99,o),
(166,-10,o),
(296,-10,cs)
);
},
{
closed = 1;
nodes = (
(194,36,o),
(114,123,o),
(114,236,cs),
(114,349,o),
(194,436,o),
(298,436,cs),
(402,436,o),
(482,349,o),
(482,236,cs),
(482,123,o),
(402,36,o),
(298,36,cs)
);
}
);
width = 600;
}
);
unicode = 240;
},
{
glyphname = e;
kernLeft = o;
kernRight = e;
lastChange = "2024-10-11 15:27:38 +0000";
layers = (
{
anchors = (
{
name = bottom;
pos = (385,0);
},
{
name = top;
pos = (300,488);
}
);
layerId = m001;
shapes = (
{
closed = 1;
nodes = (
(389,-10,o),
(457,17,o),
(509,71,c),
(458,116,l),
(425,77,o),
(372,54,o),
(315,54,cs),
(219,54,o),
(143,128,o),
(136,228,c),
(539,228,l),
(539,250,l),
(539,390,o),
(437,496,o),
(300,496,cs),
(167,496,o),
(65,387,o),
(65,244,cs),
(65,100,o),
(172,-10,o),
(312,-10,cs)
);
},
{
closed = 1;
nodes = (
(152,371,o),
(216,433,o),
(299,433,cs),
(386,433,o),
(454,369,o),
(467,282,c),
(138,282,l)
);
}
);
width = 600;
},
{
anchors = (
{
name = bottom;
pos = (406,0);
},
{
name = top;
pos = (306,516);
}
);
layerId = "8560E1E4-71CD-42DE-875E-B4A7223FD06A";
shapes = (
{
closed = 1;
nodes = (
(404,-10,o),
(473,13,o),
(538,76,c),
(434,169,l),
(408,137,o),
(370,119,o),
(323,119,cs),
(262,119,o),
(213,158,o),
(197,216,c),
(567,216,l),
(567,251,l),
(567,411,o),
(458,524,o),
(303,524,cs),
(152,524,o),
(38,408,o),
(38,257,cs),
(38,107,o),
(160,-10,o),
(315,-10,cs)
);
},
{
closed = 1;
nodes = (
(213,365,o),
(253,398,o),
(308,398,cs),
(363,398,o),
(403,365,o),
(417,308,c),
(198,308,l)
);
}
);
width = 600;
},
{
anchors = (
{
name = bottom;
pos = (379,0);
},
{
name = top;
pos = (298,481);
}
);
layerId = "2B01EBD5-E910-4BCA-BDA7-5B8A0D7F375D";
shapes = (
{
closed = 1;
nodes = (
(386,-10,o),
(453,19,o),
(501,70,c),
(466,102,l),
(430,60,o),
(373,36,o),
(313,36,cs),
(213,36,o),
(127,119,o),
(122,231,c),
(532,231,l),
(532,250,l),
(532,384,o),
(431,489,o),
(302,489,cs),
(172,489,o),
(72,381,o),
(72,240,cs),
(72,98,o),
(181,-10,o),
(311,-10,cs)
);
},
{
closed = 1;
nodes = (
(137,372,o),
(209,443,o),
(302,443,cs),
(398,443,o),
(471,369,o),
(481,272,c),
(124,272,l)
);
}
);
width = 600;
}
);
unicode = 101;
},
{
color = 0;
glyphname = eogonek;
kernLeft = o;
kernRight = e;
lastChange = "2024-11-06 19:51:56 +0000";
layers = (
{
layerId = m001;
shapes = (
{
closed = 1;
nodes = (
(65,97,o),
(176,-14,o),
(320,-10,c),
(260,-56,o),
(235,-93,o),
(235,-140,cs),
(235,-195,o),
(277,-231,o),
(341,-231,cs),
(368,-231,o),
(395,-224,o),
(414,-212,c),
(400,-173,l),
(388,-181,o),
(369,-185,o),
(352,-185,cs),
(310,-185,o),
(285,-164,o),
(285,-128,cs),
(285,-87,o),
(317,-47,o),
(389,0,c),
(434,12,o),
(475,36,o),
(509,71,c),
(458,116,l),
(425,77,o),
(372,54,o),
(315,54,cs),
(219,54,o),
(143,128,o),
(136,228,c),
(539,228,l),
(539,250,ls),
(539,390,o),
(437,496,o),
(300,496,cs),
(167,496,o),
(65,387,o),
(65,244,cs)
);
},
{
closed = 1;
nodes = (
(152,371,o),
(216,433,o),
(299,433,cs),
(386,433,o),
(454,369,o),
(467,282,c),
(138,282,l)
);
}
);
width = 600;
},
{
layerId = "8560E1E4-71CD-42DE-875E-B4A7223FD06A";
shapes = (
{
closed = 1;
nodes = (
(38,109,o),
(156,-6,o),
(307,-10,c),
(256,-47,o),
(233,-86,o),
(233,-132,cs),
(233,-191,o),
(276,-231,o),
(341,-231,cs),
(377,-231,o),
(412,-222,o),
(434,-208,c),
(414,-138,l),
(404,-145,o),
(387,-149,o),
(369,-149,cs),
(339,-149,o),
(320,-132,o),
(320,-103,cs),
(320,-67,o),
(347,-35,o),
(405,0,c),
(454,12,o),
(497,36,o),
(538,76,c),
(434,169,l),
(408,137,o),
(370,119,o),
(323,119,cs),
(262,119,o),
(213,158,o),
(197,216,c),
(567,216,l),
(567,251,ls),
(567,411,o),
(458,524,o),
(303,524,cs),
(152,524,o),
(38,408,o),
(38,257,cs)
);
},
{
closed = 1;
nodes = (
(213,365,o),
(253,398,o),
(308,398,cs),
(363,398,o),
(403,365,o),
(417,308,c),
(198,308,l)
);
}
);
width = 600;
},
{
layerId = "2B01EBD5-E910-4BCA-BDA7-5B8A0D7F375D";
shapes = (
{
closed = 1;
nodes = (
(72,94,o),
(186,-15,o),
(323,-10,c),
(258,-60,o),
(235,-99,o),
(235,-142,cs),
(235,-193,o),
(273,-231,o),
(341,-231,cs),
(367,-231,o),
(391,-224,o),
(408,-213,c),
(396,-182,l),
(383,-190,o),
(364,-195,o),
(347,-195,cs),
(304,-195,o),
(275,-174,o),
(275,-134,cs),
(275,-97,o),
(301,-56,o),
(385,0,c),
(430,13,o),
(469,37,o),
(501,70,c),
(466,102,l),
(430,60,o),
(373,36,o),
(313,36,cs),
(213,36,o),
(127,119,o),
(122,231,c),
(532,231,l),
(532,250,ls),
(532,384,o),
(431,489,o),
(302,489,cs),
(172,489,o),
(72,381,o),
(72,240,cs)
);
},
{
closed = 1;
nodes = (
(137,372,o),
(209,443,o),
(302,443,cs),
(398,443,o),
(471,369,o),
(481,272,c),
(124,272,l)
);
}
);
width = 600;
}
);
unicode = 281;
},
{
glyphname = f;
kernLeft = t;
kernRight = f;
lastChange = "2024-10-11 15:27:38 +0000";
layers = (
{
layerId = m001;
shapes = (
{
closed = 1;
nodes = (
(289,0,l),
(289,428,l),
(514,428,l),
(514,488,l),
(289,488,l),
(289,574,ls),
(289,646,o),
(323,675,o),
(386,675,cs),
(432,675,o),
(465,669,o),
(514,649,c),
(514,717,l),
(474,731,o),
(433,740,o),
(393,740,cs),
(277,740,o),
(216,687,o),
(216,586,cs),
(216,488,l),
(49,488,l),
(49,428,l),
(216,428,l),
(216,0,l)
);
}
);
width = 600;
},
{
layerId = "8560E1E4-71CD-42DE-875E-B4A7223FD06A";
shapes = (
{
closed = 1;
nodes = (
(352,0,l),
(352,391,l),
(550,391,l),
(550,516,l),
(352,516,l),
(352,550,ls),
(352,615,o),
(375,638,o),
(440,638,cs),
(469,638,o),
(499,636,o),
(550,622,c),
(550,756,l),
(514,766,o),
(462,774,o),
(423,774,cs),
(269,774,o),
(190,704,o),
(190,567,cs),
(190,516,l),
(39,516,l),
(39,391,l),
(190,391,l),
(190,0,l)
);
}
);
width = 600;
},
{
guides = (
{
angle = 270;
pos = (505,523);
userData = {
UFO.identifier = FBF66FLVFe;
};
}
);
layerId = "2B01EBD5-E910-4BCA-BDA7-5B8A0D7F375D";
shapes = (
{
closed = 1;
nodes = (
(273,0,l),
(273,438,l),
(505,438,l),
(505,481,l),
(273,481,l),
(273,589,ls),
(273,663,o),
(309,694,o),
(372,694,cs),
(422,694,o),
(456,687,o),
(505,666,c),
(505,716,l),
(464,731,o),
(425,740,o),
(385,740,cs),
(279,740,o),
(223,692,o),
(223,600,cs),
(223,481,l),
(52,481,l),
(52,438,l),
(223,438,l),
(223,0,l)
);
}
);
width = 600;
}
);
unicode = 102;
},
{
glyphname = g;
kernLeft = o;
kernRight = q;
lastChange = "2024-10-11 15:27:38 +0000";
layers = (
{
anchors = (
{
name = top;
pos = (298,488);
}
);
layerId = m001;
shapes = (
{
closed = 1;
nodes = (
(436,-219,o),
(509,-152,o),
(509,-31,cs),
(509,488,l),
(437,488,l),
(437,425,l),
(398,470,o),
(345,494,o),
(284,494,c),
(155,494,o),
(55,384,o),
(55,244,cs),
(55,104,o),
(153,-6,o),
(280,-6,cs),
(344,-6,o),
(399,19,o),
(436,66,c),
(436,-32,ls),
(436,-114,o),
(389,-157,o),
(300,-157,cs),
(250,-157,o),
(204,-143,o),
(144,-112,c),
(113,-168,l),
(169,-200,o),
(237,-219,o),
(303,-219,cs)
);
},
{
closed = 1;
nodes = (
(200,57,o),
(127,137,o),
(127,244,cs),
(127,351,o),
(200,430,o),
(298,430,c),
(353,430,o),
(404,405,o),
(436,364,c),
(436,123,l),
(405,81,o),
(355,57,o),
(298,57,cs)
);
}
);
width = 600;
},
{
anchors = (
{
name = top;
pos = (298,516);
}
);
layerId = "8560E1E4-71CD-42DE-875E-B4A7223FD06A";
shapes = (
{
closed = 1;
nodes = (
(450,-219,o),
(541,-142,o),
(541,-3,cs),
(541,516,l),
(382,516,l),
(382,465,l),
(350,499,o),
(307,519,o),
(260,519,c),
(133,519,o),
(31,404,o),
(31,259,cs),
(31,114,o),
(128,-3,o),
(248,-3,cs),
(299,-3,o),
(347,19,o),
(380,54,c),
(380,-1,ls),
(380,-64,o),
(345,-96,o),
(278,-96,cs),
(228,-96,o),
(177,-83,o),
(120,-56,c),
(70,-173,l),
(132,-203,o),
(206,-219,o),
(284,-219,cs)
);
},
{
closed = 1;
nodes = (
(232,126,o),
(190,182,o),
(190,258,cs),
(190,335,o),
(231,391,o),
(298,391,c),
(329,391,o),
(357,379,o),
(380,358,c),
(380,160,l),
(357,138,o),
(331,126,o),
(298,126,cs)
);
}
);
width = 600;
},
{
anchors = (
{
name = top;
pos = (298,481);
}
);
layerId = "2B01EBD5-E910-4BCA-BDA7-5B8A0D7F375D";
shapes = (
{
closed = 1;
nodes = (
(432,-219,o),
(501,-155,o),
(501,-39,cs),
(501,481,l),
(451,481,l),
(451,412,l),
(411,461,o),
(355,487,o),
(288,487,c),
(159,487,o),
(60,379,o),
(60,240,cs),
(60,100,o),
(160,-8,o),
(290,-8,cs),
(354,-8,o),
(411,16,o),
(451,64,c),
(451,-41,ls),
(451,-128,o),
(401,-173,o),
(306,-173,cs),
(256,-173,o),
(211,-159,o),
(150,-127,c),
(124,-167,l),
(179,-200,o),
(245,-219,o),
(308,-219,cs)
);
},
{
closed = 1;
nodes = (
(192,38,o),
(110,124,o),
(110,239,cs),
(110,354,o),
(192,441,o),
(298,441,c),
(363,441,o),
(419,412,o),
(451,363,c),
(451,112,l),
(418,65,o),
(360,38,o),
(298,38,cs)
);
}
);
width = 600;
}
);
unicode = 103;
},
{
color = (116,212,255,255);
glyphname = gcommaaccent;
kernLeft = o;
kernRight = q;
lastChange = "2024-10-11 15:27:38 +0000";
layers = (
{
layerId = m001;
shapes = (
{
closed = 1;
nodes = (
(328,797,l),
(259,610,l),
(332,610,l),
(381,797,l)
);
},
{
ref = g;
}
);
width = 600;
},
{
layerId = "8560E1E4-71CD-42DE-875E-B4A7223FD06A";
shapes = (
{
closed = 1;
nodes = (
(303,842,l),
(208,627,l),
(352,627,l),
(415,842,l)
);
},
{
ref = g;
}
);
width = 600;
},
{
layerId = "2B01EBD5-E910-4BCA-BDA7-5B8A0D7F375D";
shapes = (
{
closed = 1;
nodes = (
(335,785,l),
(273,605,l),
(327,605,l),
(372,785,l)
);
},
{
ref = g;
}
);
width = 600;
}
);
unicode = 291;
},
{
glyphname = h;
kernLeft = b;
kernRight = n;
lastChange = "2024-10-11 15:27:38 +0000";
layers = (
{
anchors = (
{
name = top;
pos = (134,700);
}
);
layerId = m001;
shapes = (
{
closed = 1;
nodes = (
(172,0,l),
(172,360,l),
(201,409,o),
(246,435,o),
(300,435,cs),
(380,435,o),
(431,381,o),
(431,295,cs),
(431,0,l),
(504,0,l),
(504,316,ls),
(504,423,o),
(432,496,o),
(327,496,cs),
(262,496,o),
(209,467,o),
(172,409,c),
(172,737,l),
(99,722,l),
(99,0,l)
);
}
);
width = 600;
},
{
anchors = (
{
name = top;
pos = (138,700);
}
);
layerId = "8560E1E4-71CD-42DE-875E-B4A7223FD06A";
shapes = (
{
closed = 1;
nodes = (
(221,0,l),
(221,366,l),
(242,387,o),
(267,397,o),
(297,397,cs),
(349,397,o),
(383,359,o),
(383,301,cs),
(383,0,l),
(545,0,l),
(545,348,ls),
(545,451,o),
(474,524,o),
(374,524,cs),
(312,524,o),
(260,497,o),
(221,446,c),
(221,737,l),
(59,712,l),
(59,0,l)
);
}
);
width = 600;
},
{
anchors = (
{
name = top;
pos = (134,700);
}
);
layerId = "2B01EBD5-E910-4BCA-BDA7-5B8A0D7F375D";
shapes = (
{
closed = 1;
nodes = (
(159,0,l),
(159,360,l),
(187,413,o),
(239,445,o),
(301,445,cs),
(388,445,o),
(444,387,o),
(444,293,cs),
(444,0,l),
(494,0,l),
(494,308,ls),
(494,416,o),
(422,489,o),
(315,489,cs),
(249,489,o),
(196,460,o),
(159,403,c),
(159,737,l),
(109,725,l),
(109,0,l)
);
}
);
width = 600;
}
);
unicode = 104;
},
{
glyphname = hbar;
kernLeft = b;
kernRight = n;
lastChange = "2024-10-11 15:27:38 +0000";
layers = (
{
layerId = m001;
shapes = (
{
closed = 1;
nodes = (
(172,0,l),
(172,360,l),
(201,409,o),
(246,435,o),
(300,435,cs),
(380,435,o),
(431,381,o),
(431,295,cs),
(431,0,l),
(504,0,l),
(504,316,ls),
(504,423,o),
(432,496,o),
(327,496,cs),
(262,496,o),
(209,467,o),
(172,409,c),
(172,573,l),
(301,573,l),
(301,627,l),
(172,627,l),
(172,737,l),
(99,722,l),
(99,627,l),
(21,627,l),
(21,573,l),
(99,573,l),
(99,0,l)
);
}
);
width = 600;
},
{
layerId = "8560E1E4-71CD-42DE-875E-B4A7223FD06A";
shapes = (
{
closed = 1;
nodes = (
(221,0,l),
(221,366,l),
(242,387,o),
(267,397,o),
(297,397,cs),
(349,397,o),
(383,359,o),
(383,301,cs),
(383,0,l),
(545,0,l),
(545,348,ls),
(545,451,o),
(474,524,o),
(374,524,cs),
(312,524,o),
(260,497,o),
(221,446,c),
(221,560,l),
(325,560,l),
(325,648,l),
(221,648,l),
(221,737,l),
(59,712,l),
(59,648,l),
(1,648,l),
(1,560,l),
(59,560,l),
(59,0,l)
);
}
);
width = 600;
},
{
layerId = "2B01EBD5-E910-4BCA-BDA7-5B8A0D7F375D";
shapes = (
{
closed = 1;
nodes = (
(159,0,l),
(159,360,l),
(187,413,o),
(239,445,o),
(301,445,cs),
(388,445,o),
(444,387,o),
(444,293,cs),
(444,0,l),
(494,0,l),
(494,308,ls),
(494,416,o),
(422,489,o),
(315,489,cs),
(249,489,o),
(196,460,o),
(159,403,c),
(159,576,l),
(315,576,l),
(315,616,l),
(159,616,l),
(159,737,l),
(109,725,l),
(109,616,l),
(27,616,l),
(27,576,l),
(109,576,l),
(109,0,l)
);
}
);
width = 600;
}
);
unicode = 295;
},
{
glyphname = i;
kernLeft = b;
kernRight = d;
lastChange = "2024-10-11 15:27:38 +0000";
layers = (
{
anchors = (
{
name = bottom;
pos = (479,0);
},
{
name = top;
pos = (293,488);
}
);
layerId = m001;
shapes = (
{
closed = 1;
nodes = (
(328,604,o),
(356,632,o),
(356,666,cs),
(356,700,o),
(328,728,o),
(293,728,cs),
(258,728,o),
(230,700,o),
(230,666,cs),
(230,632,o),
(258,604,o),
(293,604,cs)
);
},
{
closed = 1;
nodes = (
(452,-10,o),
(490,-1,o),
(529,13,c),
(529,79,l),
(485,62,o),
(450,55,o),
(416,55,cs),
(359,55,o),
(329,80,o),
(329,141,cs),
(329,488,l),
(75,488,l),
(75,428,l),
(256,428,l),
(256,134,ls),
(256,38,o),
(312,-10,o),
(415,-10,cs)
);
}
);
width = 600;
},
{
anchors = (
{
name = bottom;
pos = (512,0);
},
{
name = top;
pos = (305,516);
}
);
layerId = "8560E1E4-71CD-42DE-875E-B4A7223FD06A";
shapes = (
{
closed = 1;
nodes = (
(357,594,o),
(403,640,o),
(403,696,cs),
(403,752,o),
(357,798,o),
(301,798,cs),
(245,798,o),
(199,752,o),
(199,696,cs),
(199,640,o),
(245,594,o),
(301,594,cs)
);
},
{
closed = 1;
nodes = (
(481,-10,o),
(536,2,o),
(558,13,c),
(558,144,l),
(525,130,o),
(499,126,o),
(470,126,cs),
(408,126,o),
(382,151,o),
(382,209,cs),
(382,516,l),
(42,516,l),
(42,391,l),
(220,391,l),
(220,192,ls),
(220,58,o),
(294,-10,o),
(437,-10,cs)
);
}
);
width = 600;
},
{
anchors = (
{
name = bottom;
pos = (469,0);
},
{
name = top;
pos = (293,481);
}
);
layerId = "2B01EBD5-E910-4BCA-BDA7-5B8A0D7F375D";
shapes = (
{
closed = 1;
nodes = (
(321,602,o),
(344,627,o),
(344,657,cs),
(344,687,o),
(321,712,o),
(291,712,cs),
(261,712,o),
(238,687,o),
(238,657,cs),
(238,627,o),
(261,602,o),
(291,602,cs)
);
},
{
closed = 1;
nodes = (
(440,-10,o),
(468,-6,o),
(505,5,c),
(505,50,l),
(463,38,o),
(438,35,o),
(411,35,cs),
(350,35,o),
(316,64,o),
(316,121,cs),
(316,481,l),
(85,481,l),
(85,438,l),
(266,438,l),
(266,119,ls),
(266,37,o),
(320,-10,o),
(411,-10,cs)
);
}
);
width = 600;
}
);
note = "Version created Wed Nov 11 16:21:20 2020";
unicode = 105;
},
{
glyphname = idotless;
kernLeft = n;
kernRight = q;
lastChange = "2024-11-06 16:16:18 +0000";
layers = (
{
anchors = (
{
name = bottom;
pos = (509,0);
},
{
name = top;
pos = (293,488);
}
);
layerId = m001;
shapes = (
{
closed = 1;
nodes = (
(452,-10,o),
(490,-1,o),
(529,13,c),
(529,79,l),
(485,62,o),
(450,55,o),
(416,55,cs),
(359,55,o),
(329,80,o),
(329,141,cs),
(329,488,l),
(75,488,l),
(75,428,l),
(256,428,l),
(256,134,ls),
(256,38,o),
(312,-10,o),
(415,-10,cs)
);
}
);
width = 600;
},
{
anchors = (
{
name = bottom;
pos = (512,0);
},
{
name = top;
pos = (305,516);
}
);
layerId = "8560E1E4-71CD-42DE-875E-B4A7223FD06A";
shapes = (
{
closed = 1;
nodes = (
(479,-10,o),
(536,0,o),
(558,11,c),
(558,142,l),
(524,128,o),
(496,126,o),
(466,126,cs),
(404,126,o),
(382,149,o),
(382,214,cs),
(382,516,l),
(42,516,l),
(42,391,l),
(220,391,l),
(220,182,ls),
(220,55,o),
(293,-10,o),
(434,-10,cs)
);
}
);
width = 600;
},
{
anchors = (
{
name = bottom;
pos = (469,0);
},
{
name = top;
pos = (293,481);
}
);
layerId = "2B01EBD5-E910-4BCA-BDA7-5B8A0D7F375D";
shapes = (
{
closed = 1;
nodes = (
(440,-10,o),
(468,-4,o),
(505,7,c),
(505,53,l),
(463,41,o),
(438,36,o),
(411,36,cs),
(350,36,o),
(316,65,o),
(316,122,cs),
(316,481,l),
(85,481,l),
(85,438,l),
(266,438,l),
(266,119,ls),
(266,37,o),
(320,-10,o),
(411,-10,cs)
);
}
);
width = 600;
}
);
note = "Version created Wed Nov 11 16:21:20 2020";
unicode = 305;
},
{
color = 0;
glyphname = iogonek;
kernLeft = b;
kernRight = d;
lastChange = "2024-11-06 19:51:56 +0000";
layers = (
{
layerId = m001;
shapes = (
{
closed = 1;
nodes = (
(328,604,o),
(356,632,o),
(356,666,cs),
(356,700,o),
(328,728,o),
(293,728,cs),
(258,728,o),
(230,700,o),
(230,666,cs),
(230,632,o),
(258,604,o),
(293,604,cs)
);
},
{
closed = 1;
nodes = (
(458,-231,o),
(485,-224,o),
(504,-212,c),
(490,-173,l),
(478,-181,o),
(459,-185,o),
(442,-185,cs),
(400,-185,o),
(375,-164,o),
(375,-128,cs),
(375,-88,o),
(406,-49,o),
(474,-3,c),
(492,1,o),
(511,6,o),
(529,13,c),
(529,79,l),
(485,62,o),
(450,55,o),
(416,55,cs),
(359,55,o),
(329,80,o),
(329,141,cs),
(329,488,l),
(75,488,l),
(75,428,l),
(256,428,l),
(256,134,ls),
(256,39,o),
(310,-9,o),
(410,-10,c),
(350,-56,o),
(325,-94,o),
(325,-140,cs),
(325,-195,o),
(367,-231,o),
(431,-231,cs)
);
}
);
width = 600;
},
{
layerId = "8560E1E4-71CD-42DE-875E-B4A7223FD06A";
shapes = (
{
closed = 1;
nodes = (
(357,594,o),
(403,640,o),
(403,696,cs),
(403,752,o),
(357,798,o),
(301,798,cs),
(245,798,o),
(199,752,o),
(199,696,cs),
(199,640,o),
(245,594,o),
(301,594,cs)
);
},
{
closed = 1;
nodes = (
(490,-231,o),
(525,-222,o),
(547,-208,c),
(527,-138,l),
(517,-145,o),
(500,-149,o),
(482,-149,cs),
(452,-149,o),
(433,-132,o),
(433,-103,cs),
(433,-67,o),
(460,-35,o),
(518,0,c),
(535,4,o),
(549,9,o),
(558,13,c),
(558,144,l),
(525,130,o),
(499,126,o),
(470,126,cs),
(408,126,o),
(382,151,o),
(382,209,cs),
(382,516,l),
(42,516,l),
(42,391,l),
(220,391,l),
(220,192,ls),
(220,63,o),
(288,-5,o),
(421,-10,c),
(369,-47,o),
(346,-86,o),
(346,-132,cs),
(346,-191,o),
(389,-231,o),
(454,-231,cs)
);
}
);
width = 600;
},
{
layerId = "2B01EBD5-E910-4BCA-BDA7-5B8A0D7F375D";
shapes = (
{
closed = 1;
nodes = (
(321,602,o),
(344,627,o),
(344,657,cs),
(344,687,o),
(321,712,o),
(291,712,cs),
(261,712,o),
(238,687,o),
(238,657,cs),
(238,627,o),
(261,602,o),
(291,602,cs)
);
},
{
closed = 1;
nodes = (
(451,-231,o),
(475,-224,o),
(492,-213,c),
(480,-182,l),
(467,-190,o),
(448,-195,o),
(431,-195,cs),
(388,-195,o),
(359,-174,o),
(359,-134,cs),
(359,-98,o),
(383,-59,o),
(461,-6,c),
(474,-3,o),
(491,1,o),
(505,5,c),
(505,50,l),
(463,38,o),
(438,35,o),
(411,35,cs),
(350,35,o),
(316,64,o),
(316,121,cs),
(316,481,l),
(85,481,l),
(85,438,l),
(266,438,l),
(266,119,ls),
(266,38,o),
(318,-9,o),
(407,-10,c),
(342,-60,o),
(319,-99,o),
(319,-142,cs),
(319,-193,o),
(357,-231,o),
(425,-231,cs)
);
}
);
width = 600;
}
);
unicode = 303;
},
{
glyphname = ij;
kernLeft = b;
kernRight = d;
lastChange = "2024-10-11 15:27:38 +0000";
layers = (
{
layerId = m001;
shapes = (
{
closed = 1;
nodes = (
(204,0,l),
(204,488,l),
(131,488,l),
(131,0,l)
);
},
{
closed = 1;
nodes = (
(426,-219,o),
(469,-173,o),
(469,-94,cs),
(469,488,l),
(396,488,l),
(396,-90,ls),
(396,-135,o),
(379,-154,o),
(337,-154,cs),
(323,-154,o),
(313,-153,o),
(301,-150,c),
(301,-213,l),
(314,-216,o),
(330,-219,o),
(346,-219,cs)
);
},
{
closed = 1;
nodes = (
(230,700,o),
(202,728,o),
(167,728,cs),
(132,728,o),
(104,700,o),
(104,666,cs),
(104,632,o),
(132,604,o),
(167,604,cs),
(202,604,o),
(230,632,o),
(230,666,cs)
);
},
{
closed = 1;
nodes = (
(496,700,o),
(468,728,o),
(433,728,cs),
(398,728,o),
(370,700,o),
(370,666,cs),
(370,632,o),
(398,604,o),
(433,604,cs),
(468,604,o),
(496,632,o),
(496,666,cs)
);
}
);
width = 600;
},
{
layerId = "8560E1E4-71CD-42DE-875E-B4A7223FD06A";
shapes = (
{
closed = 1;
nodes = (
(240,0,l),
(240,516,l),
(78,516,l),
(78,0,l)
);
},
{
closed = 1;
nodes = (
(456,-219,o),
(521,-157,o),
(521,-28,cs),
(521,516,l),
(359,516,l),
(359,-18,ls),
(359,-60,o),
(340,-81,o),
(305,-81,cs),
(290,-81,o),
(270,-80,o),
(243,-72,c),
(243,-207,l),
(268,-214,o),
(302,-219,o),
(327,-219,cs)
);
},
{
closed = 1;
nodes = (
(261,752,o),
(215,798,o),
(159,798,cs),
(103,798,o),
(57,752,o),
(57,696,cs),
(57,640,o),
(103,594,o),
(159,594,cs),
(215,594,o),
(261,640,o),
(261,696,cs)
);
},
{
closed = 1;
nodes = (
(543,752,o),
(497,798,o),
(441,798,cs),
(385,798,o),
(339,752,o),
(339,696,cs),
(339,640,o),
(385,594,o),
(441,594,cs),
(497,594,o),
(543,640,o),
(543,696,cs)
);
}
);
width = 600;
},
{
layerId = "2B01EBD5-E910-4BCA-BDA7-5B8A0D7F375D";
shapes = (
{
closed = 1;
nodes = (
(195,0,l),
(195,481,l),
(145,481,l),
(145,0,l)
);
},
{
closed = 1;
nodes = (
(418,-219,o),
(456,-177,o),
(456,-105,cs),
(456,481,l),
(406,481,l),
(406,-102,ls),
(406,-151,o),
(389,-173,o),
(345,-173,cs),
(332,-173,o),
(323,-171,o),
(312,-167,c),
(312,-215,l),
(324,-218,o),
(334,-219,o),
(348,-219,cs)
);
},
{
closed = 1;
nodes = (
(223,687,o),
(200,712,o),
(170,712,cs),
(140,712,o),
(117,687,o),
(117,657,cs),
(117,627,o),
(140,602,o),
(170,602,cs),
(200,602,o),
(223,627,o),
(223,657,cs)
);
},
{
closed = 1;
nodes = (
(483,687,o),
(460,712,o),
(430,712,cs),
(400,712,o),
(377,687,o),
(377,657,cs),
(377,627,o),
(400,602,o),
(430,602,cs),
(460,602,o),
(483,627,o),
(483,657,cs)
);
}
);
width = 600;
}
);
unicode = 307;
},
{
glyphname = j;
kernLeft = b;
kernRight = d;
lastChange = "2024-10-11 15:27:38 +0000";
layers = (
{
layerId = m001;
shapes = (
{
closed = 1;
nodes = (
(420,604,o),
(448,632,o),
(448,666,cs),
(448,700,o),
(420,728,o),
(385,728,cs),
(350,728,o),
(322,700,o),
(322,666,cs),
(322,632,o),
(350,604,o),
(385,604,cs)
);
},
{
closed = 1;
nodes = (
(357,-219,o),
(421,-165,o),
(421,-59,cs),
(421,488,l),
(97,488,l),
(97,428,l),
(348,428,l),
(348,-46,ls),
(348,-123,o),
(311,-154,o),
(243,-154,cs),
(191,-154,o),
(154,-147,o),
(97,-124,c),
(97,-193,l),
(143,-209,o),
(189,-219,o),
(233,-219,cs)
);
}
);
userData = {
com.typemytype.robofont.guideline.magnetic.BZpMidTNzw = 5;
com.typemytype.robofont.guideline.magnetic.kQQJujAVWi = 5;
com.typemytype.robofont.guideline.magnetic.m1jFi0uvJE = 5;
com.typemytype.robofont.guideline.magnetic.v1md8oxURh = 5;
com.typemytype.robofont.guideline.magnetic.z3l41rt1yv = 5;
};
width = 600;
},
{
layerId = "8560E1E4-71CD-42DE-875E-B4A7223FD06A";
shapes = (
{
closed = 1;
nodes = (
(447,594,o),
(493,640,o),
(493,696,cs),
(493,752,o),
(447,798,o),
(391,798,cs),
(335,798,o),
(289,752,o),
(289,696,cs),
(289,640,o),
(335,594,o),
(391,594,cs)
);
},
{
closed = 1;
nodes = (
(387,-219,o),
(472,-146,o),
(472,6,cs),
(472,516,l),
(75,516,l),
(75,391,l),
(310,391,l),
(310,27,ls),
(310,-54,o),
(285,-81,o),
(206,-81,cs),
(174,-81,o),
(139,-77,o),
(75,-60,c),
(75,-199,l),
(118,-211,o),
(175,-219,o),
(216,-219,cs)
);
}
);
userData = {
com.typemytype.robofont.guideline.magnetic.BZpMidTNzw = 5;
com.typemytype.robofont.guideline.magnetic.kQQJujAVWi = 5;
com.typemytype.robofont.guideline.magnetic.m1jFi0uvJE = 5;
com.typemytype.robofont.guideline.magnetic.v1md8oxURh = 5;
com.typemytype.robofont.guideline.magnetic.z3l41rt1yv = 5;
};
width = 600;
},
{
layerId = "2B01EBD5-E910-4BCA-BDA7-5B8A0D7F375D";
shapes = (
{
closed = 1;
nodes = (
(412,602,o),
(435,627,o),
(435,657,cs),
(435,687,o),
(412,712,o),
(382,712,cs),
(352,712,o),
(329,687,o),
(329,657,cs),
(329,627,o),
(352,602,o),
(382,602,cs)
);
},
{
closed = 1;
nodes = (
(349,-219,o),
(408,-170,o),
(408,-76,cs),
(408,481,l),
(103,481,l),
(103,438,l),
(358,438,l),
(358,-65,ls),
(358,-141,o),
(318,-173,o),
(253,-173,cs),
(195,-173,o),
(158,-165,o),
(103,-141,c),
(103,-191,l),
(150,-208,o),
(193,-219,o),
(237,-219,cs)
);
}
);
userData = {
com.typemytype.robofont.guideline.magnetic.BZpMidTNzw = 5;
com.typemytype.robofont.guideline.magnetic.kQQJujAVWi = 5;
com.typemytype.robofont.guideline.magnetic.m1jFi0uvJE = 5;
com.typemytype.robofont.guideline.magnetic.v1md8oxURh = 5;
com.typemytype.robofont.guideline.magnetic.z3l41rt1yv = 5;
};
width = 600;
}
);
unicode = 106;
},
{
glyphname = jdotless;
kernLeft = n;
kernRight = q;
lastChange = "2024-11-06 16:16:18 +0000";
layers = (
{
anchors = (
{
name = top;
pos = (385,488);
}
);
layerId = m001;
shapes = (
{
closed = 1;
nodes = (
(357,-219,o),
(421,-165,o),
(421,-59,cs),
(421,488,l),
(97,488,l),
(97,428,l),
(348,428,l),
(348,-46,ls),
(348,-123,o),
(311,-154,o),
(243,-154,cs),
(191,-154,o),
(154,-147,o),
(97,-124,c),
(97,-193,l),
(143,-209,o),
(189,-219,o),
(233,-219,cs)
);
}
);
userData = {
com.typemytype.robofont.guideline.magnetic.BZpMidTNzw = 5;
com.typemytype.robofont.guideline.magnetic.kQQJujAVWi = 5;
com.typemytype.robofont.guideline.magnetic.m1jFi0uvJE = 5;
com.typemytype.robofont.guideline.magnetic.v1md8oxURh = 5;
com.typemytype.robofont.guideline.magnetic.z3l41rt1yv = 5;
};
width = 600;
},
{
anchors = (
{
name = top;
pos = (389,516);
}
);
layerId = "8560E1E4-71CD-42DE-875E-B4A7223FD06A";
shapes = (
{
closed = 1;
nodes = (
(387,-219,o),
(472,-146,o),
(472,6,cs),
(472,516,l),
(75,516,l),
(75,391,l),
(310,391,l),
(310,27,ls),
(310,-54,o),
(285,-81,o),
(206,-81,cs),
(174,-81,o),
(139,-77,o),
(75,-60,c),
(75,-199,l),
(118,-211,o),
(175,-219,o),
(216,-219,cs)
);
}
);
userData = {
com.typemytype.robofont.guideline.magnetic.BZpMidTNzw = 5;
com.typemytype.robofont.guideline.magnetic.kQQJujAVWi = 5;
com.typemytype.robofont.guideline.magnetic.m1jFi0uvJE = 5;
com.typemytype.robofont.guideline.magnetic.v1md8oxURh = 5;
com.typemytype.robofont.guideline.magnetic.z3l41rt1yv = 5;
};
width = 600;
},
{
anchors = (
{
name = top;
pos = (384,481);
}
);
layerId = "2B01EBD5-E910-4BCA-BDA7-5B8A0D7F375D";
shapes = (
{
closed = 1;
nodes = (
(349,-219,o),
(408,-170,o),
(408,-76,cs),
(408,481,l),
(103,481,l),
(103,438,l),
(358,438,l),
(358,-65,ls),
(358,-141,o),
(318,-173,o),
(253,-173,cs),
(195,-173,o),
(158,-165,o),
(103,-141,c),
(103,-191,l),
(150,-208,o),
(193,-219,o),
(237,-219,cs)
);
}
);
userData = {
com.typemytype.robofont.guideline.magnetic.BZpMidTNzw = 5;
com.typemytype.robofont.guideline.magnetic.kQQJujAVWi = 5;
com.typemytype.robofont.guideline.magnetic.m1jFi0uvJE = 5;
com.typemytype.robofont.guideline.magnetic.v1md8oxURh = 5;
com.typemytype.robofont.guideline.magnetic.z3l41rt1yv = 5;
};
width = 600;
}
);
unicode = 567;
},
{
glyphname = k;
kernLeft = b;
kernRight = k;
lastChange = "2024-10-11 15:27:38 +0000";
layers = (
{
anchors = (
{
name = bottom;
pos = (306,0);
}
);
layerId = m001;
shapes = (
{
closed = 1;
nodes = (
(186,0,l),
(186,238,l),
(449,0,l),
(547,0,l),
(266,254,l),
(536,488,l),
(444,488,l),
(186,263,l),
(186,737,l),
(113,722,l),
(113,0,l)
);
}
);
width = 600;
},
{
anchors = (
{
name = bottom;
pos = (300,0);
}
);
layerId = "8560E1E4-71CD-42DE-875E-B4A7223FD06A";
shapes = (
{
closed = 1;
nodes = (
(221,0,l),
(221,228,l),
(393,0,l),
(595,0,l),
(370,285,l),
(580,516,l),
(401,516,l),
(221,311,l),
(221,737,l),
(59,714,l),
(59,0,l)
);
}
);
width = 600;
},
{
anchors = (
{
name = bottom;
pos = (308,0);
}
);
layerId = "2B01EBD5-E910-4BCA-BDA7-5B8A0D7F375D";
shapes = (
{
closed = 1;
nodes = (
(177,0,l),
(177,238,l),
(460,0,l),
(534,0,l),
(235,247,l),
(524,481,l),
(456,481,l),
(177,254,l),
(177,737,l),
(127,725,l),
(127,0,l)
);
}
);
width = 600;
}
);
unicode = 107;
},
{
glyphname = kgreenlandic;
kernLeft = n;
kernRight = k;
lastChange = "2024-10-11 15:27:38 +0000";
layers = (
{
layerId = m001;
shapes = (
{
closed = 1;
nodes = (
(186,0,l),
(186,238,l),
(449,0,l),
(547,0,l),
(266,254,l),
(536,488,l),
(444,488,l),
(186,263,l),
(186,488,l),
(113,488,l),
(113,0,l)
);
}
);
width = 600;
},
{
layerId = "8560E1E4-71CD-42DE-875E-B4A7223FD06A";
shapes = (
{
closed = 1;
nodes = (
(221,0,l),
(221,228,l),
(393,0,l),
(595,0,l),
(370,285,l),
(580,516,l),
(401,516,l),
(221,311,l),
(221,516,l),
(59,516,l),
(59,0,l)
);
}
);
width = 600;
},
{
layerId = "2B01EBD5-E910-4BCA-BDA7-5B8A0D7F375D";
shapes = (
{
closed = 1;
nodes = (
(177,0,l),
(177,238,l),
(463,0,l),
(534,0,l),
(234,247,l),
(524,481,l),
(456,481,l),
(177,254,l),
(177,481,l),
(127,481,l),
(127,0,l)
);
}
);
width = 600;
}
);
unicode = 312;
},
{
glyphname = l;
kernLeft = b;
kernRight = d;
lastChange = "2024-11-07 13:16:19 +0000";
layers = (
{
anchors = (
{
name = bottom;
pos = (380,0);
},
{
name = top;
pos = (290,700);
}
);
layerId = m001;
shapes = (
{
closed = 1;
nodes = (
(452,-10,o),
(490,-1,o),
(529,13,c),
(529,79,l),
(485,62,o),
(450,55,o),
(416,55,cs),
(359,55,o),
(329,80,o),
(329,141,cs),
(329,727,l),
(75,727,l),
(75,667,l),
(256,667,l),
(256,134,ls),
(256,38,o),
(312,-10,o),
(415,-10,cs)
);
}
);
width = 600;
},
{
anchors = (
{
name = bottom;
pos = (393,0);
},
{
name = top;
pos = (285,700);
}
);
layerId = "8560E1E4-71CD-42DE-875E-B4A7223FD06A";
shapes = (
{
closed = 1;
nodes = (
(466,-10,o),
(521,2,o),
(543,13,c),
(543,144,l),
(510,130,o),
(484,126,o),
(455,126,cs),
(393,126,o),
(367,151,o),
(367,209,cs),
(367,727,l),
(27,727,l),
(27,602,l),
(205,602,l),
(205,192,ls),
(205,58,o),
(279,-10,o),
(422,-10,cs)
);
}
);
width = 600;
},
{
anchors = (
{
name = bottom;
pos = (400,0);
},
{
name = top;
pos = (291,700);
}
);
guides = (
{
angle = 90;
pos = (291,120);
userData = {
UFO.identifier = 3MgRrIkslN;
};
}
);
layerId = "2B01EBD5-E910-4BCA-BDA7-5B8A0D7F375D";
shapes = (
{
closed = 1;
nodes = (
(440,-10,o),
(468,-6,o),
(505,5,c),
(505,50,l),
(463,38,o),
(438,35,o),
(411,35,cs),
(350,35,o),
(316,64,o),
(316,121,cs),
(316,727,l),
(85,727,l),
(85,684,l),
(266,684,l),
(266,119,ls),
(266,37,o),
(320,-10,o),
(411,-10,cs)
);
}
);
width = 600;
}
);
unicode = 108;
},
{
glyphname = lslash;
kernLeft = b;
lastChange = "2024-10-11 15:27:38 +0000";
layers = (
{
layerId = m001;
shapes = (
{
closed = 1;
nodes = (
(452,-10,o),
(490,-1,o),
(529,13,c),
(529,79,l),
(485,62,o),
(450,55,o),
(416,55,cs),
(359,55,o),
(329,80,o),
(329,141,cs),
(329,339,l),
(514,443,l),
(514,513,l),
(329,409,l),
(329,727,l),
(75,727,l),
(75,667,l),
(256,667,l),
(256,370,l),
(88,275,l),
(88,205,l),
(256,300,l),
(256,134,ls),
(256,38,o),
(312,-10,o),
(415,-10,cs)
);
}
);
width = 600;
},
{
layerId = "8560E1E4-71CD-42DE-875E-B4A7223FD06A";
shapes = (
{
closed = 1;
nodes = (
(466,-10,o),
(521,2,o),
(543,13,c),
(543,144,l),
(510,130,o),
(484,126,o),
(455,126,cs),
(393,126,o),
(367,151,o),
(367,209,cs),
(367,321,l),
(559,406,l),
(559,543,l),
(367,457,l),
(367,727,l),
(27,727,l),
(27,602,l),
(205,602,l),
(205,387,l),
(44,316,l),
(44,180,l),
(205,251,l),
(205,192,ls),
(205,58,o),
(279,-10,o),
(422,-10,cs)
);
}
);
width = 600;
},
{
guides = (
{
angle = 90;
pos = (96,286);
userData = {
UFO.identifier = dP8aFtIfYJ;
};
}
);
layerId = "2B01EBD5-E910-4BCA-BDA7-5B8A0D7F375D";
shapes = (
{
closed = 1;
nodes = (
(440,-10,o),
(468,-6,o),
(505,5,c),
(505,50,l),
(463,38,o),
(438,35,o),
(411,35,cs),
(350,35,o),
(316,64,o),
(316,121,cs),
(316,324,l),
(508,440,l),
(508,489,l),
(316,373,l),
(316,727,l),
(85,727,l),
(85,684,l),
(266,684,l),
(266,346,l),
(106,249,l),
(106,200,l),
(266,297,l),
(266,119,ls),
(266,37,o),
(320,-10,o),
(411,-10,cs)
);
}
);
width = 600;
}
);
unicode = 322;
},
{
glyphname = m;
kernLeft = n;
kernRight = n;
lastChange = "2024-10-11 15:27:38 +0000";
layers = (
{
layerId = m001;
shapes = (
{
closed = 1;
nodes = (
(135,0,l),
(135,403,l),
(154,432,o),
(175,440,o),
(198,440,c),
(244,440,o),
(270,404,o),
(270,347,c),
(270,0,l),
(337,0,l),
(337,365,ls),
(337,377,o),
(336,388,o),
(334,399,c),
(354,431,o),
(375,440,o),
(400,440,c),
(445,440,o),
(470,404,o),
(470,347,c),
(470,0,l),
(537,0,l),
(537,365,ls),
(537,442,o),
(492,495,o),
(427,495,c),
(381,495,o),
(347,477,o),
(320,436,c),
(301,473,o),
(266,495,o),
(224,495,c),
(187,495,o),
(159,480,o),
(135,446,c),
(135,488,l),
(67,488,l),
(67,0,l)
);
}
);
userData = {
com.typemytype.robofont.guideline.showMeasurements.wYGR65QraW = 1;
};
width = 600;
},
{
layerId = "8560E1E4-71CD-42DE-875E-B4A7223FD06A";
shapes = (
{
closed = 1;
nodes = (
(164,0,l),
(164,398,l),
(173,405,o),
(182,407,o),
(192,407,c),
(218,407,o),
(234,384,o),
(234,350,c),
(234,0,l),
(366,0,l),
(366,383,ls),
(366,388,o),
(366,393,o),
(366,397,c),
(374,404,o),
(383,407,o),
(394,407,c),
(421,407,o),
(436,384,o),
(436,350,c),
(436,0,l),
(568,0,l),
(568,393,ls),
(568,470,o),
(521,524,o),
(454,524,c),
(410,524,o),
(375,503,o),
(348,463,c),
(329,501,o),
(294,524,o),
(251,524,c),
(216,524,o),
(188,506,o),
(164,473,c),
(164,516,l),
(32,516,l),
(32,0,l)
);
}
);
userData = {
com.typemytype.robofont.guideline.showMeasurements.wYGR65QraW = 1;
};
width = 600;
},
{
guides = (
{
pos = (74,214);
userData = {
UFO.identifier = wYGR65QraW;
};
}
);
layerId = "2B01EBD5-E910-4BCA-BDA7-5B8A0D7F375D";
shapes = (
{
closed = 1;
nodes = (
(126,0,l),
(126,402,l),
(147,439,o),
(172,449,o),
(200,449,c),
(251,449,o),
(280,411,o),
(280,348,c),
(280,0,l),
(329,0,l),
(329,362,ls),
(329,375,o),
(328,387,o),
(325,398,c),
(346,439,o),
(372,449,o),
(401,449,c),
(452,449,o),
(479,411,o),
(479,348,c),
(479,0,l),
(528,0,l),
(528,359,ls),
(528,436,o),
(483,489,o),
(419,489,c),
(373,489,o),
(339,472,o),
(312,432,c),
(293,467,o),
(259,489,o),
(217,489,c),
(179,489,o),
(150,475,o),
(126,440,c),
(126,481,l),
(77,481,l),
(77,0,l)
);
}
);
userData = {
com.typemytype.robofont.guideline.showMeasurements.wYGR65QraW = 1;
};
width = 600;
}
);
unicode = 109;
},
{
glyphname = n;
kernLeft = n;
kernRight = n;
lastChange = "2024-10-11 15:27:38 +0000";
layers = (
{
anchors = (
{
name = bottom;
pos = (300,0);
},
{
name = top;
pos = (300,488);
}
);
layerId = m001;
shapes = (
{
closed = 1;
nodes = (
(172,0,l),
(172,360,l),
(201,409,o),
(246,435,o),
(300,435,cs),
(380,435,o),
(431,381,o),
(431,295,cs),
(431,0,l),
(504,0,l),
(504,316,ls),
(504,423,o),
(432,496,o),
(327,496,cs),
(262,496,o),
(209,467,o),
(172,409,c),
(172,488,l),
(99,488,l),
(99,0,l)
);
}
);
width = 600;
},
{
anchors = (
{
name = bottom;
pos = (300,0);
},
{
name = top;
pos = (300,516);
}
);
layerId = "8560E1E4-71CD-42DE-875E-B4A7223FD06A";
shapes = (
{
closed = 1;
nodes = (
(221,0,l),
(221,366,l),
(242,387,o),
(267,397,o),
(297,397,cs),
(349,397,o),
(383,359,o),
(383,301,cs),
(383,0,l),
(545,0,l),
(545,348,ls),
(545,451,o),
(474,524,o),
(374,524,cs),
(312,524,o),
(260,497,o),
(221,446,c),
(221,516,l),
(59,516,l),
(59,0,l)
);
}
);
width = 600;
},
{
anchors = (
{
name = bottom;
pos = (300,0);
},
{
name = top;
pos = (300,481);
}
);
layerId = "2B01EBD5-E910-4BCA-BDA7-5B8A0D7F375D";
shapes = (
{
closed = 1;
nodes = (
(159,0,l),
(159,360,l),
(187,413,o),
(239,445,o),
(301,445,cs),
(388,445,o),
(444,387,o),
(444,293,cs),
(444,0,l),
(494,0,l),
(494,308,ls),
(494,416,o),
(422,489,o),
(315,489,cs),
(249,489,o),
(196,460,o),
(159,403,c),
(159,481,l),
(109,481,l),
(109,0,l)
);
}
);
width = 600;
}
);
unicode = 110;
},
{
glyphname = eng;
kernLeft = n;
kernRight = n;
lastChange = "2024-10-11 15:27:38 +0000";
layers = (
{
layerId = m001;
shapes = (
{
closed = 1;
nodes = (
(456,-219,o),
(504,-174,o),
(504,-93,cs),
(504,316,ls),
(504,423,o),
(432,496,o),
(327,496,cs),
(262,496,o),
(209,467,o),
(172,409,c),
(172,488,l),
(99,488,l),
(99,0,l),
(172,0,l),
(172,360,l),
(201,409,o),
(246,435,o),
(300,435,cs),
(380,435,o),
(431,381,o),
(431,295,cs),
(431,-89,ls),
(431,-134,o),
(411,-153,o),
(361,-153,cs),
(344,-153,o),
(332,-152,o),
(306,-146,c),
(306,-212,l),
(332,-217,o),
(352,-219,o),
(370,-219,cs)
);
}
);
width = 600;
},
{
layerId = "8560E1E4-71CD-42DE-875E-B4A7223FD06A";
shapes = (
{
closed = 1;
nodes = (
(481,-219,o),
(545,-159,o),
(545,-52,cs),
(545,348,ls),
(545,451,o),
(474,524,o),
(374,524,cs),
(312,524,o),
(260,497,o),
(221,446,c),
(221,516,l),
(59,516,l),
(59,0,l),
(221,0,l),
(221,366,l),
(242,387,o),
(267,397,o),
(297,397,cs),
(349,397,o),
(383,359,o),
(383,301,cs),
(383,-42,ls),
(383,-72,o),
(367,-86,o),
(333,-86,cs),
(314,-86,o),
(301,-85,o),
(287,-82,c),
(287,-209,l),
(304,-215,o),
(340,-219,o),
(367,-219,cs)
);
}
);
width = 600;
},
{
layerId = "2B01EBD5-E910-4BCA-BDA7-5B8A0D7F375D";
shapes = (
{
closed = 1;
nodes = (
(450,-219,o),
(494,-178,o),
(494,-103,cs),
(494,308,ls),
(494,416,o),
(422,489,o),
(315,489,cs),
(249,489,o),
(196,460,o),
(159,403,c),
(159,481,l),
(109,481,l),
(109,0,l),
(159,0,l),
(159,360,l),
(187,413,o),
(239,445,o),
(301,445,cs),
(388,445,o),
(444,387,o),
(444,293,cs),
(444,-101,ls),
(444,-152,o),
(423,-173,o),
(368,-173,cs),
(346,-173,o),
(331,-170,o),
(311,-164,c),
(311,-212,l),
(339,-217,o),
(355,-219,o),
(371,-219,cs)
);
}
);
width = 600;
}
);
unicode = 331;
},
{
glyphname = o;
kernLeft = o;
kernRight = o;
lastChange = "2024-10-11 15:27:38 +0000";
layers = (
{
anchors = (
{
name = top;
pos = (300,488);
}
);
layerId = m001;
shapes = (
{
closed = 1;
nodes = (
(434,-10,o),
(537,99,o),
(537,243,cs),
(537,387,o),
(434,496,o),
(300,496,cs),
(166,496,o),
(63,387,o),
(63,243,cs),
(63,99,o),
(166,-10,o),
(300,-10,cs)
);
},
{
closed = 1;
nodes = (
(205,55,o),
(135,134,o),
(135,243,cs),
(135,352,o),
(205,431,o),
(300,431,cs),
(395,431,o),
(465,352,o),
(465,243,cs),
(465,134,o),
(395,55,o),
(300,55,cs)
);
}
);
width = 600;
},
{
anchors = (
{
name = top;
pos = (300,516);
}
);
layerId = "8560E1E4-71CD-42DE-875E-B4A7223FD06A";
shapes = (
{
closed = 1;
nodes = (
(453,-10,o),
(569,106,o),
(569,257,cs),
(569,408,o),
(453,524,o),
(300,524,cs),
(147,524,o),
(31,408,o),
(31,257,cs),
(31,106,o),
(147,-10,o),
(300,-10,cs)
);
},
{
closed = 1;
nodes = (
(235,126,o),
(189,181,o),
(189,257,cs),
(189,333,o),
(235,388,o),
(300,388,cs),
(365,388,o),
(411,333,o),
(411,257,cs),
(411,181,o),
(365,126,o),
(300,126,cs)
);
}
);
width = 600;
},
{
anchors = (
{
name = top;
pos = (300,481);
}
);
layerId = "2B01EBD5-E910-4BCA-BDA7-5B8A0D7F375D";
shapes = (
{
closed = 1;
nodes = (
(430,-10,o),
(530,98,o),
(530,240,cs),
(530,381,o),
(430,489,o),
(300,489,cs),
(170,489,o),
(70,381,o),
(70,240,cs),
(70,98,o),
(170,-10,o),
(300,-10,cs)
);
},
{
closed = 1;
nodes = (
(197,36,o),
(120,123,o),
(120,240,cs),
(120,356,o),
(197,443,o),
(300,443,cs),
(403,443,o),
(480,356,o),
(480,240,cs),
(480,123,o),
(403,36,o),
(300,36,cs)
);
}
);
width = 600;
}
);
unicode = 111;
},
{
glyphname = oslash;
kernLeft = o;
kernRight = o;
lastChange = "2024-10-11 15:27:38 +0000";
layers = (
{
layerId = m001;
shapes = (
{
closed = 1;
nodes = (
(138,0,l),
(165,33,l),
(203,6,o),
(249,-10,o),
(300,-10,cs),
(434,-10,o),
(537,99,o),
(537,243,cs),
(537,311,o),
(514,371,o),
(476,416,c),
(534,488,l),
(463,488,l),
(435,453,l),
(397,480,o),
(351,496,o),
(300,496,cs),
(166,496,o),
(63,387,o),
(63,243,cs),
(63,175,o),
(86,115,o),
(124,70,c),
(67,0,l)
);
},
{
closed = 1;
nodes = (
(147,157,o),
(135,197,o),
(135,243,cs),
(135,352,o),
(205,431,o),
(300,431,cs),
(335,431,o),
(367,420,o),
(393,401,c),
(169,125,l)
);
},
{
closed = 1;
nodes = (
(265,55,o),
(233,66,o),
(207,85,c),
(431,361,l),
(453,330,o),
(465,289,o),
(465,243,cs),
(465,134,o),
(395,55,o),
(300,55,cs)
);
}
);
width = 600;
},
{
layerId = "8560E1E4-71CD-42DE-875E-B4A7223FD06A";
shapes = (
{
closed = 1;
nodes = (
(130,0,l),
(155,30,l),
(197,4,o),
(246,-10,o),
(300,-10,cs),
(453,-10,o),
(569,106,o),
(569,257,cs),
(569,327,o),
(544,389,o),
(503,435,c),
(572,516,l),
(470,516,l),
(443,485,l),
(402,510,o),
(353,524,o),
(300,524,cs),
(147,524,o),
(31,408,o),
(31,257,cs),
(31,188,o),
(55,126,o),
(96,80,c),
(28,0,l)
);
},
{
closed = 1;
nodes = (
(193,217,o),
(189,236,o),
(189,257,cs),
(189,333,o),
(235,388,o),
(300,388,cs),
(318,388,o),
(335,384,o),
(350,376,c),
(199,200,l)
);
},
{
closed = 1;
nodes = (
(281,126,o),
(264,131,o),
(249,139,c),
(401,316,l),
(407,298,o),
(411,279,o),
(411,257,cs),
(411,181,o),
(365,126,o),
(300,126,cs)
);
}
);
width = 600;
},
{
layerId = "2B01EBD5-E910-4BCA-BDA7-5B8A0D7F375D";
shapes = (
{
closed = 1;
nodes = (
(132,0,l),
(162,37,l),
(200,7,o),
(248,-10,o),
(300,-10,cs),
(430,-10,o),
(530,98,o),
(530,240,cs),
(530,308,o),
(507,368,o),
(468,412,c),
(524,481,l),
(469,481,l),
(437,442,l),
(399,472,o),
(352,489,o),
(300,489,cs),
(170,489,o),
(70,381,o),
(70,240,cs),
(70,172,o),
(93,111,o),
(132,67,c),
(77,0,l)
);
},
{
closed = 1;
nodes = (
(136,140,o),
(120,187,o),
(120,240,cs),
(120,356,o),
(197,443,o),
(300,443,cs),
(341,443,o),
(378,429,o),
(407,405,c),
(163,105,l)
);
},
{
closed = 1;
nodes = (
(259,36,o),
(222,50,o),
(192,74,c),
(437,375,l),
(464,339,o),
(480,293,o),
(480,240,cs),
(480,123,o),
(403,36,o),
(300,36,cs)
);
}
);
width = 600;
}
);
unicode = 248;
},
{
glyphname = oe;
kernLeft = o;
kernRight = e;
lastChange = "2024-10-11 15:27:38 +0000";
layers = (
{
layerId = m001;
shapes = (
{
closed = 1;
nodes = (
(232,-8,o),
(276,30,o),
(303,93,c),
(334,29,o),
(386,-10,o),
(448,-10,cs),
(494,-10,o),
(539,7,o),
(578,39,c),
(539,91,l),
(512,67,o),
(478,54,o),
(449,54,cs),
(387,54,o),
(343,126,o),
(338,228,c),
(581,228,l),
(581,250,ls),
(581,400,o),
(523,496,o),
(434,496,cs),
(378,496,o),
(331,458,o),
(302,397,c),
(275,458,o),
(231,496,o),
(179,496,cs),
(88,496,o),
(21,390,o),
(21,244,cs),
(21,98,o),
(88,-8,o),
(179,-8,cs)
);
},
{
closed = 1;
nodes = (
(482,435,o),
(512,378,o),
(516,280,c),
(339,280,l),
(347,372,o),
(384,435,o),
(434,435,cs)
);
},
{
closed = 1;
nodes = (
(127,54,o),
(90,133,o),
(90,244,cs),
(90,355,o),
(127,434,o),
(179,434,cs),
(231,434,o),
(268,355,o),
(268,244,cs),
(268,133,o),
(231,54,o),
(179,54,cs)
);
}
);
userData = {
com.typemytype.robofont.guideline.showMeasurements.HEBpG9pS7J = 1;
};
width = 600;
},
{
guides = (
{
pos = (447,403);
userData = {
UFO.identifier = HEBpG9pS7J;
};
}
);
layerId = "8560E1E4-71CD-42DE-875E-B4A7223FD06A";
shapes = (
{
closed = 1;
nodes = (
(246,-10,o),
(286,12,o),
(315,52,c),
(349,12,o),
(396,-10,o),
(453,-10,cs),
(507,-10,o),
(554,5,o),
(597,36,c),
(543,145,l),
(520,128,o),
(492,115,o),
(462,115,cs),
(418,115,o),
(393,146,o),
(387,217,c),
(590,217,l),
(590,278,ls),
(590,431,o),
(524,524,o),
(426,524,cs),
(382,524,o),
(343,502,o),
(314,464,c),
(285,502,o),
(246,524,o),
(199,524,cs),
(87,524,o),
(15,420,o),
(15,257,cs),
(15,94,o),
(87,-10,o),
(199,-10,cs)
);
},
{
closed = 1;
nodes = (
(441,402,o),
(454,376,o),
(456,306,c),
(386,306,l),
(390,371,o),
(401,402,o),
(421,402,cs)
);
},
{
closed = 1;
nodes = (
(173,113,o),
(158,161,o),
(158,257,cs),
(158,353,o),
(173,401,o),
(203,401,cs),
(233,401,o),
(248,353,o),
(248,257,cs),
(248,161,o),
(233,113,o),
(203,113,cs)
);
}
);
userData = {
com.typemytype.robofont.guideline.showMeasurements.HEBpG9pS7J = 1;
};
width = 600;
},
{
guides = (
{
pos = (414,290);
userData = {
UFO.identifier = HEBpG9pS7J;
};
}
);
layerId = "2B01EBD5-E910-4BCA-BDA7-5B8A0D7F375D";
shapes = (
{
closed = 1;
nodes = (
(231,-10,o),
(279,32,o),
(306,100,c),
(333,31,o),
(382,-10,o),
(445,-10,cs),
(489,-10,o),
(536,8,o),
(572,40,c),
(542,74,l),
(517,50,o),
(480,34,o),
(448,34,cs),
(380,34,o),
(332,113,o),
(330,231,c),
(578,231,l),
(578,250,ls),
(578,400,o),
(525,489,o),
(435,489,cs),
(379,489,o),
(332,447,o),
(306,378,c),
(279,446,o),
(232,489,o),
(175,489,cs),
(87,489,o),
(22,384,o),
(22,239,cs),
(22,95,o),
(87,-10,o),
(175,-10,cs)
);
},
{
closed = 1;
nodes = (
(493,445,o),
(526,383,o),
(531,272,c),
(331,272,l),
(339,374,o),
(381,445,o),
(436,445,cs)
);
},
{
closed = 1;
nodes = (
(115,34,o),
(70,121,o),
(70,239,cs),
(70,358,o),
(115,445,o),
(176,445,cs),
(237,445,o),
(282,357,o),
(282,239,cs),
(282,122,o),
(237,34,o),
(176,34,cs)
);
}
);
userData = {
com.typemytype.robofont.guideline.showMeasurements.HEBpG9pS7J = 1;
};
width = 600;
}
);
unicode = 339;
},
{
glyphname = p;
kernLeft = n;
kernRight = o;
lastChange = "2024-10-11 15:27:38 +0000";
layers = (
{
layerId = m001;
shapes = (
{
closed = 1;
nodes = (
(163,-209,l),
(163,61,l),
(201,17,o),
(255,-7,o),
(316,-7,c),
(445,-7,o),
(545,103,o),
(545,244,cs),
(545,384,o),
(447,494,o),
(320,494,c),
(255,494,o),
(199,467,o),
(162,418,c),
(162,488,l),
(90,488,l),
(90,-209,l)
);
},
{
closed = 1;
nodes = (
(246,56,o),
(195,81,o),
(163,124,c),
(163,363,l),
(194,406,o),
(244,430,o),
(302,430,c),
(400,430,o),
(473,350,o),
(473,243,cs),
(473,136,o),
(400,56,o),
(302,56,c)
);
}
);
width = 600;
},
{
layerId = "8560E1E4-71CD-42DE-875E-B4A7223FD06A";
shapes = (
{
closed = 1;
nodes = (
(221,-209,l),
(221,43,l),
(253,11,o),
(294,-8,o),
(340,-8,c),
(466,-8,o),
(569,107,o),
(569,258,cs),
(569,409,o),
(466,524,o),
(340,524,c),
(291,524,o),
(248,503,o),
(215,466,c),
(215,516,l),
(59,516,l),
(59,-209,l)
);
},
{
closed = 1;
nodes = (
(271,120,o),
(243,132,o),
(221,152,c),
(221,364,l),
(243,384,o),
(271,396,o),
(302,396,c),
(369,396,o),
(410,341,o),
(410,258,cs),
(410,175,o),
(369,120,o),
(302,120,c)
);
}
);
width = 600;
},
{
layerId = "2B01EBD5-E910-4BCA-BDA7-5B8A0D7F375D";
shapes = (
{
closed = 1;
nodes = (
(149,-209,l),
(149,67,l),
(189,18,o),
(245,-8,o),
(312,-8,c),
(441,-8,o),
(540,100,o),
(540,239,cs),
(540,379,o),
(440,487,o),
(310,487,c),
(246,487,o),
(188,462,o),
(148,414,c),
(148,481,l),
(99,481,l),
(99,-209,l)
);
},
{
closed = 1;
nodes = (
(237,38,o),
(180,67,o),
(149,115,c),
(149,368,l),
(182,415,o),
(240,441,o),
(302,441,c),
(408,441,o),
(490,355,o),
(490,240,cs),
(490,125,o),
(408,38,o),
(302,38,c)
);
}
);
width = 600;
}
);
unicode = 112;
},
{
glyphname = thorn;
kernLeft = b;
kernRight = o;
lastChange = "2024-10-11 15:27:38 +0000";
layers = (
{
layerId = m001;
shapes = (
{
closed = 1;
nodes = (
(163,-209,l),
(163,61,l),
(201,17,o),
(255,-7,o),
(316,-7,cs),
(445,-7,o),
(545,103,o),
(545,244,cs),
(545,384,o),
(447,494,o),
(320,494,cs),
(255,494,o),
(200,467,o),
(163,420,c),
(163,737,l),
(90,722,l),
(90,-209,l)
);
},
{
closed = 1;
nodes = (
(400,430,o),
(473,350,o),
(473,243,cs),
(473,136,o),
(400,56,o),
(302,56,cs),
(246,56,o),
(195,81,o),
(163,124,c),
(163,363,l),
(194,406,o),
(244,430,o),
(302,430,cs)
);
}
);
width = 600;
},
{
layerId = "8560E1E4-71CD-42DE-875E-B4A7223FD06A";
shapes = (
{
closed = 1;
nodes = (
(221,-209,l),
(221,43,l),
(253,11,o),
(294,-8,o),
(340,-8,cs),
(466,-8,o),
(569,107,o),
(569,258,cs),
(569,409,o),
(466,524,o),
(340,524,cs),
(294,524,o),
(253,505,o),
(221,473,c),
(221,737,l),
(59,712,l),
(59,-209,l)
);
},
{
closed = 1;
nodes = (
(369,396,o),
(410,341,o),
(410,258,cs),
(410,175,o),
(369,120,o),
(302,120,cs),
(271,120,o),
(243,132,o),
(221,152,c),
(221,364,l),
(243,384,o),
(271,396,o),
(302,396,cs)
);
}
);
width = 600;
},
{
layerId = "2B01EBD5-E910-4BCA-BDA7-5B8A0D7F375D";
shapes = (
{
closed = 1;
nodes = (
(147,-209,l),
(147,70,l),
(187,19,o),
(243,-8,o),
(312,-8,cs),
(441,-8,o),
(540,100,o),
(540,239,cs),
(540,379,o),
(440,487,o),
(310,487,cs),
(245,487,o),
(187,462,o),
(147,413,c),
(147,737,l),
(97,725,l),
(97,-209,l)
);
},
{
closed = 1;
nodes = (
(408,442,o),
(490,356,o),
(490,240,cs),
(490,124,o),
(408,37,o),
(302,37,cs),
(236,37,o),
(178,67,o),
(147,118,c),
(147,365,l),
(180,414,o),
(239,442,o),
(302,442,cs)
);
}
);
width = 600;
}
);
unicode = 254;
},
{
glyphname = q;
kernLeft = o;
kernRight = q;
lastChange = "2024-10-11 15:27:38 +0000";
layers = (
{
layerId = m001;
shapes = (
{
closed = 1;
nodes = (
(344,-7,o),
(399,18,o),
(436,65,c),
(436,-209,l),
(509,-209,l),
(509,488,l),
(436,488,l),
(436,426,l),
(397,470,o),
(344,494,o),
(284,494,cs),
(155,494,o),
(55,384,o),
(55,243,cs),
(55,103,o),
(153,-7,o),
(280,-7,cs)
);
},
{
closed = 1;
nodes = (
(200,57,o),
(127,137,o),
(127,244,cs),
(127,351,o),
(200,430,o),
(298,430,cs),
(353,430,o),
(404,405,o),
(436,364,c),
(436,122,l),
(405,80,o),
(355,57,o),
(298,57,cs)
);
}
);
width = 600;
},
{
layerId = "8560E1E4-71CD-42DE-875E-B4A7223FD06A";
shapes = (
{
closed = 1;
nodes = (
(306,-8,o),
(347,10,o),
(379,42,c),
(379,-209,l),
(541,-209,l),
(541,516,l),
(385,516,l),
(385,468,l),
(352,503,o),
(309,524,o),
(261,524,cs),
(135,524,o),
(32,409,o),
(32,258,cs),
(32,107,o),
(135,-8,o),
(261,-8,cs)
);
},
{
closed = 1;
nodes = (
(232,120,o),
(191,175,o),
(191,258,cs),
(191,341,o),
(232,396,o),
(299,396,cs),
(329,396,o),
(357,385,o),
(379,365,c),
(379,151,l),
(357,131,o),
(329,120,o),
(299,120,cs)
);
}
);
width = 600;
},
{
layerId = "2B01EBD5-E910-4BCA-BDA7-5B8A0D7F375D";
shapes = (
{
closed = 1;
nodes = (
(354,-8,o),
(411,16,o),
(451,64,c),
(451,-209,l),
(501,-209,l),
(501,481,l),
(451,481,l),
(451,412,l),
(411,461,o),
(355,487,o),
(288,487,cs),
(159,487,o),
(60,379,o),
(60,240,cs),
(60,100,o),
(160,-8,o),
(290,-8,cs)
);
},
{
closed = 1;
nodes = (
(192,38,o),
(110,124,o),
(110,239,cs),
(110,354,o),
(192,441,o),
(298,441,cs),
(363,441,o),
(419,412,o),
(451,363,c),
(451,112,l),
(418,65,o),
(360,38,o),
(298,38,cs)
);
}
);
width = 600;
}
);
unicode = 113;
},
{
glyphname = r;
kernLeft = n;
kernRight = r;
lastChange = "2024-10-11 15:27:38 +0000";
layers = (
{
anchors = (
{
name = bottom;
pos = (265,0);
},
{
name = top;
pos = (372,488);
}
);
layerId = m001;
shapes = (
{
closed = 1;
nodes = (
(442,0,l),
(442,60,l),
(300,60,l),
(300,324,l),
(329,393,o),
(388,432,o),
(460,432,cs),
(489,432,o),
(519,425,o),
(552,414,c),
(552,481,l),
(519,492,o),
(499,496,o),
(468,496,cs),
(390,496,o),
(329,453,o),
(300,379,c),
(300,488,l),
(93,488,l),
(93,428,l),
(227,428,l),
(227,60,l),
(93,60,l),
(93,0,l)
);
}
);
width = 600;
},
{
anchors = (
{
name = bottom;
pos = (248,0);
},
{
name = top;
pos = (394,516);
}
);
layerId = "8560E1E4-71CD-42DE-875E-B4A7223FD06A";
shapes = (
{
closed = 1;
nodes = (
(450,0,l),
(450,125,l),
(332,125,l),
(332,313,l),
(361,356,o),
(414,382,o),
(470,382,cs),
(504,382,o),
(543,376,o),
(568,364,c),
(568,509,l),
(543,521,o),
(529,524,o),
(499,524,cs),
(427,524,o),
(369,480,o),
(332,386,c),
(332,516,l),
(58,516,l),
(58,391,l),
(170,391,l),
(170,125,l),
(58,125,l),
(58,0,l)
);
}
);
width = 600;
},
{
anchors = (
{
name = bottom;
pos = (267,0);
},
{
name = top;
pos = (366,481);
}
);
guides = (
{
angle = 90;
pos = (267,0);
userData = {
UFO.identifier = QxelpK6HVh;
};
}
);
layerId = "2B01EBD5-E910-4BCA-BDA7-5B8A0D7F375D";
shapes = (
{
closed = 1;
nodes = (
(440,0,l),
(440,43,l),
(292,43,l),
(292,327,l),
(321,402,o),
(383,443,o),
(457,443,cs),
(485,443,o),
(513,437,o),
(548,426,c),
(548,473,l),
(513,485,o),
(491,489,o),
(460,489,cs),
(383,489,o),
(321,448,o),
(292,379,c),
(292,481,l),
(102,481,l),
(102,438,l),
(242,438,l),
(242,43,l),
(102,43,l),
(102,0,l)
);
}
);
width = 600;
}
);
unicode = 114;
},
{
glyphname = s;
kernLeft = s;
kernRight = s;
lastChange = "2024-10-11 15:27:38 +0000";
layers = (
{
anchors = (
{
name = bottom;
pos = (296,0);
},
{
name = top;
pos = (285,488);
}
);
layerId = m001;
shapes = (
{
closed = 1;
nodes = (
(413,-10,o),
(502,56,o),
(502,141,cs),
(502,344,o),
(160,225,o),
(160,357,cs),
(160,404,o),
(209,434,o),
(283,434,cs),
(341,434,o),
(398,421,o),
(453,382,c),
(489,435,l),
(423,480,o),
(359,496,o),
(286,496,cs),
(173,496,o),
(93,437,o),
(93,352,cs),
(93,151,o),
(433,272,o),
(433,137,cs),
(433,88,o),
(374,52,o),
(293,52,cs),
(235,52,o),
(181,67,o),
(119,113,c),
(80,62,l),
(131,12,o),
(208,-10,o),
(295,-10,cs)
);
}
);
width = 600;
},
{
anchors = (
{
name = bottom;
pos = (300,0);
},
{
name = top;
pos = (300,516);
}
);
layerId = "8560E1E4-71CD-42DE-875E-B4A7223FD06A";
shapes = (
{
closed = 1;
nodes = (
(435,-10,o),
(542,58,o),
(542,164,cs),
(542,367,o),
(215,299,o),
(215,372,cs),
(215,395,o),
(243,408,o),
(296,408,cs),
(348,408,o),
(403,393,o),
(455,358,c),
(533,457,l),
(465,503,o),
(380,526,o),
(300,526,cs),
(163,526,o),
(73,467,o),
(73,358,cs),
(73,161,o),
(394,226,o),
(394,151,cs),
(394,124,o),
(360,109,o),
(298,109,cs),
(244,109,o),
(198,123,o),
(122,167,c),
(47,63,l),
(108,17,o),
(197,-10,o),
(297,-10,cs)
);
}
);
width = 600;
},
{
anchors = (
{
name = bottom;
pos = (298,0);
},
{
name = top;
pos = (286,481);
}
);
layerId = "2B01EBD5-E910-4BCA-BDA7-5B8A0D7F375D";
shapes = (
{
closed = 1;
nodes = (
(411,-10,o),
(495,47,o),
(495,138,cs),
(495,332,o),
(150,206,o),
(150,352,cs),
(150,407,o),
(202,443,o),
(289,443,cs),
(350,443,o),
(404,426,o),
(455,391,c),
(481,430,l),
(421,472,o),
(363,489,o),
(291,489,cs),
(180,489,o),
(102,437,o),
(102,349,cs),
(102,155,o),
(447,279,o),
(447,135,cs),
(447,73,o),
(383,36,o),
(296,36,cs),
(232,36,o),
(177,56,o),
(123,99,c),
(93,63,l),
(138,15,o),
(209,-10,o),
(298,-10,cs)
);
}
);
width = 600;
}
);
unicode = 115;
},
{
glyphname = scedilla;
kernLeft = s;
kernRight = s;
lastChange = "2024-10-11 15:27:38 +0000";
layers = (
{
layerId = m001;
shapes = (
{
closed = 1;
nodes = (
(353,-239,o),
(399,-200,o),
(399,-146,cs),
(399,-99,o),
(361,-69,o),
(302,-66,c),
(315,-9,l),
(423,-2,o),
(502,61,o),
(502,141,cs),
(502,344,o),
(160,225,o),
(160,357,cs),
(160,404,o),
(209,434,o),
(283,434,cs),
(341,434,o),
(398,421,o),
(453,382,c),
(489,435,l),
(423,480,o),
(359,496,o),
(286,496,cs),
(173,496,o),
(93,437,o),
(93,352,cs),
(93,151,o),
(433,272,o),
(433,137,cs),
(433,88,o),
(374,52,o),
(293,52,cs),
(235,52,o),
(181,67,o),
(119,113,c),
(80,62,l),
(127,16,o),
(195,-6,o),
(273,-9,c),
(250,-99,l),
(279,-99,ls),
(324,-99,o),
(350,-117,o),
(350,-148,cs),
(350,-180,o),
(326,-200,o),
(285,-200,cs),
(256,-200,o),
(229,-190,o),
(206,-171,c),
(178,-203,l),
(205,-227,o),
(243,-239,o),
(288,-239,cs)
);
}
);
width = 600;
},
{
layerId = "8560E1E4-71CD-42DE-875E-B4A7223FD06A";
shapes = (
{
closed = 1;
nodes = (
(375,-254,o),
(432,-206,o),
(432,-144,cs),
(432,-95,o),
(393,-63,o),
(330,-58,c),
(342,-7,l),
(458,6,o),
(542,70,o),
(542,164,cs),
(542,367,o),
(215,299,o),
(215,372,cs),
(215,395,o),
(243,408,o),
(296,408,cs),
(348,408,o),
(403,393,o),
(455,358,c),
(533,457,l),
(465,503,o),
(380,526,o),
(300,526,cs),
(163,526,o),
(73,467,o),
(73,358,cs),
(73,161,o),
(394,226,o),
(394,151,cs),
(394,124,o),
(360,109,o),
(298,109,cs),
(244,109,o),
(198,123,o),
(122,167,c),
(47,63,l),
(102,21,o),
(180,-5,o),
(269,-9,c),
(244,-111,l),
(289,-111,ls),
(324,-111,o),
(345,-124,o),
(345,-146,cs),
(345,-170,o),
(326,-183,o),
(291,-183,cs),
(265,-183,o),
(237,-173,o),
(214,-155,c),
(165,-212,l),
(197,-240,o),
(241,-254,o),
(300,-254,cs)
);
}
);
width = 600;
},
{
layerId = "2B01EBD5-E910-4BCA-BDA7-5B8A0D7F375D";
shapes = (
{
closed = 1;
nodes = (
(353,-235,o),
(396,-198,o),
(396,-147,cs),
(396,-100,o),
(358,-70,o),
(300,-68,c),
(313,-10,l),
(418,-5,o),
(495,51,o),
(495,138,cs),
(495,332,o),
(150,206,o),
(150,352,cs),
(150,407,o),
(202,443,o),
(289,443,cs),
(350,443,o),
(404,426,o),
(455,391,c),
(481,430,l),
(421,472,o),
(363,489,o),
(291,489,cs),
(180,489,o),
(102,437,o),
(102,349,cs),
(102,155,o),
(447,279,o),
(447,135,cs),
(447,73,o),
(383,36,o),
(296,36,cs),
(232,36,o),
(177,56,o),
(123,99,c),
(93,63,l),
(135,18,o),
(199,-6,o),
(279,-10,c),
(257,-96,l),
(282,-96,ls),
(330,-96,o),
(358,-115,o),
(358,-149,cs),
(358,-183,o),
(332,-204,o),
(289,-204,cs),
(259,-204,o),
(232,-194,o),
(209,-175,c),
(187,-201,l),
(213,-224,o),
(249,-235,o),
(290,-235,cs)
);
}
);
width = 600;
}
);
unicode = 351;
},
{
glyphname = germandbls;
kernLeft = b;
kernRight = s;
lastChange = "2024-10-11 15:27:38 +0000";
layers = (
{
layerId = m001;
shapes = (
{
closed = 1;
nodes = (
(493,-11,o),
(563,50,o),
(563,140,cs),
(563,308,o),
(322,292,o),
(322,371,cs),
(322,445,o),
(480,452,o),
(480,576,cs),
(480,668,o),
(403,737,o),
(286,737,cs),
(151,737,o),
(72,644,o),
(72,501,cs),
(72,0,l),
(145,0,l),
(145,502,ls),
(145,607,o),
(195,673,o),
(287,673,cs),
(359,673,o),
(411,633,o),
(411,578,c),
(411,481,o),
(254,489,o),
(254,371,cs),
(254,220,o),
(494,273,o),
(494,138,cs),
(494,83,o),
(451,47,o),
(389,47,cs),
(342,47,o),
(300,64,o),
(264,98,c),
(223,50,l),
(270,8,o),
(323,-11,o),
(390,-11,cs)
);
}
);
width = 600;
},
{
layerId = "8560E1E4-71CD-42DE-875E-B4A7223FD06A";
shapes = (
{
closed = 1;
nodes = (
(503,-11,o),
(586,61,o),
(586,160,cs),
(586,333,o),
(378,306,o),
(378,374,cs),
(378,430,o),
(498,440,o),
(498,564,cs),
(498,665,o),
(409,737,o),
(270,737,cs),
(122,737,o),
(26,645,o),
(26,509,cs),
(26,0,l),
(187,0,l),
(187,518,ls),
(187,573,o),
(228,608,o),
(276,608,cs),
(321,608,o),
(352,584,o),
(352,546,c),
(352,481,o),
(232,449,o),
(232,348,cs),
(232,201,o),
(439,241,o),
(439,154,cs),
(439,122,o),
(414,102,o),
(375,102,cs),
(344,102,o),
(317,116,o),
(282,141,c),
(214,42,l),
(264,5,o),
(315,-11,o),
(391,-11,cs)
);
}
);
width = 600;
},
{
layerId = "2B01EBD5-E910-4BCA-BDA7-5B8A0D7F375D";
shapes = (
{
closed = 1;
nodes = (
(490,-10,o),
(557,45,o),
(557,127,cs),
(557,313,o),
(304,257,o),
(304,358,cs),
(304,441,o),
(473,440,o),
(473,575,cs),
(473,667,o),
(400,737,o),
(286,737,cs),
(159,737,o),
(83,645,o),
(83,503,cs),
(83,0,l),
(133,0,l),
(133,502,ls),
(133,618,o),
(184,691,o),
(287,691,cs),
(369,691,o),
(425,641,o),
(425,577,c),
(425,464,o),
(255,475,o),
(256,356,cs),
(257,203,o),
(509,272,o),
(509,126,cs),
(509,66,o),
(461,34,o),
(393,34,cs),
(341,34,o),
(294,52,o),
(259,87,c),
(225,53,l),
(271,10,o),
(325,-10,o),
(390,-10,cs)
);
}
);
width = 600;
}
);
unicode = 223;
},
{
glyphname = t;
kernLeft = t;
kernRight = t_1;
lastChange = "2024-10-11 15:27:38 +0000";
layers = (
{
anchors = (
{
name = bottom;
pos = (333,0);
}
);
layerId = m001;
shapes = (
{
closed = 1;
nodes = (
(422,-10,o),
(465,-1,o),
(509,15,c),
(509,81,l),
(460,62,o),
(419,55,o),
(381,55,cs),
(318,55,o),
(284,80,o),
(284,141,cs),
(284,428,l),
(509,428,l),
(509,488,l),
(284,488,l),
(284,639,l),
(211,622,l),
(211,488,l),
(44,488,l),
(44,428,l),
(211,428,l),
(211,129,ls),
(211,38,o),
(270,-10,o),
(380,-10,cs)
);
}
);
width = 600;
},
{
anchors = (
{
name = bottom;
pos = (355,0);
}
);
layerId = "8560E1E4-71CD-42DE-875E-B4A7223FD06A";
shapes = (
{
closed = 1;
nodes = (
(442,-10,o),
(500,0,o),
(540,11,c),
(540,142,l),
(489,128,o),
(459,126,o),
(430,126,cs),
(365,126,o),
(342,149,o),
(342,214,cs),
(342,391,l),
(537,391,l),
(537,516,l),
(342,516,l),
(342,692,l),
(180,659,l),
(180,516,l),
(29,516,l),
(29,391,l),
(180,391,l),
(180,182,ls),
(180,55,o),
(254,-10,o),
(398,-10,cs)
);
}
);
width = 600;
},
{
anchors = (
{
name = bottom;
pos = (339,0);
}
);
layerId = "2B01EBD5-E910-4BCA-BDA7-5B8A0D7F375D";
shapes = (
{
closed = 1;
nodes = (
(417,-10,o),
(457,-1,o),
(502,17,c),
(502,65,l),
(453,45,o),
(408,36,o),
(368,36,cs),
(306,36,o),
(269,62,o),
(269,122,cs),
(269,438,l),
(502,438,l),
(502,481,l),
(269,481,l),
(269,625,l),
(219,612,l),
(219,481,l),
(48,481,l),
(48,438,l),
(219,438,l),
(219,116,ls),
(219,34,o),
(274,-10,o),
(375,-10,cs)
);
}
);
width = 600;
}
);
unicode = 116;
},
{
glyphname = tbar;
kernLeft = t;
kernRight = t_1;
lastChange = "2024-10-11 15:27:38 +0000";
layers = (
{
layerId = m001;
shapes = (
{
closed = 1;
nodes = (
(422,-10,o),
(465,-1,o),
(509,15,c),
(509,81,l),
(460,62,o),
(419,55,o),
(381,55,cs),
(318,55,o),
(284,80,o),
(284,141,cs),
(284,251,l),
(509,251,l),
(509,305,l),
(284,305,l),
(284,428,l),
(509,428,l),
(509,488,l),
(284,488,l),
(284,639,l),
(211,622,l),
(211,488,l),
(44,488,l),
(44,428,l),
(211,428,l),
(211,305,l),
(44,305,l),
(44,251,l),
(211,251,l),
(211,129,ls),
(211,38,o),
(270,-10,o),
(380,-10,cs)
);
}
);
width = 600;
},
{
guides = (
{
angle = 90;
pos = (29,295);
userData = {
UFO.identifier = 20JFz57MC8;
};
}
);
layerId = "8560E1E4-71CD-42DE-875E-B4A7223FD06A";
shapes = (
{
closed = 1;
nodes = (
(442,-10,o),
(500,0,o),
(540,11,c),
(540,142,l),
(489,128,o),
(459,126,o),
(430,126,cs),
(365,126,o),
(342,149,o),
(342,214,cs),
(342,226,l),
(540,226,l),
(540,314,l),
(342,314,l),
(342,391,l),
(537,391,l),
(537,516,l),
(342,516,l),
(342,692,l),
(180,659,l),
(180,516,l),
(29,516,l),
(29,391,l),
(180,391,l),
(180,314,l),
(29,314,l),
(29,226,l),
(180,226,l),
(180,182,ls),
(180,55,o),
(254,-10,o),
(398,-10,cs)
);
}
);
width = 600;
},
{
guides = (
{
angle = 270;
pos = (48,423);
userData = {
UFO.identifier = 20JFz57MC8;
};
},
{
angle = 270;
pos = (502,398);
userData = {
UFO.identifier = xzU9qtgFwo;
};
}
);
layerId = "2B01EBD5-E910-4BCA-BDA7-5B8A0D7F375D";
shapes = (
{
closed = 1;
nodes = (
(417,-10,o),
(457,-1,o),
(502,17,c),
(502,65,l),
(453,45,o),
(408,36,o),
(368,36,cs),
(306,36,o),
(269,62,o),
(269,122,cs),
(269,258,l),
(502,258,l),
(502,298,l),
(269,298,l),
(269,438,l),
(502,438,l),
(502,481,l),
(269,481,l),
(269,625,l),
(219,612,l),
(219,481,l),
(48,481,l),
(48,438,l),
(219,438,l),
(219,298,l),
(48,298,l),
(48,258,l),
(219,258,l),
(219,116,ls),
(219,34,o),
(274,-10,o),
(375,-10,cs)
);
}
);
width = 600;
}
);
unicode = 359;
},
{
glyphname = tcaron;
kernLeft = t;
kernRight = t_1;
lastChange = "2024-10-11 15:27:38 +0000";
layers = (
{
layerId = m001;
shapes = (
{
closed = 1;
nodes = (
(423,577,l),
(448,787,l),
(372,772,l),
(367,577,l)
);
},
{
ref = t;
}
);
width = 600;
},
{
layerId = "8560E1E4-71CD-42DE-875E-B4A7223FD06A";
shapes = (
{
closed = 1;
nodes = (
(500,578,l),
(540,807,l),
(415,784,l),
(411,578,l)
);
},
{
ref = t;
}
);
width = 600;
},
{
layerId = "2B01EBD5-E910-4BCA-BDA7-5B8A0D7F375D";
shapes = (
{
closed = 1;
nodes = (
(399,549,l),
(418,737,l),
(366,725,l),
(363,549,l)
);
},
{
ref = t;
}
);
width = 600;
}
);
unicode = 357;
},
{
glyphname = tcedilla;
kernLeft = t;
kernRight = t_1;
lastChange = "2024-10-11 15:27:38 +0000";
layers = (
{
layerId = m001;
shapes = (
{
closed = 1;
nodes = (
(422,-10,o),
(465,-1,o),
(509,15,c),
(509,81,l),
(460,62,o),
(419,55,o),
(381,55,cs),
(318,55,o),
(284,80,o),
(284,141,cs),
(284,428,l),
(509,428,l),
(509,488,l),
(284,488,l),
(284,639,l),
(211,622,l),
(211,488,l),
(44,488,l),
(44,428,l),
(211,428,l),
(211,129,ls),
(211,59,o),
(246,15,o),
(311,-2,c),
(287,-99,l),
(316,-99,ls),
(361,-99,o),
(387,-117,o),
(387,-148,cs),
(387,-180,o),
(363,-200,o),
(322,-200,cs),
(293,-200,o),
(266,-190,o),
(243,-171,c),
(215,-203,l),
(242,-227,o),
(280,-239,o),
(325,-239,cs),
(390,-239,o),
(436,-200,o),
(436,-146,cs),
(436,-99,o),
(398,-69,o),
(339,-66,c),
(352,-9,l),
(361,-10,o),
(370,-10,o),
(380,-10,cs)
);
}
);
width = 600;
},
{
layerId = "8560E1E4-71CD-42DE-875E-B4A7223FD06A";
shapes = (
{
closed = 1;
nodes = (
(442,-10,o),
(500,0,o),
(540,11,c),
(540,142,l),
(489,128,o),
(459,126,o),
(430,126,cs),
(365,126,o),
(342,149,o),
(342,214,cs),
(342,391,l),
(537,391,l),
(537,516,l),
(342,516,l),
(342,692,l),
(180,659,l),
(180,516,l),
(29,516,l),
(29,391,l),
(180,391,l),
(180,182,ls),
(180,79,o),
(229,16,o),
(325,-3,c),
(299,-111,l),
(344,-111,ls),
(379,-111,o),
(400,-124,o),
(400,-146,cs),
(400,-170,o),
(381,-183,o),
(346,-183,cs),
(320,-183,o),
(292,-173,o),
(269,-155,c),
(220,-212,l),
(252,-240,o),
(296,-254,o),
(355,-254,cs),
(430,-254,o),
(487,-206,o),
(487,-144,cs),
(487,-95,o),
(448,-63,o),
(385,-58,c),
(397,-10,l),
(397,-10,o),
(398,-10,o),
(398,-10,c)
);
}
);
width = 600;
},
{
layerId = "2B01EBD5-E910-4BCA-BDA7-5B8A0D7F375D";
shapes = (
{
closed = 1;
nodes = (
(417,-10,o),
(457,-1,o),
(502,17,c),
(502,65,l),
(453,45,o),
(408,36,o),
(368,36,cs),
(306,36,o),
(269,62,o),
(269,122,cs),
(269,438,l),
(502,438,l),
(502,481,l),
(269,481,l),
(269,625,l),
(219,612,l),
(219,481,l),
(48,481,l),
(48,438,l),
(219,438,l),
(219,116,ls),
(219,50,o),
(255,8,o),
(322,-5,c),
(298,-96,l),
(323,-96,ls),
(371,-96,o),
(399,-115,o),
(399,-149,cs),
(399,-183,o),
(373,-204,o),
(330,-204,cs),
(300,-204,o),
(273,-194,o),
(250,-175,c),
(228,-201,l),
(254,-224,o),
(290,-235,o),
(331,-235,cs),
(394,-235,o),
(437,-198,o),
(437,-147,cs),
(437,-100,o),
(399,-70,o),
(341,-68,c),
(354,-9,l),
(361,-10,o),
(368,-10,o),
(375,-10,cs)
);
}
);
width = 600;
}
);
unicode = 355;
},
{
glyphname = u;
kernLeft = u;
kernRight = q;
lastChange = "2024-10-11 15:27:38 +0000";
layers = (
{
anchors = (
{
name = bottom;
pos = (501,0);
},
{
name = top;
pos = (300,488);
}
);
layerId = m001;
shapes = (
{
closed = 1;
nodes = (
(339,-8,o),
(391,21,o),
(428,79,c),
(428,0,l),
(501,0,l),
(501,488,l),
(428,488,l),
(428,127,l),
(399,79,o),
(354,53,o),
(300,53,cs),
(220,53,o),
(170,107,o),
(170,194,cs),
(170,488,l),
(96,488,l),
(96,173,ls),
(96,66,o),
(168,-8,o),
(273,-8,cs)
);
}
);
width = 600;
},
{
anchors = (
{
name = bottom;
pos = (541,0);
},
{
name = top;
pos = (300,516);
}
);
layerId = "8560E1E4-71CD-42DE-875E-B4A7223FD06A";
shapes = (
{
closed = 1;
nodes = (
(288,-8,o),
(340,19,o),
(379,70,c),
(379,0,l),
(541,0,l),
(541,516,l),
(379,516,l),
(379,150,l),
(358,129,o),
(333,119,o),
(303,119,cs),
(251,119,o),
(217,157,o),
(217,215,cs),
(217,516,l),
(55,516,l),
(55,168,ls),
(55,65,o),
(126,-8,o),
(226,-8,cs)
);
}
);
width = 600;
},
{
anchors = (
{
name = bottom;
pos = (490,0);
},
{
name = top;
pos = (300,481);
}
);
layerId = "2B01EBD5-E910-4BCA-BDA7-5B8A0D7F375D";
shapes = (
{
closed = 1;
nodes = (
(352,-8,o),
(404,21,o),
(441,76,c),
(441,0,l),
(491,0,l),
(491,481,l),
(441,481,l),
(441,118,l),
(411,67,o),
(361,36,o),
(301,36,cs),
(214,36,o),
(158,95,o),
(158,187,cs),
(158,481,l),
(108,481,l),
(108,173,ls),
(108,66,o),
(180,-8,o),
(287,-8,cs)
);
}
);
width = 600;
}
);
unicode = 117;
},
{
color = 0;
glyphname = uogonek;
kernLeft = u;
kernRight = q;
lastChange = "2024-11-06 19:51:56 +0000";
layers = (
{
layerId = m001;
shapes = (
{
closed = 1;
nodes = (
(339,-8,o),
(391,21,o),
(428,79,c),
(428,0,l),
(446,0,l),
(376,-50,o),
(347,-91,o),
(347,-140,cs),
(347,-195,o),
(389,-231,o),
(453,-231,cs),
(480,-231,o),
(507,-224,o),
(526,-212,c),
(512,-173,l),
(500,-181,o),
(481,-185,o),
(464,-185,cs),
(422,-185,o),
(397,-164,o),
(397,-128,cs),
(397,-87,o),
(429,-47,o),
(501,0,c),
(501,488,l),
(428,488,l),
(428,127,l),
(399,79,o),
(354,53,o),
(300,53,cs),
(220,53,o),
(170,107,o),
(170,194,cs),
(170,488,l),
(96,488,l),
(96,173,ls),
(96,66,o),
(168,-8,o),
(273,-8,cs)
);
}
);
width = 600;
},
{
layerId = "8560E1E4-71CD-42DE-875E-B4A7223FD06A";
shapes = (
{
closed = 1;
nodes = (
(288,-8,o),
(340,19,o),
(379,70,c),
(379,0,l),
(457,0,l),
(396,-41,o),
(369,-82,o),
(369,-132,cs),
(369,-191,o),
(412,-231,o),
(477,-231,cs),
(513,-231,o),
(548,-222,o),
(570,-208,c),
(550,-138,l),
(540,-145,o),
(523,-149,o),
(505,-149,cs),
(475,-149,o),
(456,-132,o),
(456,-103,cs),
(456,-67,o),
(483,-35,o),
(541,0,c),
(541,516,l),
(379,516,l),
(379,150,l),
(358,129,o),
(333,119,o),
(303,119,cs),
(251,119,o),
(217,157,o),
(217,215,cs),
(217,516,l),
(55,516,l),
(55,168,ls),
(55,65,o),
(126,-8,o),
(226,-8,cs)
);
}
);
width = 600;
},
{
layerId = "2B01EBD5-E910-4BCA-BDA7-5B8A0D7F375D";
shapes = (
{
closed = 1;
nodes = (
(352,-8,o),
(404,21,o),
(441,76,c),
(441,0,l),
(442,0,l),
(367,-55,o),
(341,-96,o),
(341,-142,cs),
(341,-193,o),
(379,-231,o),
(447,-231,cs),
(473,-231,o),
(497,-224,o),
(514,-213,c),
(502,-182,l),
(489,-190,o),
(470,-195,o),
(453,-195,cs),
(410,-195,o),
(381,-174,o),
(381,-134,cs),
(381,-97,o),
(407,-56,o),
(491,0,c),
(491,481,l),
(441,481,l),
(441,118,l),
(411,67,o),
(361,36,o),
(301,36,cs),
(214,36,o),
(158,95,o),
(158,187,cs),
(158,481,l),
(108,481,l),
(108,173,ls),
(108,66,o),
(180,-8,o),
(287,-8,cs)
);
}
);
width = 600;
}
);
unicode = 371;
},
{
glyphname = v;
kernRight = v;
lastChange = "2024-10-11 15:27:38 +0000";
layers = (
{
layerId = m001;
shapes = (
{
closed = 1;
nodes = (
(335,0,l),
(545,488,l),
(467,488,l),
(302,83,l),
(134,488,l),
(55,488,l),
(265,0,l)
);
}
);
width = 600;
},
{
layerId = "8560E1E4-71CD-42DE-875E-B4A7223FD06A";
shapes = (
{
closed = 1;
nodes = (
(378,0,l),
(589,516,l),
(422,516,l),
(304,192,l),
(187,516,l),
(11,516,l),
(220,0,l)
);
}
);
width = 600;
},
{
layerId = "2B01EBD5-E910-4BCA-BDA7-5B8A0D7F375D";
shapes = (
{
closed = 1;
nodes = (
(324,0,l),
(534,481,l),
(480,481,l),
(302,59,l),
(120,481,l),
(66,481,l),
(277,0,l)
);
}
);
width = 600;
}
);
unicode = 118;
},
{
glyphname = w;
kernLeft = w;
kernRight = w;
lastChange = "2024-10-11 15:27:38 +0000";
layers = (
{
anchors = (
{
name = top;
pos = (302,488);
}
);
guides = (
{
angle = 90;
pos = (302,488);
userData = {
UFO.identifier = o3X4i4dtHm;
};
}
);
layerId = m001;
shapes = (
{
closed = 1;
nodes = (
(203,0,l),
(301,393,l),
(399,0,l),
(465,0,l),
(562,488,l),
(502,488,l),
(434,101,l),
(335,488,l),
(270,488,l),
(172,101,l),
(103,488,l),
(38,488,l),
(135,0,l)
);
}
);
width = 600;
},
{
anchors = (
{
name = top;
pos = (300,516);
}
);
layerId = "8560E1E4-71CD-42DE-875E-B4A7223FD06A";
shapes = (
{
closed = 1;
nodes = (
(242,0,l),
(301,305,l),
(361,0,l),
(489,0,l),
(585,516,l),
(462,516,l),
(420,224,l),
(358,516,l),
(245,516,l),
(186,225,l),
(142,516,l),
(15,516,l),
(113,0,l)
);
}
);
width = 600;
},
{
anchors = (
{
name = top;
pos = (300,481);
}
);
guides = (
{
pos = (266,78);
userData = {
UFO.identifier = o3X4i4dtHm;
};
}
);
layerId = "2B01EBD5-E910-4BCA-BDA7-5B8A0D7F375D";
shapes = (
{
closed = 1;
nodes = (
(192,0,l),
(300,408,l),
(409,0,l),
(458,0,l),
(557,481,l),
(511,481,l),
(432,78,l),
(324,481,l),
(277,481,l),
(170,78,l),
(91,481,l),
(43,481,l),
(142,0,l)
);
}
);
width = 600;
}
);
unicode = 119;
},
{
glyphname = x;
kernRight = k;
lastChange = "2024-10-11 15:27:38 +0000";
layers = (
{
layerId = m001;
shapes = (
{
closed = 1;
nodes = (
(141,0,l),
(297,201,l),
(455,0,l),
(542,0,l),
(344,253,l),
(533,488,l),
(450,488,l),
(301,301,l),
(154,488,l),
(67,488,l),
(255,251,l),
(58,0,l)
);
}
);
width = 600;
},
{
layerId = "8560E1E4-71CD-42DE-875E-B4A7223FD06A";
shapes = (
{
closed = 1;
nodes = (
(193,0,l),
(296,148,l),
(398,0,l),
(586,0,l),
(392,258,l),
(583,516,l),
(403,516,l),
(303,372,l),
(204,516,l),
(17,516,l),
(206,261,l),
(14,0,l)
);
}
);
width = 600;
},
{
layerId = "2B01EBD5-E910-4BCA-BDA7-5B8A0D7F375D";
shapes = (
{
closed = 1;
nodes = (
(126,0,l),
(299,218,l),
(471,0,l),
(531,0,l),
(331,251,l),
(518,481,l),
(460,481,l),
(300,283,l),
(143,481,l),
(82,481,l),
(268,250,l),
(69,0,l)
);
}
);
width = 600;
}
);
unicode = 120;
},
{
glyphname = y;
kernLeft = y;
kernRight = v;
lastChange = "2024-10-11 15:27:38 +0000";
layers = (
{
anchors = (
{
name = top;
pos = (296,488);
}
);
layerId = m001;
shapes = (
{
closed = 1;
nodes = (
(208,-219,o),
(248,-190,o),
(282,-111,cs),
(539,488,l),
(460,488,l),
(294,84,l),
(134,488,l),
(54,488,l),
(252,-3,l),
(215,-89,ls),
(196,-134,o),
(166,-151,o),
(121,-151,c),
(105,-151,o),
(86,-148,o),
(61,-142,c),
(61,-211,l),
(83,-217,o),
(108,-219,o),
(129,-219,cs)
);
}
);
width = 600;
},
{
anchors = (
{
name = top;
pos = (307,516);
}
);
layerId = "8560E1E4-71CD-42DE-875E-B4A7223FD06A";
shapes = (
{
closed = 1;
nodes = (
(249,-219,o),
(308,-176,o),
(356,-58,cs),
(588,516,l),
(415,516,l),
(296,177,l),
(189,516,l),
(12,516,l),
(204,-14,l),
(197,-32,ls),
(184,-64,o),
(156,-79,o),
(111,-79,c),
(76,-79,o),
(64,-78,o),
(33,-72,c),
(33,-208,l),
(65,-215,o),
(102,-219,o),
(130,-219,cs)
);
}
);
width = 600;
},
{
anchors = (
{
name = top;
pos = (293,481);
}
);
layerId = "2B01EBD5-E910-4BCA-BDA7-5B8A0D7F375D";
shapes = (
{
closed = 1;
nodes = (
(198,-219,o),
(233,-193,o),
(263,-125,cs),
(526,481,l),
(471,481,l),
(293,55,l),
(121,481,l),
(65,481,l),
(265,0,l),
(220,-104,ls),
(198,-154,o),
(173,-173,o),
(133,-173,c),
(109,-173,o),
(86,-167,o),
(69,-159,c),
(69,-209,l),
(88,-217,o),
(110,-219,o),
(129,-219,cs)
);
}
);
width = 600;
}
);
unicode = 121;
},
{
glyphname = z;
kernLeft = z;
kernRight = z;
lastChange = "2024-10-11 15:27:38 +0000";
layers = (
{
anchors = (
{
name = top;
pos = (293,488);
}
);
layerId = m001;
shapes = (
{
closed = 1;
nodes = (
(503,0,l),
(503,66,l),
(182,65,l),
(499,431,l),
(499,488,l),
(92,488,l),
(92,421,l),
(404,422,l),
(89,58,l),
(89,0,l)
);
}
);
width = 600;
},
{
anchors = (
{
name = top;
pos = (300,516);
}
);
layerId = "8560E1E4-71CD-42DE-875E-B4A7223FD06A";
shapes = (
{
closed = 1;
nodes = (
(549,0,l),
(549,135,l),
(264,133,l),
(541,403,l),
(541,516,l),
(53,516,l),
(53,380,l),
(327,382,l),
(51,113,l),
(51,0,l)
);
}
);
width = 600;
},
{
anchors = (
{
name = top;
pos = (291,481);
}
);
layerId = "2B01EBD5-E910-4BCA-BDA7-5B8A0D7F375D";
shapes = (
{
closed = 1;
nodes = (
(491,0,l),
(491,46,l),
(163,46,l),
(488,438,l),
(488,481,l),
(102,481,l),
(102,435,l),
(424,435,l),
(99,43,l),
(99,0,l)
);
}
);
width = 600;
}
);
unicode = 122;
},
{
glyphname = g.alt;
kernLeft = g.alt;
kernRight = g.alt;
lastChange = "2024-10-11 15:27:38 +0000";
layers = (
{
anchors = (
{
name = top;
pos = (291,488);
}
);
layerId = m001;
shapes = (
{
closed = 1;
nodes = (
(442,-219,o),
(542,-160,o),
(542,-68,cs),
(542,-6,o),
(496,29,o),
(414,34,cs),
(233,44,ls),
(194,46,o),
(174,59,o),
(174,84,cs),
(174,111,o),
(196,132,o),
(229,141,c),
(249,135,o),
(269,132,o),
(291,132,cs),
(402,132,o),
(490,213,o),
(490,314,cs),
(490,353,o),
(477,390,o),
(454,419,c),
(466,444,o),
(488,459,o),
(518,459,cs),
(537,459,o),
(551,458,o),
(563,454,c),
(563,525,l),
(555,526,o),
(546,527,o),
(538,527,cs),
(485,527,o),
(446,493,o),
(437,438,c),
(401,474,o),
(349,496,o),
(291,496,cs),
(180,496,o),
(92,415,o),
(92,314,cs),
(92,245,o),
(133,185,o),
(195,154,c),
(143,140,o),
(108,105,o),
(108,67,cs),
(108,30,o),
(130,3,o),
(169,-11,c),
(98,-32,o),
(61,-62,o),
(61,-101,cs),
(61,-176,o),
(142,-219,o),
(282,-219,cs)
);
},
{
closed = 1;
nodes = (
(219,188,o),
(163,243,o),
(163,314,cs),
(163,385,o),
(219,440,o),
(291,440,cs),
(363,440,o),
(419,385,o),
(419,314,cs),
(419,243,o),
(363,188,o),
(291,188,cs)
);
},
{
closed = 1;
nodes = (
(185,-166,o),
(131,-137,o),
(131,-89,cs),
(131,-60,o),
(159,-35,o),
(206,-20,c),
(214,-22,o),
(223,-23,o),
(232,-23,cs),
(406,-32,ls),
(448,-34,o),
(469,-49,o),
(469,-79,cs),
(469,-132,o),
(394,-166,o),
(276,-166,cs)
);
}
);
width = 600;
},
{
anchors = (
{
name = top;
pos = (276,516);
}
);
layerId = "8560E1E4-71CD-42DE-875E-B4A7223FD06A";
shapes = (
{
closed = 1;
nodes = (
(463,-219,o),
(585,-150,o),
(585,-40,cs),
(585,36,o),
(519,81,o),
(409,85,cs),
(232,91,ls),
(197,92,o),
(181,101,o),
(181,120,cs),
(181,132,o),
(189,142,o),
(202,148,c),
(225,143,o),
(250,140,o),
(276,140,cs),
(415,140,o),
(522,225,o),
(522,332,cs),
(522,367,o),
(510,400,o),
(490,428,c),
(506,437,o),
(525,441,o),
(546,441,cs),
(561,441,o),
(580,438,o),
(597,432,c),
(597,558,l),
(585,562,o),
(578,563,o),
(566,563,cs),
(516,563,o),
(480,533,o),
(452,467,c),
(408,502,o),
(346,524,o),
(276,524,cs),
(137,524,o),
(30,439,o),
(30,332,cs),
(30,257,o),
(82,193,o),
(161,161,c),
(93,148,o),
(51,110,o),
(51,59,cs),
(51,20,o),
(73,-9,o),
(115,-27,c),
(42,-38,o),
(-3,-67,o),
(-3,-106,cs),
(-3,-181,o),
(92,-219,o),
(267,-219,cs)
);
},
{
closed = 1;
nodes = (
(222,251,o),
(182,286,o),
(182,332,cs),
(182,378,o),
(222,413,o),
(276,413,cs),
(330,413,o),
(370,378,o),
(370,332,cs),
(370,286,o),
(330,251,o),
(276,251,cs)
);
},
{
closed = 1;
nodes = (
(181,-121,o),
(142,-108,o),
(142,-74,cs),
(142,-60,o),
(150,-49,o),
(165,-41,c),
(185,-45,o),
(208,-47,o),
(233,-48,cs),
(383,-52,ls),
(410,-53,o),
(423,-59,o),
(423,-74,cs),
(423,-103,o),
(364,-121,o),
(267,-121,cs)
);
}
);
width = 600;
},
{
anchors = (
{
name = top;
pos = (295,481);
}
);
layerId = "2B01EBD5-E910-4BCA-BDA7-5B8A0D7F375D";
shapes = (
{
closed = 1;
nodes = (
(437,-219,o),
(531,-162,o),
(531,-74,cs),
(531,-17,o),
(490,15,o),
(415,21,cs),
(233,32,ls),
(193,34,o),
(172,48,o),
(172,75,cs),
(172,106,o),
(198,130,o),
(237,140,c),
(255,134,o),
(275,131,o),
(295,131,cs),
(399,131,o),
(482,211,o),
(482,310,cs),
(482,348,o),
(470,383,o),
(449,412,c),
(456,444,o),
(479,464,o),
(511,464,cs),
(531,464,o),
(543,463,o),
(554,460,c),
(554,516,l),
(546,517,o),
(539,518,o),
(531,518,cs),
(477,518,o),
(438,482,o),
(434,430,c),
(400,466,o),
(351,489,o),
(295,489,cs),
(191,489,o),
(108,409,o),
(108,310,cs),
(108,242,o),
(147,184,o),
(204,153,c),
(156,139,o),
(123,104,o),
(123,69,cs),
(123,34,o),
(144,8,o),
(180,-6,c),
(111,-31,o),
(78,-61,o),
(78,-98,cs),
(78,-174,o),
(155,-219,o),
(286,-219,cs)
);
},
{
closed = 1;
nodes = (
(218,175,o),
(158,234,o),
(158,310,cs),
(158,386,o),
(218,445,o),
(295,445,cs),
(372,445,o),
(432,386,o),
(432,310,cs),
(432,234,o),
(372,175,o),
(295,175,cs)
);
},
{
closed = 1;
nodes = (
(186,-178,o),
(128,-144,o),
(128,-92,cs),
(128,-59,o),
(160,-31,o),
(216,-14,c),
(221,-15,o),
(226,-16,o),
(232,-16,cs),
(412,-27,ls),
(458,-29,o),
(481,-46,o),
(481,-79,cs),
(481,-139,o),
(402,-178,o),
(278,-178,cs)
);
}
);
width = 600;
}
);
},
{
color = (116,212,255,255);
glyphname = gcommaaccent.alt;
kernLeft = g.alt;
kernRight = g.alt;
lastChange = "2024-10-11 15:27:38 +0000";
layers = (
{
layerId = m001;
shapes = (
{
closed = 1;
nodes = (
(314,798,l),
(245,611,l),
(318,611,l),
(367,798,l)
);
},
{
ref = g.alt;
}
);
width = 600;
},
{
layerId = "8560E1E4-71CD-42DE-875E-B4A7223FD06A";
shapes = (
{
closed = 1;
nodes = (
(280,826,l),
(185,611,l),
(329,611,l),
(392,826,l)
);
},
{
ref = g.alt;
}
);
width = 600;
},
{
layerId = "2B01EBD5-E910-4BCA-BDA7-5B8A0D7F375D";
shapes = (
{
closed = 1;
nodes = (
(323,791,l),
(261,611,l),
(315,611,l),
(360,791,l)
);
},
{
ref = g.alt;
}
);
width = 600;
}
);
},
{
glyphname = a.school;
kernLeft = o;
kernRight = q;
lastChange = "2024-10-11 15:27:38 +0000";
layers = (
{
anchors = (
{
name = bottom;
pos = (509,0);
},
{
name = top;
pos = (296,488);
}
);
layerId = m001;
shapes = (
{
closed = 1;
nodes = (
(344,-7,o),
(399,18,o),
(436,65,c),
(436,0,l),
(509,0,l),
(509,488,l),
(436,488,l),
(436,426,l),
(397,470,o),
(344,494,o),
(284,494,cs),
(155,494,o),
(55,384,o),
(55,243,cs),
(55,103,o),
(153,-7,o),
(280,-7,cs)
);
},
{
closed = 1;
nodes = (
(200,57,o),
(127,137,o),
(127,244,cs),
(127,351,o),
(200,430,o),
(298,430,cs),
(353,430,o),
(404,405,o),
(436,364,c),
(436,122,l),
(405,80,o),
(355,57,o),
(298,57,cs)
);
}
);
width = 600;
},
{
anchors = (
{
name = bottom;
pos = (541,0);
},
{
name = top;
pos = (298,516);
}
);
layerId = "8560E1E4-71CD-42DE-875E-B4A7223FD06A";
shapes = (
{
closed = 1;
nodes = (
(309,-8,o),
(352,13,o),
(385,50,c),
(385,0,l),
(541,0,l),
(541,516,l),
(379,516,l),
(379,473,l),
(347,505,o),
(306,524,o),
(260,524,cs),
(134,524,o),
(31,409,o),
(31,258,cs),
(31,107,o),
(134,-8,o),
(260,-8,cs)
);
},
{
closed = 1;
nodes = (
(231,120,o),
(190,175,o),
(190,258,cs),
(190,341,o),
(231,396,o),
(298,396,cs),
(329,396,o),
(357,384,o),
(379,364,c),
(379,152,l),
(357,132,o),
(329,120,o),
(298,120,cs)
);
}
);
width = 600;
},
{
anchors = (
{
name = bottom;
pos = (501,0);
},
{
name = top;
pos = (295,481);
}
);
layerId = "2B01EBD5-E910-4BCA-BDA7-5B8A0D7F375D";
shapes = (
{
closed = 1;
nodes = (
(354,-8,o),
(411,16,o),
(451,64,c),
(451,0,l),
(501,0,l),
(501,481,l),
(451,481,l),
(451,412,l),
(411,461,o),
(355,487,o),
(288,487,cs),
(159,487,o),
(60,379,o),
(60,240,cs),
(60,100,o),
(160,-8,o),
(290,-8,cs)
);
},
{
closed = 1;
nodes = (
(192,38,o),
(110,124,o),
(110,239,cs),
(110,354,o),
(192,441,o),
(298,441,cs),
(363,441,o),
(419,412,o),
(451,363,c),
(451,112,l),
(418,65,o),
(360,38,o),
(298,38,cs)
);
}
);
width = 600;
}
);
},
{
color = 0;
glyphname = aogonek.school;
kernLeft = o;
kernRight = q;
lastChange = "2024-11-06 19:51:56 +0000";
layers = (
{
layerId = m001;
shapes = (
{
closed = 1;
nodes = (
(344,-7,o),
(399,18,o),
(436,65,c),
(436,0,l),
(454,0,l),
(384,-50,o),
(355,-91,o),
(355,-140,cs),
(355,-195,o),
(397,-231,o),
(461,-231,cs),
(488,-231,o),
(515,-224,o),
(534,-212,c),
(520,-173,l),
(508,-181,o),
(489,-185,o),
(472,-185,cs),
(430,-185,o),
(405,-164,o),
(405,-128,cs),
(405,-87,o),
(437,-47,o),
(509,0,c),
(509,488,l),
(436,488,l),
(436,426,l),
(397,470,o),
(344,494,o),
(284,494,cs),
(155,494,o),
(55,384,o),
(55,243,cs),
(55,103,o),
(153,-7,o),
(280,-7,cs)
);
},
{
closed = 1;
nodes = (
(200,57,o),
(127,137,o),
(127,244,cs),
(127,351,o),
(200,430,o),
(298,430,cs),
(353,430,o),
(404,405,o),
(436,364,c),
(436,122,l),
(405,80,o),
(355,57,o),
(298,57,cs)
);
}
);
width = 600;
},
{
layerId = "8560E1E4-71CD-42DE-875E-B4A7223FD06A";
shapes = (
{
closed = 1;
nodes = (
(309,-8,o),
(352,13,o),
(385,50,c),
(385,0,l),
(457,0,l),
(396,-41,o),
(369,-82,o),
(369,-132,cs),
(369,-191,o),
(412,-231,o),
(477,-231,cs),
(513,-231,o),
(548,-222,o),
(570,-208,c),
(550,-138,l),
(540,-145,o),
(523,-149,o),
(505,-149,cs),
(475,-149,o),
(456,-132,o),
(456,-103,cs),
(456,-67,o),
(483,-35,o),
(541,0,c),
(541,516,l),
(379,516,l),
(379,473,l),
(347,505,o),
(306,524,o),
(260,524,cs),
(134,524,o),
(31,409,o),
(31,258,cs),
(31,107,o),
(134,-8,o),
(260,-8,cs)
);
},
{
closed = 1;
nodes = (
(231,120,o),
(190,175,o),
(190,258,cs),
(190,341,o),
(231,396,o),
(298,396,cs),
(329,396,o),
(357,384,o),
(379,364,c),
(379,152,l),
(357,132,o),
(329,120,o),
(298,120,cs)
);
}
);
width = 600;
},
{
layerId = "2B01EBD5-E910-4BCA-BDA7-5B8A0D7F375D";
shapes = (
{
closed = 1;
nodes = (
(354,-8,o),
(411,16,o),
(451,64,c),
(451,0,l),
(452,0,l),
(377,-55,o),
(351,-96,o),
(351,-142,cs),
(351,-193,o),
(389,-231,o),
(457,-231,cs),
(483,-231,o),
(507,-224,o),
(524,-213,c),
(512,-182,l),
(499,-190,o),
(480,-195,o),
(463,-195,cs),
(420,-195,o),
(391,-174,o),
(391,-134,cs),
(391,-97,o),
(417,-56,o),
(501,0,c),
(501,481,l),
(451,481,l),
(451,412,l),
(411,461,o),
(355,487,o),
(288,487,cs),
(159,487,o),
(60,379,o),
(60,240,cs),
(60,100,o),
(160,-8,o),
(290,-8,cs)
);
},
{
closed = 1;
nodes = (
(192,38,o),
(110,124,o),
(110,239,cs),
(110,354,o),
(192,441,o),
(298,441,cs),
(363,441,o),
(419,412,o),
(451,363,c),
(451,112,l),
(418,65,o),
(360,38,o),
(298,38,cs)
);
}
);
width = 600;
}
);
},
{
export = 0;
glyphname = fi;
kernLeft = t;
kernRight = d;
lastChange = "2024-11-15 13:44:41 +0000";
layers = (
{
anchors = (
{
name = caret_1;
pos = (300,0);
}
);
layerId = m001;
shapes = (
{
closed = 1;
nodes = (
(205,0,l),
(205,428,l),
(344,428,l),
(344,488,l),
(205,488,l),
(205,586,ls),
(205,644,o),
(229,671,o),
(285,671,cs),
(307,671,o),
(322,668,o),
(344,662,c),
(344,728,l),
(326,734,o),
(305,737,o),
(278,737,cs),
(184,737,o),
(132,683,o),
(132,587,cs),
(132,488,l),
(23,488,l),
(23,428,l),
(132,428,l),
(132,0,l)
);
},
{
closed = 1;
nodes = (
(508,604,o),
(536,632,o),
(536,666,cs),
(536,700,o),
(508,728,o),
(473,728,cs),
(438,728,o),
(410,700,o),
(410,666,cs),
(410,632,o),
(438,604,o),
(473,604,cs)
);
},
{
closed = 1;
nodes = (
(510,0,l),
(510,488,l),
(437,488,l),
(437,0,l)
);
}
);
width = 600;
},
{
anchors = (
{
name = caret_1;
pos = (300,0);
}
);
layerId = "8560E1E4-71CD-42DE-875E-B4A7223FD06A";
shapes = (
{
closed = 1;
nodes = (
(246,0,l),
(246,391,l),
(356,391,l),
(356,516,l),
(246,516,l),
(246,581,ls),
(246,619,o),
(265,637,o),
(304,637,cs),
(319,637,o),
(332,635,o),
(356,631,c),
(356,760,l),
(337,765,o),
(305,770,o),
(280,770,cs),
(159,770,o),
(94,703,o),
(94,580,cs),
(94,516,l),
(7,516,l),
(7,391,l),
(94,391,l),
(94,0,l)
);
},
{
closed = 1;
nodes = (
(528,601,o),
(566,639,o),
(566,686,cs),
(566,733,o),
(526,772,o),
(479,772,cs),
(432,772,o),
(393,733,o),
(393,686,cs),
(393,639,o),
(431,601,o),
(479,601,cs)
);
},
{
closed = 1;
nodes = (
(555,0,l),
(555,516,l),
(403,516,l),
(403,0,l)
);
}
);
width = 600;
},
{
anchors = (
{
name = caret_1;
pos = (300,0);
}
);
layerId = "2B01EBD5-E910-4BCA-BDA7-5B8A0D7F375D";
shapes = (
{
closed = 1;
nodes = (
(192,0,l),
(192,438,l),
(341,438,l),
(341,481,l),
(192,481,l),
(192,597,ls),
(192,663,o),
(218,691,o),
(275,691,cs),
(296,691,o),
(311,688,o),
(334,680,c),
(334,728,l),
(315,735,o),
(297,737,o),
(273,737,cs),
(188,737,o),
(142,686,o),
(142,598,cs),
(142,481,l),
(27,481,l),
(27,438,l),
(142,438,l),
(142,0,l)
);
},
{
closed = 1;
nodes = (
(503,602,o),
(526,627,o),
(526,657,cs),
(526,687,o),
(503,712,o),
(473,712,cs),
(443,712,o),
(420,687,o),
(420,657,cs),
(420,627,o),
(443,602,o),
(473,602,cs)
);
},
{
closed = 1;
nodes = (
(498,0,l),
(498,481,l),
(448,481,l),
(448,0,l)
);
}
);
width = 600;
}
);
unicode = 64257;
},
{
export = 0;
glyphname = fl;
kernLeft = t;
kernRight = d;
lastChange = "2024-11-15 13:44:41 +0000";
layers = (
{
anchors = (
{
name = caret_1;
pos = (300,0);
}
);
layerId = m001;
shapes = (
{
closed = 1;
nodes = (
(205,0,l),
(205,428,l),
(344,428,l),
(344,488,l),
(205,488,l),
(205,586,ls),
(205,644,o),
(229,671,o),
(285,671,cs),
(307,671,o),
(322,668,o),
(344,662,c),
(344,728,l),
(326,734,o),
(305,737,o),
(278,737,cs),
(184,737,o),
(132,683,o),
(132,587,cs),
(132,488,l),
(23,488,l),
(23,428,l),
(132,428,l),
(132,0,l)
);
},
{
closed = 1;
nodes = (
(511,0,l),
(511,737,l),
(438,722,l),
(438,0,l)
);
}
);
width = 600;
},
{
anchors = (
{
name = caret_1;
pos = (300,0);
}
);
layerId = "8560E1E4-71CD-42DE-875E-B4A7223FD06A";
shapes = (
{
closed = 1;
nodes = (
(246,0,l),
(246,391,l),
(356,391,l),
(356,516,l),
(246,516,l),
(246,581,ls),
(246,619,o),
(265,637,o),
(304,637,cs),
(319,637,o),
(332,635,o),
(356,631,c),
(356,760,l),
(337,765,o),
(305,770,o),
(280,770,cs),
(159,770,o),
(94,703,o),
(94,580,cs),
(94,516,l),
(7,516,l),
(7,391,l),
(94,391,l),
(94,0,l)
);
},
{
closed = 1;
nodes = (
(555,0,l),
(555,737,l),
(403,714,l),
(403,0,l)
);
}
);
width = 600;
},
{
anchors = (
{
name = caret_1;
pos = (300,0);
}
);
layerId = "2B01EBD5-E910-4BCA-BDA7-5B8A0D7F375D";
shapes = (
{
closed = 1;
nodes = (
(192,0,l),
(192,438,l),
(341,438,l),
(341,481,l),
(192,481,l),
(192,597,ls),
(192,663,o),
(218,691,o),
(275,691,cs),
(296,691,o),
(311,688,o),
(334,680,c),
(334,728,l),
(315,735,o),
(297,737,o),
(273,737,cs),
(188,737,o),
(142,686,o),
(142,598,cs),
(142,481,l),
(27,481,l),
(27,438,l),
(142,438,l),
(142,0,l)
);
},
{
closed = 1;
nodes = (
(500,0,l),
(500,737,l),
(450,725,l),
(450,0,l)
);
}
);
width = 600;
}
);
unicode = 64258;
},
{
glyphname = ordfeminine;
lastChange = "2024-10-11 15:27:38 +0000";
layers = (
{
layerId = m001;
shapes = (
{
closed = 1;
nodes = (
(308,319,o),
(346,334,o),
(381,366,c),
(381,326,l),
(442,326,l),
(442,578,ls),
(442,663,o),
(388,711,o),
(291,711,cs),
(245,711,o),
(199,700,o),
(143,673,c),
(166,626,l),
(212,648,o),
(248,658,o),
(284,658,cs),
(348,658,o),
(381,629,o),
(381,571,cs),
(381,522,l),
(348,539,o),
(311,548,o),
(274,548,cs),
(180,548,o),
(121,504,o),
(121,433,cs),
(121,366,o),
(178,319,o),
(261,319,cs)
);
},
{
closed = 1;
nodes = (
(218,367,o),
(181,394,o),
(181,435,cs),
(181,477,o),
(218,504,o),
(276,504,cs),
(318,504,o),
(351,496,o),
(381,477,c),
(381,406,l),
(352,380,o),
(316,367,o),
(273,367,cs)
);
}
);
width = 600;
},
{
layerId = "8560E1E4-71CD-42DE-875E-B4A7223FD06A";
shapes = (
{
closed = 1;
nodes = (
(269,298,o),
(301,309,o),
(336,335,c),
(336,305,l),
(461,305,l),
(461,559,ls),
(461,655,o),
(397,711,o),
(285,711,cs),
(226,711,o),
(165,697,o),
(97,667,c),
(142,574,l),
(196,596,o),
(232,605,o),
(262,605,cs),
(311,605,o),
(336,586,o),
(336,548,cs),
(336,529,l),
(306,537,o),
(277,541,o),
(248,541,cs),
(143,541,o),
(83,498,o),
(83,422,cs),
(83,349,o),
(143,298,o),
(228,298,cs)
);
},
{
closed = 1;
nodes = (
(226,387,o),
(204,401,o),
(204,424,cs),
(204,447,o),
(226,460,o),
(267,460,cs),
(291,460,o),
(314,458,o),
(336,453,c),
(336,403,l),
(316,393,o),
(292,387,o),
(263,387,cs)
);
}
);
width = 600;
},
{
layerId = "2B01EBD5-E910-4BCA-BDA7-5B8A0D7F375D";
shapes = (
{
closed = 1;
nodes = (
(318,324,o),
(359,341,o),
(393,374,c),
(393,331,l),
(437,331,l),
(437,583,ls),
(437,665,o),
(386,711,o),
(293,711,cs),
(248,711,o),
(205,700,o),
(155,674,c),
(172,639,l),
(218,662,o),
(254,672,o),
(290,672,cs),
(358,672,o),
(393,640,o),
(393,577,cs),
(393,519,l),
(359,539,o),
(319,550,o),
(281,550,cs),
(190,550,o),
(131,505,o),
(131,436,cs),
(131,370,o),
(188,324,o),
(270,324,cs)
);
},
{
closed = 1;
nodes = (
(216,361,o),
(175,392,o),
(175,438,cs),
(175,484,o),
(216,515,o),
(278,515,cs),
(325,515,o),
(361,505,o),
(393,482,c),
(393,408,l),
(362,377,o),
(323,361,o),
(276,361,cs)
);
}
);
width = 600;
}
);
unicode = 170;
},
{
glyphname = ordmasculine;
lastChange = "2024-10-11 15:27:38 +0000";
layers = (
{
layerId = m001;
shapes = (
{
closed = 1;
nodes = (
(408,317,o),
(494,403,o),
(494,514,cs),
(494,625,o),
(408,711,o),
(300,711,cs),
(192,711,o),
(106,625,o),
(106,514,cs),
(106,403,o),
(192,317,o),
(300,317,cs)
);
},
{
closed = 1;
nodes = (
(226,372,o),
(168,434,o),
(168,514,cs),
(168,594,o),
(226,656,o),
(300,656,cs),
(374,656,o),
(432,594,o),
(432,514,cs),
(432,434,o),
(374,372,o),
(300,372,cs)
);
}
);
width = 600;
},
{
layerId = "8560E1E4-71CD-42DE-875E-B4A7223FD06A";
shapes = (
{
closed = 1;
nodes = (
(416,295,o),
(511,387,o),
(511,503,cs),
(511,619,o),
(416,711,o),
(294,711,cs),
(172,711,o),
(77,619,o),
(77,503,cs),
(77,387,o),
(172,295,o),
(294,295,cs)
);
},
{
closed = 1;
nodes = (
(242,405,o),
(201,448,o),
(201,503,cs),
(201,558,o),
(242,601,o),
(294,601,cs),
(346,601,o),
(388,558,o),
(388,503,cs),
(388,448,o),
(346,405,o),
(294,405,cs)
);
}
);
width = 600;
},
{
layerId = "2B01EBD5-E910-4BCA-BDA7-5B8A0D7F375D";
shapes = (
{
closed = 1;
nodes = (
(405,323,o),
(488,408,o),
(488,517,cs),
(488,626,o),
(405,711,o),
(300,711,cs),
(195,711,o),
(112,626,o),
(112,517,cs),
(112,408,o),
(195,323,o),
(300,323,cs)
);
},
{
closed = 1;
nodes = (
(219,364,o),
(156,432,o),
(156,517,cs),
(156,602,o),
(219,670,o),
(300,670,cs),
(381,670,o),
(444,602,o),
(444,517,cs),
(444,432,o),
(381,364,o),
(300,364,cs)
);
}
);
width = 600;
}
);
unicode = 186;
},
{
glyphname = .notdef;
lastChange = "2024-10-11 15:27:38 +0000";
layers = (
{
layerId = m001;
shapes = (
{
closed = 1;
nodes = (
(497,-100,l),
(497,750,l),
(103,750,l),
(103,-100,l)
);
}
);
width = 600;
},
{
layerId = "8560E1E4-71CD-42DE-875E-B4A7223FD06A";
shapes = (
{
closed = 1;
nodes = (
(497,-100,l),
(497,750,l),
(103,750,l),
(103,-100,l)
);
}
);
width = 600;
},
{
layerId = "2B01EBD5-E910-4BCA-BDA7-5B8A0D7F375D";
shapes = (
{
closed = 1;
nodes = (
(497,-100,l),
(497,750,l),
(103,750,l),
(103,-100,l)
);
}
);
width = 600;
}
);
},
{
color = 3;
glyphname = period;
kernLeft = _period;
kernRight = _period;
lastChange = "2024-11-06 16:14:26 +0000";
layers = (
{
layerId = m001;
shapes = (
{
closed = 1;
nodes = (
(337,-9,o),
(365,20,o),
(365,56,cs),
(365,92,o),
(337,121,o),
(300,121,cs),
(263,121,o),
(235,92,o),
(235,56,cs),
(235,20,o),
(263,-9,o),
(300,-9,cs)
);
}
);
width = 600;
},
{
layerId = "8560E1E4-71CD-42DE-875E-B4A7223FD06A";
shapes = (
{
closed = 1;
nodes = (
(360,-10,o),
(407,37,o),
(407,96,cs),
(407,155,o),
(360,202,o),
(300,202,cs),
(240,202,o),
(193,155,o),
(193,96,cs),
(193,37,o),
(240,-10,o),
(300,-10,cs)
);
}
);
width = 600;
},
{
layerId = "2B01EBD5-E910-4BCA-BDA7-5B8A0D7F375D";
shapes = (
{
closed = 1;
nodes = (
(329,-8,o),
(353,16,o),
(353,46,cs),
(353,76,o),
(329,100,o),
(300,100,cs),
(271,100,o),
(247,76,o),
(247,46,cs),
(247,16,o),
(271,-8,o),
(300,-8,cs)
);
}
);
width = 600;
}
);
unicode = 46;
},
{
color = 3;
glyphname = comma;
kernLeft = _period;
kernRight = _period;
lastChange = "2024-11-06 16:14:26 +0000";
layers = (
{
layerId = m001;
shapes = (
{
closed = 1;
nodes = (
(264,-157,l),
(355,74,l),
(262,74,l),
(207,-157,l)
);
}
);
width = 600;
},
{
layerId = "8560E1E4-71CD-42DE-875E-B4A7223FD06A";
shapes = (
{
closed = 1;
nodes = (
(299,-177,l),
(427,127,l),
(248,127,l),
(183,-177,l)
);
}
);
width = 600;
},
{
layerId = "2B01EBD5-E910-4BCA-BDA7-5B8A0D7F375D";
shapes = (
{
closed = 1;
nodes = (
(255,-152,l),
(336,60,l),
(266,60,l),
(213,-152,l)
);
}
);
width = 600;
}
);
unicode = 44;
},
{
glyphname = ellipsis;
kernLeft = _period;
kernRight = _period;
lastChange = "2024-10-11 15:27:38 +0000";
layers = (
{
guides = (
{
pos = (220,55);
userData = {
UFO.identifier = l7XyiSVBK4;
};
}
);
layerId = m001;
shapes = (
{
closed = 1;
nodes = (
(132,-9,o),
(160,20,o),
(160,56,cs),
(160,92,o),
(132,121,o),
(95,121,cs),
(58,121,o),
(30,92,o),
(30,56,cs),
(30,20,o),
(58,-9,o),
(95,-9,cs)
);
},
{
closed = 1;
nodes = (
(337,-9,o),
(365,20,o),
(365,56,cs),
(365,92,o),
(337,121,o),
(300,121,cs),
(263,121,o),
(235,92,o),
(235,56,cs),
(235,20,o),
(263,-9,o),
(300,-9,cs)
);
},
{
closed = 1;
nodes = (
(542,-9,o),
(570,20,o),
(570,56,cs),
(570,92,o),
(542,121,o),
(505,121,cs),
(468,121,o),
(440,92,o),
(440,56,cs),
(440,20,o),
(468,-9,o),
(505,-9,cs)
);
}
);
width = 600;
},
{
guides = (
{
pos = (355,85);
userData = {
UFO.identifier = l7XyiSVBK4;
};
}
);
layerId = "8560E1E4-71CD-42DE-875E-B4A7223FD06A";
shapes = (
{
closed = 1;
nodes = (
(142,-10,o),
(178,32,o),
(178,85,cs),
(178,138,o),
(142,180,o),
(96,180,cs),
(50,180,o),
(14,138,o),
(14,85,cs),
(14,32,o),
(50,-10,o),
(96,-10,cs)
);
},
{
closed = 1;
nodes = (
(346,-10,o),
(382,32,o),
(382,85,cs),
(382,138,o),
(346,180,o),
(300,180,cs),
(254,180,o),
(218,138,o),
(218,85,cs),
(218,32,o),
(254,-10,o),
(300,-10,cs)
);
},
{
closed = 1;
nodes = (
(550,-10,o),
(586,32,o),
(586,85,cs),
(586,138,o),
(550,180,o),
(504,180,cs),
(458,180,o),
(422,138,o),
(422,85,cs),
(422,32,o),
(458,-10,o),
(504,-10,cs)
);
}
);
width = 600;
},
{
guides = (
{
angle = 90;
pos = (342,28);
userData = {
UFO.identifier = l7XyiSVBK4;
};
}
);
layerId = "2B01EBD5-E910-4BCA-BDA7-5B8A0D7F375D";
shapes = (
{
closed = 1;
nodes = (
(131,-9,o),
(157,16,o),
(157,48,cs),
(157,80,o),
(131,105,o),
(96,105,cs),
(61,105,o),
(35,80,o),
(35,48,cs),
(35,16,o),
(61,-9,o),
(96,-9,cs)
);
},
{
closed = 1;
nodes = (
(335,-9,o),
(361,16,o),
(361,48,cs),
(361,80,o),
(335,105,o),
(300,105,cs),
(265,105,o),
(239,80,o),
(239,48,cs),
(239,16,o),
(265,-9,o),
(300,-9,cs)
);
},
{
closed = 1;
nodes = (
(539,-9,o),
(565,16,o),
(565,48,cs),
(565,80,o),
(539,105,o),
(504,105,cs),
(469,105,o),
(443,80,o),
(443,48,cs),
(443,16,o),
(469,-9,o),
(504,-9,cs)
);
}
);
width = 600;
}
);
unicode = 8230;
},
{
glyphname = exclam;
lastChange = "2024-10-11 15:27:38 +0000";
layers = (
{
layerId = m001;
shapes = (
{
closed = 1;
nodes = (
(328,215,l),
(337,727,l),
(262,727,l),
(271,215,l)
);
},
{
closed = 1;
nodes = (
(337,-9,o),
(365,20,o),
(365,56,cs),
(365,92,o),
(337,121,o),
(300,121,cs),
(263,121,o),
(235,92,o),
(235,56,cs),
(235,20,o),
(263,-9,o),
(300,-9,cs)
);
}
);
width = 600;
},
{
layerId = "8560E1E4-71CD-42DE-875E-B4A7223FD06A";
shapes = (
{
closed = 1;
nodes = (
(359,242,l),
(378,727,l),
(222,727,l),
(241,242,l)
);
},
{
closed = 1;
nodes = (
(357,-10,o),
(401,34,o),
(401,90,cs),
(401,146,o),
(357,190,o),
(300,190,cs),
(243,190,o),
(199,146,o),
(199,90,cs),
(199,34,o),
(243,-10,o),
(300,-10,cs)
);
}
);
width = 600;
},
{
layerId = "2B01EBD5-E910-4BCA-BDA7-5B8A0D7F375D";
shapes = (
{
closed = 1;
nodes = (
(321,208,l),
(327,727,l),
(273,727,l),
(279,208,l)
);
},
{
closed = 1;
nodes = (
(329,-8,o),
(353,16,o),
(353,46,cs),
(353,76,o),
(329,100,o),
(300,100,cs),
(271,100,o),
(247,76,o),
(247,46,cs),
(247,16,o),
(271,-8,o),
(300,-8,cs)
);
}
);
width = 600;
}
);
unicode = 33;
},
{
color = (0,0,255,191);
glyphname = exclamdown;
lastChange = "2024-10-11 15:27:38 +0000";
layers = (
{
layerId = m001;
shapes = (
{
closed = 1;
nodes = (
(272,277,l),
(263,-235,l),
(338,-235,l),
(329,277,l)
);
},
{
closed = 1;
nodes = (
(263,501,o),
(235,472,o),
(235,436,cs),
(235,400,o),
(263,371,o),
(300,371,cs),
(337,371,o),
(365,400,o),
(365,436,cs),
(365,472,o),
(337,501,o),
(300,501,cs)
);
}
);
userData = {
com.typemytype.robofont.guideline.magnetic.0C2kWGiRmU = 5;
com.typemytype.robofont.guideline.magnetic.CBajzZtwAP = 5;
com.typemytype.robofont.guideline.magnetic.GCmpGkTSpb = 5;
com.typemytype.robofont.guideline.magnetic.SYuR4psgeS = 5;
com.typemytype.robofont.guideline.magnetic.nHXIicSWkU = 5;
};
width = 600;
},
{
layerId = "8560E1E4-71CD-42DE-875E-B4A7223FD06A";
shapes = (
{
closed = 1;
nodes = (
(241,250,l),
(222,-235,l),
(378,-235,l),
(359,250,l)
);
},
{
closed = 1;
nodes = (
(243,502,o),
(199,458,o),
(199,402,cs),
(199,346,o),
(243,302,o),
(300,302,cs),
(357,302,o),
(401,346,o),
(401,402,cs),
(401,458,o),
(357,502,o),
(300,502,cs)
);
}
);
userData = {
com.typemytype.robofont.guideline.magnetic.0C2kWGiRmU = 5;
com.typemytype.robofont.guideline.magnetic.CBajzZtwAP = 5;
com.typemytype.robofont.guideline.magnetic.GCmpGkTSpb = 5;
com.typemytype.robofont.guideline.magnetic.SYuR4psgeS = 5;
com.typemytype.robofont.guideline.magnetic.nHXIicSWkU = 5;
};
width = 600;
},
{
layerId = "2B01EBD5-E910-4BCA-BDA7-5B8A0D7F375D";
shapes = (
{
closed = 1;
nodes = (
(278,284,l),
(272,-235,l),
(326,-235,l),
(320,284,l)
);
},
{
closed = 1;
nodes = (
(270,500,o),
(246,476,o),
(246,446,cs),
(246,416,o),
(270,392,o),
(299,392,cs),
(328,392,o),
(352,416,o),
(352,446,cs),
(352,476,o),
(328,500,o),
(299,500,cs)
);
}
);
userData = {
com.typemytype.robofont.guideline.magnetic.0C2kWGiRmU = 5;
com.typemytype.robofont.guideline.magnetic.CBajzZtwAP = 5;
com.typemytype.robofont.guideline.magnetic.GCmpGkTSpb = 5;
com.typemytype.robofont.guideline.magnetic.SYuR4psgeS = 5;
com.typemytype.robofont.guideline.magnetic.nHXIicSWkU = 5;
};
width = 600;
}
);
unicode = 161;
},
{
glyphname = question;
lastChange = "2024-10-11 15:27:38 +0000";
layers = (
{
layerId = m001;
shapes = (
{
closed = 1;
nodes = (
(305,215,l),
(284,370,o),
(508,357,o),
(508,535,cs),
(508,636,o),
(420,711,o),
(303,711,cs),
(215,711,o),
(137,669,o),
(83,593,c),
(139,555,l),
(182,614,o),
(237,645,o),
(300,645,cs),
(377,645,o),
(437,597,o),
(437,534,cs),
(437,390,o),
(227,417,o),
(242,215,c)
);
},
{
closed = 1;
nodes = (
(311,-9,o),
(339,20,o),
(339,56,cs),
(339,92,o),
(311,121,o),
(274,121,cs),
(237,121,o),
(209,92,o),
(209,56,cs),
(209,20,o),
(237,-9,o),
(274,-9,cs)
);
}
);
width = 600;
},
{
layerId = "8560E1E4-71CD-42DE-875E-B4A7223FD06A";
shapes = (
{
closed = 1;
nodes = (
(343,245,l),
(334,344,o),
(540,352,o),
(540,520,cs),
(540,628,o),
(443,711,o),
(304,711,cs),
(184,711,o),
(83,645,o),
(47,541,c),
(172,492,l),
(191,544,o),
(239,578,o),
(297,578,cs),
(351,578,o),
(389,552,o),
(389,515,cs),
(389,424,o),
(195,423,o),
(214,245,c)
);
},
{
closed = 1;
nodes = (
(338,-10,o),
(382,34,o),
(382,90,cs),
(382,146,o),
(338,190,o),
(281,190,cs),
(224,190,o),
(180,146,o),
(180,90,cs),
(180,34,o),
(224,-10,o),
(281,-10,cs)
);
}
);
width = 600;
},
{
guides = (
{
angle = 90;
pos = (272,208);
userData = {
UFO.identifier = cpUaL7h2b2;
};
}
);
layerId = "2B01EBD5-E910-4BCA-BDA7-5B8A0D7F375D";
shapes = (
{
closed = 1;
nodes = (
(295,208,l),
(271,377,o),
(500,360,o),
(500,539,cs),
(500,638,o),
(414,711,o),
(303,711,cs),
(223,711,o),
(152,674,o),
(92,603,c),
(130,568,l),
(181,631,o),
(236,663,o),
(301,663,cs),
(384,663,o),
(450,609,o),
(450,539,cs),
(450,381,o),
(235,416,o),
(249,208,c)
);
},
{
closed = 1;
nodes = (
(301,-8,o),
(325,16,o),
(325,46,cs),
(325,76,o),
(301,100,o),
(272,100,cs),
(243,100,o),
(219,76,o),
(219,46,cs),
(219,16,o),
(243,-8,o),
(272,-8,cs)
);
}
);
width = 600;
}
);
unicode = 63;
},
{
color = (0,0,255,191);
glyphname = questiondown;
lastChange = "2024-10-11 15:27:38 +0000";
layers = (
{
layerId = m001;
shapes = (
{
closed = 1;
nodes = (
(295,277,l),
(316,122,o),
(92,135,o),
(92,-43,cs),
(92,-144,o),
(180,-219,o),
(297,-219,cs),
(385,-219,o),
(463,-177,o),
(517,-101,c),
(461,-63,l),
(418,-122,o),
(363,-153,o),
(300,-153,cs),
(223,-153,o),
(163,-105,o),
(163,-42,cs),
(163,102,o),
(373,75,o),
(358,277,c)
);
},
{
closed = 1;
nodes = (
(289,501,o),
(261,472,o),
(261,436,cs),
(261,400,o),
(289,371,o),
(326,371,cs),
(363,371,o),
(391,400,o),
(391,436,cs),
(391,472,o),
(363,501,o),
(326,501,cs)
);
}
);
userData = {
com.typemytype.robofont.guideline.magnetic.IMaz5fMtzt = 5;
com.typemytype.robofont.guideline.magnetic.cziLJTzKvC = 5;
com.typemytype.robofont.guideline.magnetic.dciOJGCLsF = 5;
com.typemytype.robofont.guideline.magnetic.gtoWSp4rHE = 5;
com.typemytype.robofont.guideline.magnetic.j2JtakW70K = 5;
};
width = 600;
},
{
layerId = "8560E1E4-71CD-42DE-875E-B4A7223FD06A";
shapes = (
{
closed = 1;
nodes = (
(257,247,l),
(266,148,o),
(60,140,o),
(60,-28,cs),
(60,-136,o),
(157,-219,o),
(296,-219,cs),
(416,-219,o),
(517,-153,o),
(553,-49,c),
(428,0,l),
(409,-52,o),
(361,-86,o),
(303,-86,cs),
(249,-86,o),
(211,-60,o),
(211,-23,cs),
(211,68,o),
(405,69,o),
(386,247,c)
);
},
{
closed = 1;
nodes = (
(262,502,o),
(218,458,o),
(218,402,cs),
(218,346,o),
(262,302,o),
(319,302,cs),
(376,302,o),
(420,346,o),
(420,402,cs),
(420,458,o),
(376,502,o),
(319,502,cs)
);
}
);
userData = {
com.typemytype.robofont.guideline.magnetic.IMaz5fMtzt = 5;
com.typemytype.robofont.guideline.magnetic.cziLJTzKvC = 5;
com.typemytype.robofont.guideline.magnetic.dciOJGCLsF = 5;
com.typemytype.robofont.guideline.magnetic.gtoWSp4rHE = 5;
com.typemytype.robofont.guideline.magnetic.j2JtakW70K = 5;
};
width = 600;
},
{
layerId = "2B01EBD5-E910-4BCA-BDA7-5B8A0D7F375D";
shapes = (
{
closed = 1;
nodes = (
(305,284,l),
(329,115,o),
(100,132,o),
(100,-47,cs),
(100,-146,o),
(186,-219,o),
(297,-219,cs),
(377,-219,o),
(448,-182,o),
(508,-111,c),
(470,-76,l),
(419,-139,o),
(364,-171,o),
(299,-171,cs),
(216,-171,o),
(150,-117,o),
(150,-47,cs),
(150,111,o),
(365,76,o),
(351,284,c)
);
},
{
closed = 1;
nodes = (
(299,500,o),
(275,476,o),
(275,446,cs),
(275,416,o),
(299,392,o),
(328,392,cs),
(357,392,o),
(381,416,o),
(381,446,cs),
(381,476,o),
(357,500,o),
(328,500,cs)
);
}
);
userData = {
com.typemytype.robofont.guideline.magnetic.IMaz5fMtzt = 5;
com.typemytype.robofont.guideline.magnetic.cziLJTzKvC = 5;
com.typemytype.robofont.guideline.magnetic.dciOJGCLsF = 5;
com.typemytype.robofont.guideline.magnetic.gtoWSp4rHE = 5;
com.typemytype.robofont.guideline.magnetic.j2JtakW70K = 5;
};
width = 600;
}
);
unicode = 191;
},
{
color = (0,0,255,191);
glyphname = periodcentered;
lastChange = "2024-10-11 15:27:38 +0000";
layers = (
{
layerId = m001;
shapes = (
{
closed = 1;
nodes = (
(337,228,o),
(365,257,o),
(365,293,cs),
(365,329,o),
(337,358,o),
(300,358,cs),
(263,358,o),
(235,329,o),
(235,293,cs),
(235,257,o),
(263,228,o),
(300,228,cs)
);
}
);
width = 600;
},
{
layerId = "8560E1E4-71CD-42DE-875E-B4A7223FD06A";
shapes = (
{
closed = 1;
nodes = (
(360,195,o),
(407,242,o),
(407,301,cs),
(407,360,o),
(360,407,o),
(300,407,cs),
(240,407,o),
(193,360,o),
(193,301,cs),
(193,242,o),
(240,195,o),
(300,195,cs)
);
}
);
width = 600;
},
{
layerId = "2B01EBD5-E910-4BCA-BDA7-5B8A0D7F375D";
shapes = (
{
closed = 1;
nodes = (
(329,237,o),
(353,261,o),
(353,291,cs),
(353,321,o),
(329,345,o),
(300,345,cs),
(271,345,o),
(247,321,o),
(247,291,cs),
(247,261,o),
(271,237,o),
(300,237,cs)
);
}
);
width = 600;
}
);
unicode = 183;
},
{
glyphname = bullet;
lastChange = "2024-10-11 15:27:38 +0000";
layers = (
{
layerId = m001;
shapes = (
{
closed = 1;
nodes = (
(354,252,o),
(400,296,o),
(400,353,cs),
(400,410,o),
(354,454,o),
(300,454,cs),
(246,454,o),
(200,410,o),
(200,353,cs),
(200,296,o),
(246,252,o),
(300,252,cs)
);
}
);
width = 600;
},
{
layerId = "8560E1E4-71CD-42DE-875E-B4A7223FD06A";
shapes = (
{
closed = 1;
nodes = (
(366,201,o),
(418,254,o),
(418,323,cs),
(418,392,o),
(366,445,o),
(300,445,cs),
(234,445,o),
(182,392,o),
(182,323,cs),
(182,254,o),
(234,201,o),
(300,201,cs)
);
}
);
width = 600;
},
{
layerId = "2B01EBD5-E910-4BCA-BDA7-5B8A0D7F375D";
shapes = (
{
closed = 1;
nodes = (
(351,266,o),
(395,307,o),
(395,361,cs),
(395,415,o),
(351,456,o),
(300,456,cs),
(249,456,o),
(205,415,o),
(205,361,cs),
(205,307,o),
(249,266,o),
(300,266,cs)
);
}
);
width = 600;
}
);
unicode = 8226;
},
{
glyphname = asterisk;
kernLeft = _reg;
kernRight = _reg;
lastChange = "2024-10-11 15:27:38 +0000";
layers = (
{
layerId = m001;
shapes = (
{
closed = 1;
nodes = (
(325,291,l),
(323,454,l),
(460,356,l),
(490,401,l),
(346,499,l),
(486,596,l),
(456,640,l),
(324,545,l),
(325,700,l),
(273,700,l),
(274,544,l),
(142,640,l),
(114,596,l),
(253,499,l),
(110,401,l),
(139,356,l),
(275,454,l),
(273,291,l)
);
}
);
width = 600;
},
{
layerId = "8560E1E4-71CD-42DE-875E-B4A7223FD06A";
shapes = (
{
closed = 1;
nodes = (
(348,276,l),
(346,397,l),
(455,321,l),
(510,408,l),
(391,486,l),
(512,567,l),
(457,652,l),
(346,574,l),
(348,700,l),
(250,700,l),
(252,575,l),
(142,652,l),
(88,567,l),
(208,486,l),
(90,408,l),
(143,321,l),
(252,397,l),
(250,276,l)
);
}
);
width = 600;
},
{
layerId = "2B01EBD5-E910-4BCA-BDA7-5B8A0D7F375D";
shapes = (
{
closed = 1;
nodes = (
(320,300,l),
(318,466,l),
(455,370,l),
(477,403,l),
(335,500,l),
(473,594,l),
(449,627,l),
(318,535,l),
(320,700,l),
(280,700,l),
(282,534,l),
(149,627,l),
(128,594,l),
(265,501,l),
(122,404,l),
(145,370,l),
(282,466,l),
(280,300,l)
);
}
);
width = 600;
}
);
unicode = 42;
},
{
glyphname = numbersign;
lastChange = "2024-10-11 15:27:38 +0000";
layers = (
{
layerId = m001;
shapes = (
{
closed = 1;
nodes = (
(107,0,l),
(182,219,l),
(329,219,l),
(254,0,l),
(320,0,l),
(395,219,l),
(533,219,l),
(533,277,l),
(415,277,l),
(465,423,l),
(581,423,l),
(581,481,l),
(485,481,l),
(560,700,l),
(494,700,l),
(419,481,l),
(272,481,l),
(347,700,l),
(281,700,l),
(206,481,l),
(67,481,l),
(67,423,l),
(186,423,l),
(136,277,l),
(19,277,l),
(19,219,l),
(116,219,l),
(41,0,l)
);
},
{
closed = 1;
nodes = (
(252,423,l),
(399,423,l),
(349,277,l),
(202,277,l)
);
}
);
width = 600;
},
{
layerId = "8560E1E4-71CD-42DE-875E-B4A7223FD06A";
shapes = (
{
closed = 1;
nodes = (
(132,0,l),
(195,184,l),
(291,184,l),
(228,0,l),
(360,0,l),
(423,184,l),
(564,184,l),
(564,293,l),
(460,293,l),
(500,407,l),
(612,407,l),
(612,516,l),
(537,516,l),
(600,700,l),
(468,700,l),
(405,516,l),
(309,516,l),
(372,700,l),
(239,700,l),
(176,516,l),
(35,516,l),
(35,407,l),
(139,407,l),
(99,293,l),
(-12,293,l),
(-12,184,l),
(62,184,l),
(-1,0,l)
);
},
{
closed = 1;
nodes = (
(272,407,l),
(368,407,l),
(328,293,l),
(232,293,l)
);
}
);
width = 600;
},
{
layerId = "2B01EBD5-E910-4BCA-BDA7-5B8A0D7F375D";
shapes = (
{
closed = 1;
nodes = (
(99,0,l),
(177,228,l),
(340,228,l),
(262,0,l),
(309,0,l),
(387,228,l),
(525,228,l),
(525,272,l),
(402,272,l),
(456,428,l),
(573,428,l),
(573,472,l),
(471,472,l),
(549,700,l),
(502,700,l),
(424,472,l),
(261,472,l),
(339,700,l),
(292,700,l),
(214,472,l),
(75,472,l),
(75,428,l),
(199,428,l),
(145,272,l),
(27,272,l),
(27,228,l),
(130,228,l),
(52,0,l)
);
},
{
closed = 1;
nodes = (
(246,428,l),
(409,428,l),
(355,272,l),
(192,272,l)
);
}
);
width = 600;
}
);
unicode = 35;
},
{
glyphname = slash;
lastChange = "2024-10-11 15:27:38 +0000";
layers = (
{
layerId = m001;
shapes = (
{
closed = 1;
nodes = (
(111,-209,l),
(511,700,l),
(439,700,l),
(39,-209,l)
);
}
);
width = 600;
},
{
layerId = "8560E1E4-71CD-42DE-875E-B4A7223FD06A";
shapes = (
{
closed = 1;
nodes = (
(139,-209,l),
(540,700,l),
(386,700,l),
(-16,-209,l)
);
}
);
width = 600;
},
{
layerId = "2B01EBD5-E910-4BCA-BDA7-5B8A0D7F375D";
shapes = (
{
closed = 1;
nodes = (
(105,-209,l),
(503,700,l),
(451,700,l),
(53,-209,l)
);
}
);
width = 600;
}
);
unicode = 47;
},
{
glyphname = backslash;
lastChange = "2024-10-11 15:27:38 +0000";
layers = (
{
layerId = m001;
shapes = (
{
closed = 1;
nodes = (
(563,-209,l),
(163,700,l),
(87,700,l),
(487,-209,l)
);
}
);
width = 600;
},
{
layerId = "8560E1E4-71CD-42DE-875E-B4A7223FD06A";
shapes = (
{
closed = 1;
nodes = (
(625,-209,l),
(223,700,l),
(60,700,l),
(463,-209,l)
);
}
);
width = 600;
},
{
layerId = "2B01EBD5-E910-4BCA-BDA7-5B8A0D7F375D";
shapes = (
{
closed = 1;
nodes = (
(547,-209,l),
(148,700,l),
(94,700,l),
(493,-209,l)
);
}
);
width = 600;
}
);
unicode = 92;
},
{
color = (255,204,102,255);
glyphname = exclamdown.case;
lastChange = "2024-11-15 13:37:04 +0000";
layers = (
{
layerId = m001;
shapes = (
{
closed = 1;
nodes = (
(272,485,l),
(263,-27,l),
(338,-27,l),
(329,485,l)
);
},
{
closed = 1;
nodes = (
(263,709,o),
(235,680,o),
(235,644,cs),
(235,608,o),
(263,579,o),
(300,579,cs),
(337,579,o),
(365,608,o),
(365,644,cs),
(365,680,o),
(337,709,o),
(300,709,cs)
);
}
);
userData = {
com.typemytype.robofont.guideline.magnetic.0C2kWGiRmU = 5;
com.typemytype.robofont.guideline.magnetic.CBajzZtwAP = 5;
com.typemytype.robofont.guideline.magnetic.GCmpGkTSpb = 5;
com.typemytype.robofont.guideline.magnetic.SYuR4psgeS = 5;
com.typemytype.robofont.guideline.magnetic.nHXIicSWkU = 5;
};
width = 600;
},
{
layerId = "8560E1E4-71CD-42DE-875E-B4A7223FD06A";
shapes = (
{
closed = 1;
nodes = (
(241,458,l),
(222,-27,l),
(378,-27,l),
(359,458,l)
);
},
{
closed = 1;
nodes = (
(243,710,o),
(199,666,o),
(199,610,cs),
(199,554,o),
(243,510,o),
(300,510,cs),
(357,510,o),
(401,554,o),
(401,610,cs),
(401,666,o),
(357,710,o),
(300,710,cs)
);
}
);
userData = {
com.typemytype.robofont.guideline.magnetic.0C2kWGiRmU = 5;
com.typemytype.robofont.guideline.magnetic.CBajzZtwAP = 5;
com.typemytype.robofont.guideline.magnetic.GCmpGkTSpb = 5;
com.typemytype.robofont.guideline.magnetic.SYuR4psgeS = 5;
com.typemytype.robofont.guideline.magnetic.nHXIicSWkU = 5;
};
width = 600;
},
{
layerId = "2B01EBD5-E910-4BCA-BDA7-5B8A0D7F375D";
shapes = (
{
closed = 1;
nodes = (
(278,492,l),
(272,-27,l),
(326,-27,l),
(320,492,l)
);
},
{
closed = 1;
nodes = (
(270,708,o),
(246,684,o),
(246,654,cs),
(246,624,o),
(270,600,o),
(299,600,cs),
(328,600,o),
(352,624,o),
(352,654,cs),
(352,684,o),
(328,708,o),
(299,708,cs)
);
}
);
userData = {
com.typemytype.robofont.guideline.magnetic.0C2kWGiRmU = 5;
com.typemytype.robofont.guideline.magnetic.CBajzZtwAP = 5;
com.typemytype.robofont.guideline.magnetic.GCmpGkTSpb = 5;
com.typemytype.robofont.guideline.magnetic.SYuR4psgeS = 5;
com.typemytype.robofont.guideline.magnetic.nHXIicSWkU = 5;
};
width = 600;
}
);
},
{
color = (255,204,102,255);
glyphname = questiondown.case;
lastChange = "2024-11-15 13:37:04 +0000";
layers = (
{
layerId = m001;
shapes = (
{
closed = 1;
nodes = (
(295,485,l),
(316,330,o),
(92,343,o),
(92,165,cs),
(92,64,o),
(180,-11,o),
(297,-11,cs),
(385,-11,o),
(463,31,o),
(517,107,c),
(461,145,l),
(418,86,o),
(363,55,o),
(300,55,cs),
(223,55,o),
(163,103,o),
(163,166,cs),
(163,310,o),
(373,283,o),
(358,485,c)
);
},
{
closed = 1;
nodes = (
(289,709,o),
(261,680,o),
(261,644,cs),
(261,608,o),
(289,579,o),
(326,579,cs),
(363,579,o),
(391,608,o),
(391,644,cs),
(391,680,o),
(363,709,o),
(326,709,cs)
);
}
);
userData = {
com.typemytype.robofont.guideline.magnetic.IMaz5fMtzt = 5;
com.typemytype.robofont.guideline.magnetic.cziLJTzKvC = 5;
com.typemytype.robofont.guideline.magnetic.dciOJGCLsF = 5;
com.typemytype.robofont.guideline.magnetic.gtoWSp4rHE = 5;
com.typemytype.robofont.guideline.magnetic.j2JtakW70K = 5;
};
width = 600;
},
{
layerId = "8560E1E4-71CD-42DE-875E-B4A7223FD06A";
shapes = (
{
closed = 1;
nodes = (
(257,455,l),
(266,356,o),
(60,348,o),
(60,180,cs),
(60,72,o),
(157,-11,o),
(296,-11,cs),
(416,-11,o),
(517,55,o),
(553,159,c),
(428,208,l),
(409,156,o),
(361,122,o),
(303,122,cs),
(249,122,o),
(211,148,o),
(211,185,cs),
(211,276,o),
(405,277,o),
(386,455,c)
);
},
{
closed = 1;
nodes = (
(262,710,o),
(218,666,o),
(218,610,cs),
(218,554,o),
(262,510,o),
(319,510,cs),
(376,510,o),
(420,554,o),
(420,610,cs),
(420,666,o),
(376,710,o),
(319,710,cs)
);
}
);
userData = {
com.typemytype.robofont.guideline.magnetic.IMaz5fMtzt = 5;
com.typemytype.robofont.guideline.magnetic.cziLJTzKvC = 5;
com.typemytype.robofont.guideline.magnetic.dciOJGCLsF = 5;
com.typemytype.robofont.guideline.magnetic.gtoWSp4rHE = 5;
com.typemytype.robofont.guideline.magnetic.j2JtakW70K = 5;
};
width = 600;
},
{
layerId = "2B01EBD5-E910-4BCA-BDA7-5B8A0D7F375D";
shapes = (
{
closed = 1;
nodes = (
(305,492,l),
(329,323,o),
(100,340,o),
(100,161,cs),
(100,62,o),
(186,-11,o),
(297,-11,cs),
(377,-11,o),
(448,26,o),
(508,97,c),
(470,132,l),
(419,69,o),
(364,37,o),
(299,37,cs),
(216,37,o),
(150,91,o),
(150,161,cs),
(150,319,o),
(365,284,o),
(351,492,c)
);
},
{
closed = 1;
nodes = (
(299,708,o),
(275,684,o),
(275,654,cs),
(275,624,o),
(299,600,o),
(328,600,cs),
(357,600,o),
(381,624,o),
(381,654,cs),
(381,684,o),
(357,708,o),
(328,708,cs)
);
}
);
userData = {
com.typemytype.robofont.guideline.magnetic.IMaz5fMtzt = 5;
com.typemytype.robofont.guideline.magnetic.cziLJTzKvC = 5;
com.typemytype.robofont.guideline.magnetic.dciOJGCLsF = 5;
com.typemytype.robofont.guideline.magnetic.gtoWSp4rHE = 5;
com.typemytype.robofont.guideline.magnetic.j2JtakW70K = 5;
};
width = 600;
}
);
},
{
color = 4;
glyphname = periodcentered.loclCAT;
lastChange = "2024-11-07 13:16:21 +0000";
layers = (
{
layerId = "2B01EBD5-E910-4BCA-BDA7-5B8A0D7F375D";
shapes = (
{
closed = 1;
nodes = (
(329,395,o),
(353,419,o),
(353,449,cs),
(353,479,o),
(329,503,o),
(300,503,cs),
(271,503,o),
(247,479,o),
(247,449,cs),
(247,419,o),
(271,395,o),
(300,395,cs)
);
}
);
width = 600;
},
{
layerId = m001;
shapes = (
{
closed = 1;
nodes = (
(337,396,o),
(365,425,o),
(365,461,cs),
(365,497,o),
(337,526,o),
(300,526,cs),
(263,526,o),
(235,497,o),
(235,461,cs),
(235,425,o),
(263,396,o),
(300,396,cs)
);
}
);
width = 600;
},
{
layerId = "8560E1E4-71CD-42DE-875E-B4A7223FD06A";
shapes = (
{
closed = 1;
nodes = (
(360,383,o),
(407,430,o),
(407,489,cs),
(407,548,o),
(360,595,o),
(300,595,cs),
(240,595,o),
(193,548,o),
(193,489,cs),
(193,430,o),
(240,383,o),
(300,383,cs)
);
}
);
width = 600;
}
);
},
{
color = 4;
glyphname = periodcentered.loclCAT.case;
lastChange = "2024-11-07 13:16:32 +0000";
layers = (
{
layerId = "2B01EBD5-E910-4BCA-BDA7-5B8A0D7F375D";
shapes = (
{
closed = 1;
nodes = (
(329,395,o),
(353,419,o),
(353,449,cs),
(353,479,o),
(329,503,o),
(300,503,cs),
(271,503,o),
(247,479,o),
(247,449,cs),
(247,419,o),
(271,395,o),
(300,395,cs)
);
}
);
width = 600;
},
{
layerId = m001;
shapes = (
{
closed = 1;
nodes = (
(337,396,o),
(365,425,o),
(365,461,cs),
(365,497,o),
(337,526,o),
(300,526,cs),
(263,526,o),
(235,497,o),
(235,461,cs),
(235,425,o),
(263,396,o),
(300,396,cs)
);
}
);
width = 600;
},
{
layerId = "8560E1E4-71CD-42DE-875E-B4A7223FD06A";
shapes = (
{
closed = 1;
nodes = (
(360,383,o),
(407,430,o),
(407,489,cs),
(407,548,o),
(360,595,o),
(300,595,cs),
(240,595,o),
(193,548,o),
(193,489,cs),
(193,430,o),
(240,383,o),
(300,383,cs)
);
}
);
width = 600;
}
);
},
{
glyphname = hyphen;
kernLeft = _dash;
kernRight = _dash;
lastChange = "2024-10-11 15:27:38 +0000";
layers = (
{
guides = (
{
pos = (0,348);
userData = {
UFO.identifier = rfIZffTcIn;
};
}
);
layerId = m001;
shapes = (
{
closed = 1;
nodes = (
(466,250,l),
(466,310,l),
(134,310,l),
(134,250,l)
);
}
);
width = 600;
},
{
layerId = "8560E1E4-71CD-42DE-875E-B4A7223FD06A";
shapes = (
{
closed = 1;
nodes = (
(504,219,l),
(504,354,l),
(96,354,l),
(96,219,l)
);
}
);
width = 600;
},
{
layerId = "2B01EBD5-E910-4BCA-BDA7-5B8A0D7F375D";
shapes = (
{
closed = 1;
nodes = (
(462,258,l),
(462,302,l),
(138,302,l),
(138,258,l)
);
}
);
width = 600;
}
);
unicode = 45;
},
{
glyphname = endash;
kernLeft = _dash;
kernRight = _dash;
lastChange = "2024-10-11 15:27:38 +0000";
layers = (
{
layerId = m001;
shapes = (
{
closed = 1;
nodes = (
(514,250,l),
(514,310,l),
(86,310,l),
(86,250,l)
);
}
);
width = 600;
},
{
layerId = "8560E1E4-71CD-42DE-875E-B4A7223FD06A";
shapes = (
{
closed = 1;
nodes = (
(532,219,l),
(532,354,l),
(68,354,l),
(68,219,l)
);
}
);
width = 600;
},
{
layerId = "2B01EBD5-E910-4BCA-BDA7-5B8A0D7F375D";
shapes = (
{
closed = 1;
nodes = (
(509,258,l),
(509,302,l),
(91,302,l),
(91,258,l)
);
}
);
width = 600;
}
);
unicode = 8211;
},
